<?xml version="1.0" encoding="UTF-8" standalone="no"?>
<!-- Created with Inkscape (http://www.inkscape.org/) -->

<svg
   xmlns:dc="http://purl.org/dc/elements/1.1/"
   xmlns:cc="http://creativecommons.org/ns#"
   xmlns:rdf="http://www.w3.org/1999/02/22-rdf-syntax-ns#"
   xmlns:svg="http://www.w3.org/2000/svg"
   xmlns="http://www.w3.org/2000/svg"
   xmlns:sodipodi="http://sodipodi.sourceforge.net/DTD/sodipodi-0.dtd"
   xmlns:inkscape="http://www.inkscape.org/namespaces/inkscape"
   width="61.366333mm"
   height="36.780243mm"
   viewBox="0 0 217.43977 130.32369"
   id="svg5088"
   version="1.1"
   inkscape:version="0.91 r13725"
   sodipodi:docname="amp-mod.svg">
  <defs
     id="defs5090" />
  <sodipodi:namedview
     id="base"
     pagecolor="#ffffff"
     bordercolor="#666666"
     borderopacity="1.0"
     inkscape:pageopacity="0.0"
     inkscape:pageshadow="2"
     inkscape:zoom="1.4"
     inkscape:cx="225.63316"
     inkscape:cy="-24.323038"
     inkscape:document-units="px"
     inkscape:current-layer="g762"
     showgrid="false"
     fit-margin-top="0"
     fit-margin-left="0"
     fit-margin-right="0"
     fit-margin-bottom="0"
     inkscape:window-width="1855"
     inkscape:window-height="1056"
     inkscape:window-x="65"
     inkscape:window-y="24"
     inkscape:window-maximized="1" />
  <metadata
     id="metadata5093">
    <rdf:RDF>
      <cc:Work
         rdf:about="">
        <dc:format>image/svg+xml</dc:format>
        <dc:type
           rdf:resource="http://purl.org/dc/dcmitype/StillImage" />
        <dc:title></dc:title>
      </cc:Work>
    </rdf:RDF>
  </metadata>
  <g
     inkscape:label="Layer 1"
     inkscape:groupmode="layer"
     id="layer1"
     transform="translate(112.7533,-419.65711)">
    <g
       transform="matrix(0.00899999,0,0,0.00899999,-162.52324,344.42104)"
       style="fill:#840000;fill-opacity:0;stroke:#840000;stroke-width:60;stroke-linecap:round;stroke-linejoin:round;stroke-opacity:1"
       id="g14">
      <rect
         x="14250"
         y="9750"
         width="10000"
         height="8000"
         rx="0"
         id="rect16" />
      <path
         inkscape:connector-curvature="0"
         d="m 14250,10750 -3000,0"
         id="path18" />
    </g>
    <g
       transform="matrix(0.00899999,0,0,0.00899999,-162.52324,344.42104)"
       style="fill:#008484;fill-opacity:0;stroke:#008484;stroke-width:60;stroke-linecap:round;stroke-linejoin:round;stroke-opacity:1"
       id="g20">
      <path
         inkscape:connector-curvature="0"
         d="m 14640,10420 400,600"
         id="path22" />
      <path
         inkscape:connector-curvature="0"
         d="m 15040,10420 -400,600"
         id="path24" />
      <path
         inkscape:connector-curvature="0"
         d="m 15580,11020 -350,0"
         id="path26" />
      <path
         inkscape:connector-curvature="0"
         d="m 15410,11020 0,-600 -60,90 -60,50 -60,30"
         id="path28" />
    </g>
    <g
       transform="matrix(0.00899999,0,0,0.00899999,-162.52324,344.42104)"
       style="fill:#840000;fill-opacity:0;stroke:#840000;stroke-width:60;stroke-linecap:round;stroke-linejoin:round;stroke-opacity:1"
       id="g30">
      <path
         inkscape:connector-curvature="0"
         d="m 12930,10620 -350,0"
         id="path32" />
      <path
         inkscape:connector-curvature="0"
         d="m 12760,10620 0,-600 -60,90 -60,50 -60,30"
         id="path34" />
      <path
         inkscape:connector-curvature="0"
         d="m 14250,12750 -3000,0"
         id="path36" />
    </g>
    <g
       transform="matrix(0.00899999,0,0,0.00899999,-162.52324,344.42104)"
       style="fill:#008484;fill-opacity:0;stroke:#008484;stroke-width:60;stroke-linecap:round;stroke-linejoin:round;stroke-opacity:1"
       id="g38">
      <path
         inkscape:connector-curvature="0"
         d="m 14640,12420 400,600"
         id="path40" />
      <path
         inkscape:connector-curvature="0"
         d="m 15040,12420 -400,600"
         id="path42" />
      <path
         inkscape:connector-curvature="0"
         d="m 15230,12480 30,-30 60,-30 140,0 60,30 30,30 30,60 0,50 -30,90 -340,340 370,0"
         id="path44" />
    </g>
    <g
       transform="matrix(0.00899999,0,0,0.00899999,-162.52324,344.42104)"
       style="fill:#840000;fill-opacity:0;stroke:#840000;stroke-width:60;stroke-linecap:round;stroke-linejoin:round;stroke-opacity:1"
       id="g46">
      <path
         inkscape:connector-curvature="0"
         d="m 12580,12080 30,-30 60,-30 140,0 60,30 30,30 30,60 0,50 -30,90 -340,340 370,0"
         id="path48" />
      <path
         inkscape:connector-curvature="0"
         d="m 14250,14750 -3000,0"
         id="path50" />
    </g>
    <g
       transform="matrix(0.00899999,0,0,0.00899999,-162.52324,344.42104)"
       style="fill:#008484;fill-opacity:0;stroke:#008484;stroke-width:60;stroke-linecap:round;stroke-linejoin:round;stroke-opacity:1"
       id="g52">
      <path
         inkscape:connector-curvature="0"
         d="m 14810,14740 0,280"
         id="path54" />
      <path
         inkscape:connector-curvature="0"
         d="m 14610,14420 200,320 200,-320"
         id="path56" />
      <path
         inkscape:connector-curvature="0"
         d="m 15520,15020 -350,0"
         id="path58" />
      <path
         inkscape:connector-curvature="0"
         d="m 15350,15020 0,-600 -60,90 -60,50 -60,30"
         id="path60" />
    </g>
    <g
       transform="matrix(0.00899999,0,0,0.00899999,-162.52324,344.42104)"
       style="fill:#840000;fill-opacity:0;stroke:#840000;stroke-width:60;stroke-linecap:round;stroke-linejoin:round;stroke-opacity:1"
       id="g62">
      <path
         inkscape:connector-curvature="0"
         d="m 12560,14020 370,0 -200,230 80,0 60,30 30,30 30,50 0,150 -30,50 -30,30 -60,30 -170,0 -60,-30 -20,-30"
         id="path64" />
      <path
         inkscape:connector-curvature="0"
         d="m 14250,16750 -3000,0"
         id="path66" />
    </g>
    <g
       transform="matrix(0.00899999,0,0,0.00899999,-162.52324,344.42104)"
       style="fill:#008484;fill-opacity:0;stroke:#008484;stroke-width:60;stroke-linecap:round;stroke-linejoin:round;stroke-opacity:1"
       id="g68">
      <path
         inkscape:connector-curvature="0"
         d="m 14810,16740 0,280"
         id="path70" />
      <path
         inkscape:connector-curvature="0"
         d="m 14610,16420 200,320 200,-320"
         id="path72" />
      <path
         inkscape:connector-curvature="0"
         d="m 15170,16480 30,-30 60,-30 140,0 60,30 30,30 30,60 0,50 -30,90 -340,340 370,0"
         id="path74" />
    </g>
    <g
       transform="matrix(0.00899999,0,0,0.00899999,-162.52324,344.42104)"
       style="fill:#840000;fill-opacity:0;stroke:#840000;stroke-width:60;stroke-linecap:round;stroke-linejoin:round;stroke-opacity:1"
       id="g76">
      <path
         inkscape:connector-curvature="0"
         d="m 12870,16220 0,400"
         id="path78" />
      <path
         inkscape:connector-curvature="0"
         d="m 12730,15990 -150,430 380,0"
         id="path80" />
      <path
         inkscape:connector-curvature="0"
         d="m 24250,16750 3000,0"
         id="path82" />
    </g>
    <g
       transform="matrix(0.00899999,0,0,0.00899999,-162.52324,344.42104)"
       style="fill:#008484;fill-opacity:0;stroke:#008484;stroke-width:60;stroke-linecap:round;stroke-linejoin:round;stroke-opacity:1"
       id="g84">
      <path
         inkscape:connector-curvature="0"
         d="m 22840,16790 460,0"
         id="path86" />
      <path
         inkscape:connector-curvature="0"
         d="m 23500,16420 200,600 200,-600"
         id="path88" />
    </g>
    <g
       transform="matrix(0.00899999,0,0,0.00899999,-162.52324,344.42104)"
       style="fill:#840000;fill-opacity:0;stroke:#840000;stroke-width:60;stroke-linecap:round;stroke-linejoin:round;stroke-opacity:1"
       id="g90">
      <path
         inkscape:connector-curvature="0"
         d="m 25900,16020 -290,0 -30,290 30,-30 60,-30 140,0 60,30 30,30 30,50 0,150 -30,50 -30,30 -60,30 -140,0 -60,-30 -30,-30"
         id="path92" />
      <path
         inkscape:connector-curvature="0"
         d="m 24250,14750 3000,0"
         id="path94" />
    </g>
    <g
       transform="matrix(0.00899999,0,0,0.00899999,-162.52324,344.42104)"
       style="fill:#008484;fill-opacity:0;stroke:#008484;stroke-width:60;stroke-linecap:round;stroke-linejoin:round;stroke-opacity:1"
       id="g96">
      <path
         inkscape:connector-curvature="0"
         d="m 23470,14420 400,0 -400,600 400,0"
         id="path98" />
    </g>
    <g
       transform="matrix(0.00899999,0,0,0.00899999,-162.52324,344.42104)"
       style="fill:#840000;fill-opacity:0;stroke:#840000;stroke-width:60;stroke-linecap:round;stroke-linejoin:round;stroke-opacity:1"
       id="g100">
      <path
         inkscape:connector-curvature="0"
         d="m 25870,14020 -110,0 -60,30 -30,30 -60,80 -30,120 0,230 30,50 30,30 60,30 110,0 60,-30 30,-30 30,-50 0,-150 -30,-50 -30,-30 -60,-30 -110,0 -60,30 -30,30 -30,50"
         id="path102" />
      <path
         inkscape:connector-curvature="0"
         d="m 24250,12750 3000,0"
         id="path104" />
    </g>
    <g
       transform="matrix(0.00899999,0,0,0.00899999,-162.52324,344.42104)"
       style="fill:#008484;fill-opacity:0;stroke:#008484;stroke-width:60;stroke-linecap:round;stroke-linejoin:round;stroke-opacity:1"
       id="g106">
      <path
         inkscape:connector-curvature="0"
         d="m 23450,12480 120,500 100,-360 90,360 120,-500"
         id="path108" />
    </g>
    <g
       transform="matrix(0.00899999,0,0,0.00899999,-162.52324,344.42104)"
       style="fill:#840000;fill-opacity:0;stroke:#840000;stroke-width:60;stroke-linecap:round;stroke-linejoin:round;stroke-opacity:1"
       id="g110">
      <path
         inkscape:connector-curvature="0"
         d="m 25580,12130 330,0 -210,500"
         id="path112" />
      <path
         inkscape:connector-curvature="0"
         d="m 24250,10750 3000,0"
         id="path114" />
    </g>
    <g
       transform="matrix(0.00899999,0,0,0.00899999,-162.52324,344.42104)"
       style="fill:#008484;fill-opacity:0;stroke:#008484;stroke-width:60;stroke-linecap:round;stroke-linejoin:round;stroke-opacity:1"
       id="g116">
      <path
         inkscape:connector-curvature="0"
         d="m 22840,10790 460,0"
         id="path118" />
      <path
         inkscape:connector-curvature="0"
         d="m 23070,11020 0,-460"
         id="path120" />
      <path
         inkscape:connector-curvature="0"
         d="m 23500,10420 200,600 200,-600"
         id="path122" />
    </g>
    <g
       transform="matrix(0.00899999,0,0,0.00899999,-162.52324,344.42104)"
       style="fill:#840000;fill-opacity:0;stroke:#840000;stroke-width:60;stroke-linecap:round;stroke-linejoin:round;stroke-opacity:1"
       id="g124">
      <path
         inkscape:connector-curvature="0"
         d="m 25700,10280 -60,-30 -30,-30 -30,-60 0,-20 30,-60 30,-30 60,-30 110,0 60,30 30,30 30,60 0,20 -30,60 -30,30 -60,30 -110,0 -60,30 -30,30 -30,50 0,120 30,50 30,30 60,30 110,0 60,-30 30,-30 30,-50 0,-120 -30,-50 -30,-30 -60,-30"
         id="path126" />
    </g>
    <g
       transform="matrix(0.00899999,0,0,0.00899999,-162.52324,344.42104)"
       style="fill:#008484;fill-opacity:0;stroke:#008484;stroke-width:60;stroke-linecap:round;stroke-linejoin:round;stroke-opacity:1"
       id="g128">
      <path
         inkscape:connector-curvature="0"
         d="m 13480,8990 -290,0 0,-600"
         id="path130" />
      <path
         inkscape:connector-curvature="0"
         d="m 13680,8990 0,-400"
         id="path132" />
      <path
         inkscape:connector-curvature="0"
         d="m 13680,8390 -30,30 30,30 30,-30 -30,-30 0,60"
         id="path134" />
      <path
         inkscape:connector-curvature="0"
         d="m 13970,8590 0,400"
         id="path136" />
      <path
         inkscape:connector-curvature="0"
         d="m 13970,8650 30,-30 60,-30 80,0 60,30 30,60 0,310"
         id="path138" />
      <path
         inkscape:connector-curvature="0"
         d="m 14740,8960 -60,30 -110,0 -60,-30 -30,-50 0,-230 30,-60 60,-30 110,0 60,30 30,60 0,50 -290,60"
         id="path140" />
      <path
         inkscape:connector-curvature="0"
         d="m 15280,8990 0,-310 -30,-60 -60,-30 -110,0 -60,30"
         id="path142" />
      <path
         inkscape:connector-curvature="0"
         d="m 15280,8960 -60,30 -140,0 -60,-30 -30,-50 0,-60 30,-60 60,-30 140,0 60,-30"
         id="path144" />
      <path
         inkscape:connector-curvature="0"
         d="m 15560,8990 0,-400"
         id="path146" />
      <path
         inkscape:connector-curvature="0"
         d="m 15560,8710 30,-60 30,-30 60,-30 50,0"
         id="path148" />
      <path
         inkscape:connector-curvature="0"
         d="m 16360,8820 290,0"
         id="path150" />
      <path
         inkscape:connector-curvature="0"
         d="m 16310,8990 200,-600 200,600"
         id="path152" />
      <path
         inkscape:connector-curvature="0"
         d="m 16900,8990 0,-400"
         id="path154" />
      <path
         inkscape:connector-curvature="0"
         d="m 16900,8650 30,-30 60,-30 80,0 60,30 30,60 0,310"
         id="path156" />
      <path
         inkscape:connector-curvature="0"
         d="m 17160,8680 30,-60 60,-30 80,0 60,30 30,60 0,310"
         id="path158" />
      <path
         inkscape:connector-curvature="0"
         d="m 17700,8590 0,600"
         id="path160" />
      <path
         inkscape:connector-curvature="0"
         d="m 17700,8620 60,-30 110,0 60,30 30,30 30,60 0,170 -30,50 -30,30 -60,30 -110,0 -60,-30"
         id="path162" />
      <path
         inkscape:connector-curvature="0"
         d="m 18330,8990 -60,-30 -30,-50 0,-520"
         id="path164" />
      <path
         inkscape:connector-curvature="0"
         d="m 18550,8990 0,-400"
         id="path166" />
      <path
         inkscape:connector-curvature="0"
         d="m 18550,8390 -30,30 30,30 30,-30 -30,-30 0,60"
         id="path168" />
      <path
         inkscape:connector-curvature="0"
         d="m 18760,8590 230,0"
         id="path170" />
      <path
         inkscape:connector-curvature="0"
         d="m 18840,8390 0,520 30,50 60,30 60,0"
         id="path172" />
      <path
         inkscape:connector-curvature="0"
         d="m 19440,8590 0,400"
         id="path174" />
      <path
         inkscape:connector-curvature="0"
         d="m 19180,8590 0,320 30,50 60,30 80,0 60,-30 30,-30"
         id="path176" />
      <path
         inkscape:connector-curvature="0"
         d="m 19980,8990 0,-600"
         id="path178" />
      <path
         inkscape:connector-curvature="0"
         d="m 19980,8960 -60,30 -110,0 -60,-30 -30,-30 -30,-50 0,-170 30,-60 30,-30 60,-30 110,0 60,30"
         id="path180" />
      <path
         inkscape:connector-curvature="0"
         d="m 20490,8960 -60,30 -110,0 -60,-30 -30,-50 0,-230 30,-60 60,-30 110,0 60,30 30,60 0,50 -290,60"
         id="path182" />
      <path
         inkscape:connector-curvature="0"
         d="m 21230,8990 0,-600 200,430 200,-430 0,600"
         id="path184" />
      <path
         inkscape:connector-curvature="0"
         d="m 22010,8990 -60,-30 -30,-30 -30,-50 0,-170 30,-60 30,-30 60,-30 80,0 60,30 30,30 30,60 0,170 -30,50 -30,30 -60,30 -80,0"
         id="path186" />
      <path
         inkscape:connector-curvature="0"
         d="m 22720,8990 0,-600"
         id="path188" />
      <path
         inkscape:connector-curvature="0"
         d="m 22720,8960 -60,30 -110,0 -60,-30 -30,-30 -30,-50 0,-170 30,-60 30,-30 60,-30 110,0 60,30"
         id="path190" />
      <path
         inkscape:connector-curvature="0"
         d="m 23260,8590 0,400"
         id="path192" />
      <path
         inkscape:connector-curvature="0"
         d="m 23000,8590 0,320 30,50 60,30 80,0 60,-30 30,-30"
         id="path194" />
      <path
         inkscape:connector-curvature="0"
         d="m 23630,8990 -60,-30 -30,-50 0,-520"
         id="path196" />
      <path
         inkscape:connector-curvature="0"
         d="m 24110,8990 0,-310 -30,-60 -60,-30 -110,0 -60,30"
         id="path198" />
      <path
         inkscape:connector-curvature="0"
         d="m 24110,8960 -60,30 -140,0 -60,-30 -30,-50 0,-60 30,-60 60,-30 140,0 60,-30"
         id="path200" />
      <path
         inkscape:connector-curvature="0"
         d="m 24310,8590 230,0"
         id="path202" />
      <path
         inkscape:connector-curvature="0"
         d="m 24390,8390 0,520 30,50 60,30 60,0"
         id="path204" />
      <path
         inkscape:connector-curvature="0"
         d="m 24730,8990 0,-400"
         id="path206" />
      <path
         inkscape:connector-curvature="0"
         d="m 24730,8390 -30,30 30,30 30,-30 -30,-30 0,60"
         id="path208" />
      <path
         inkscape:connector-curvature="0"
         d="m 25110,8990 -60,-30 -30,-30 -30,-50 0,-170 30,-60 30,-30 60,-30 80,0 60,30 30,30 30,60 0,170 -30,50 -30,30 -60,30 -80,0"
         id="path210" />
      <path
         inkscape:connector-curvature="0"
         d="m 25560,8590 0,400"
         id="path212" />
      <path
         inkscape:connector-curvature="0"
         d="m 25560,8650 30,-30 60,-30 80,0 60,30 30,60 0,310"
         id="path214" />
      <path
         inkscape:connector-curvature="0"
         d="m 17950,18320 290,0"
         id="path216" />
      <path
         inkscape:connector-curvature="0"
         d="m 17900,18490 200,-600 200,600"
         id="path218" />
      <path
         inkscape:connector-curvature="0"
         d="m 18490,18490 0,-600 150,0 80,30 60,60 30,50 30,120 0,80 -30,120 -30,60 -60,50 -80,30 -150,0"
         id="path220" />
      <path
         inkscape:connector-curvature="0"
         d="m 19350,17890 -110,0 -60,30 -30,30 -60,80 -30,120 0,230 30,50 30,30 60,30 110,0 60,-30 30,-30 30,-50 0,-150 -30,-50 -30,-30 -60,-30 -110,0 -60,30 -30,30 -30,50"
         id="path222" />
      <path
         inkscape:connector-curvature="0"
         d="m 19610,17890 370,0 -200,230 80,0 60,30 30,30 30,50 0,150 -30,50 -30,30 -60,30 -170,0 -60,-30 -20,-30"
         id="path224" />
      <path
         inkscape:connector-curvature="0"
         d="m 20180,17890 370,0 -200,230 80,0 60,30 30,30 30,50 0,150 -30,50 -30,30 -60,30 -170,0 -60,-30 -20,-30"
         id="path226" />
    </g>
    <g
       transform="matrix(0.00899999,0,0,0.00899999,-162.52324,344.42104)"
       style="fill:#840000;fill-opacity:0;stroke:#840000;stroke-width:60;stroke-linecap:round;stroke-linejoin:round;stroke-opacity:1"
       id="g228">
      <path
         inkscape:connector-curvature="0"
         d="m 7270,16700 -60,-30 -90,0 -80,30 -60,60 -30,50 -30,120 0,80 30,120 30,60 60,50 80,30 60,0 90,-30 30,-30 0,-200 -120,0"
         id="path230" />
      <path
         inkscape:connector-curvature="0"
         d="m 7550,17270 0,-600 350,600 0,-600"
         id="path232" />
      <path
         inkscape:connector-curvature="0"
         d="m 8180,17270 0,-600 150,0 80,30 60,60 30,50 30,120 0,80 -30,120 -30,60 -60,50 -80,30 -150,0"
         id="path234" />
    </g>
    <g
       transform="matrix(0.00899999,0,0,0.00899999,-162.52324,344.42104)"
       style="fill:#840000;fill-opacity:0;stroke:#840000;stroke-width:100;stroke-linecap:round;stroke-linejoin:round;stroke-opacity:1"
       id="g236">
      <polyline
         fill="none;"
         points="9000,17000 8700,16460 6580,16460 6580,17000 6580,17540 8700,17540 9000,17000 "
         id="polyline238" />
    </g>
    <g
       transform="matrix(0.00899999,0,0,0.00899999,-162.52324,344.42104)"
       style="fill:#840000;fill-opacity:0;stroke:#840000;stroke-width:60;stroke-linecap:round;stroke-linejoin:round;stroke-opacity:1"
       id="g240">
      <path
         inkscape:connector-curvature="0"
         d="m 6120,21920 140,600 110,-430 120,430 140,-600"
         id="path242" />
      <path
         inkscape:connector-curvature="0"
         d="m 6830,21980 30,-30 60,-30 140,0 60,30 30,30 30,60 0,50 -30,90 -340,340 370,0"
         id="path244" />
      <path
         inkscape:connector-curvature="0"
         d="m 7600,22750 -20,-30 -60,-80 -30,-60 -30,-90 -30,-140 0,-110 30,-150 30,-80 30,-60 60,-90 20,-20"
         id="path246" />
      <path
         inkscape:connector-curvature="0"
         d="m 8180,22460 -30,30 -90,30 -60,0 -80,-30 -60,-50 -30,-60 -30,-120 0,-80 30,-120 30,-50 60,-60 80,-30 60,0 90,30 30,30"
         id="path248" />
      <path
         inkscape:connector-curvature="0"
         d="m 8690,22520 0,-310 -30,-60 -60,-30 -110,0 -60,30"
         id="path250" />
      <path
         inkscape:connector-curvature="0"
         d="m 8690,22490 -60,30 -140,0 -60,-30 -30,-50 0,-60 30,-60 60,-30 140,0 60,-30"
         id="path252" />
      <path
         inkscape:connector-curvature="0"
         d="m 8970,22520 0,-400"
         id="path254" />
      <path
         inkscape:connector-curvature="0"
         d="m 8970,22240 30,-60 30,-30 60,-30 50,0"
         id="path256" />
      <path
         inkscape:connector-curvature="0"
         d="m 9340,22520 0,-400"
         id="path258" />
      <path
         inkscape:connector-curvature="0"
         d="m 9340,22240 30,-60 30,-30 60,-30 50,0"
         id="path260" />
      <path
         inkscape:connector-curvature="0"
         d="m 9710,22520 0,-400"
         id="path262" />
      <path
         inkscape:connector-curvature="0"
         d="m 9710,21920 -30,30 30,30 30,-30 -30,-30 0,60"
         id="path264" />
      <path
         inkscape:connector-curvature="0"
         d="m 10230,22490 -60,30 -110,0 -60,-30 -30,-50 0,-230 30,-60 60,-30 110,0 60,30 30,60 0,50 -290,60"
         id="path266" />
      <path
         inkscape:connector-curvature="0"
         d="m 10510,22520 0,-400"
         id="path268" />
      <path
         inkscape:connector-curvature="0"
         d="m 10510,22240 30,-60 30,-30 60,-30 50,0"
         id="path270" />
      <path
         inkscape:connector-curvature="0"
         d="m 10830,22750 20,-30 60,-80 30,-60 30,-90 30,-140 0,-110 -30,-150 -30,-80 -30,-60 -60,-90 -20,-20"
         id="path272" />
    </g>
    <g
       transform="matrix(0.00899999,0,0,0.00899999,-162.52324,344.42104)"
       style="fill:#840000;fill-opacity:0;stroke:#840000;stroke-width:100;stroke-linecap:round;stroke-linejoin:round;stroke-opacity:1"
       id="g274">
      <polyline
         fill="none;"
         points="11500,22250 11200,21710 5800,21710 5800,22250 5800,22790 11200,22790 11500,22250 "
         id="polyline276" />
    </g>
    <g
       transform="matrix(0.00899999,0,0,0.00899999,-162.52324,344.42104)"
       style="fill:#840000;fill-opacity:0;stroke:#840000;stroke-width:60;stroke-linecap:round;stroke-linejoin:round;stroke-opacity:1"
       id="g278">
      <path
         inkscape:connector-curvature="0"
         d="m 6270,12450 -60,-30 -90,0 -80,30 -60,60 -30,50 -30,120 0,80 30,120 30,60 60,50 80,30 60,0 90,-30 30,-30 0,-200 -120,0"
         id="path280" />
      <path
         inkscape:connector-curvature="0"
         d="m 6550,13020 0,-600 350,600 0,-600"
         id="path282" />
      <path
         inkscape:connector-curvature="0"
         d="m 7180,13020 0,-600 150,0 80,30 60,60 30,50 30,120 0,80 -30,120 -30,60 -60,50 -80,30 -150,0"
         id="path284" />
    </g>
    <g
       transform="matrix(0.00899999,0,0,0.00899999,-162.52324,344.42104)"
       style="fill:#840000;fill-opacity:0;stroke:#840000;stroke-width:100;stroke-linecap:round;stroke-linejoin:round;stroke-opacity:1"
       id="g286">
      <polyline
         fill="none;"
         points="8000,12750 7700,12210 5580,12210 5580,12750 5580,13290 7700,13290 8000,12750 "
         id="polyline288" />
    </g>
    <g
       transform="matrix(0.00899999,0,0,0.00899999,-162.52324,344.42104)"
       style="fill:#840000;fill-opacity:0;stroke:#840000;stroke-width:60;stroke-linecap:round;stroke-linejoin:round;stroke-opacity:1"
       id="g290">
      <path
         inkscape:connector-curvature="0"
         d="m 7150,10420 140,600 110,-430 120,430 140,-600"
         id="path292" />
      <path
         inkscape:connector-curvature="0"
         d="m 7860,10480 30,-30 60,-30 140,0 60,30 30,30 30,60 0,50 -30,90 -340,340 370,0"
         id="path294" />
      <path
         inkscape:connector-curvature="0"
         d="m 8630,11250 -20,-30 -60,-80 -30,-60 -30,-90 -30,-140 0,-110 30,-150 30,-80 30,-60 60,-90 20,-20"
         id="path296" />
      <path
         inkscape:connector-curvature="0"
         d="m 8860,11020 0,-600 200,430 200,-430 0,600"
         id="path298" />
      <path
         inkscape:connector-curvature="0"
         d="m 9640,11020 -60,-30 -30,-30 -30,-50 0,-170 30,-60 30,-30 60,-30 80,0 60,30 30,30 30,60 0,170 -30,50 -30,30 -60,30 -80,0"
         id="path300" />
      <path
         inkscape:connector-curvature="0"
         d="m 10350,11020 0,-600"
         id="path302" />
      <path
         inkscape:connector-curvature="0"
         d="m 10350,10990 -60,30 -110,0 -60,-30 -30,-30 -30,-50 0,-170 30,-60 30,-30 60,-30 110,0 60,30"
         id="path304" />
      <path
         inkscape:connector-curvature="0"
         d="m 10580,11250 20,-30 60,-80 30,-60 30,-90 30,-140 0,-110 -30,-150 -30,-80 -30,-60 -60,-90 -20,-20"
         id="path306" />
    </g>
    <g
       transform="matrix(0.00899999,0,0,0.00899999,-162.52324,344.42104)"
       style="fill:#840000;fill-opacity:0;stroke:#840000;stroke-width:100;stroke-linecap:round;stroke-linejoin:round;stroke-opacity:1"
       id="g308">
      <polyline
         fill="none;"
         points="11250,10750 10950,10210 6830,10210 6830,10750 6830,11290 10950,11290 11250,10750 "
         id="polyline310" />
    </g>
    <g
       transform="matrix(0.00899999,0,0,0.00899999,-162.52324,344.42104)"
       style="fill:#008400;fill-opacity:0;stroke:#008400;stroke-width:60;stroke-linecap:round;stroke-linejoin:round;stroke-opacity:1"
       id="g314">
      <path
         inkscape:connector-curvature="0"
         d="m 8000,12750 3250,0"
         id="path316" />
      <path
         inkscape:connector-curvature="0"
         d="m 5750,14750 0,4750"
         id="path318" />
      <path
         inkscape:connector-curvature="0"
         d="m 9000,17000 2250,0"
         id="path320" />
      <path
         inkscape:connector-curvature="0"
         d="m 11250,17000 0,-250"
         id="path322" />
    </g>
    <g
       transform="matrix(0.00899999,0,0,0.00899999,-162.52324,344.42104)"
       style="fill:#840000;fill-opacity:0;stroke:#840000;stroke-width:60;stroke-linecap:round;stroke-linejoin:round;stroke-opacity:1"
       id="g324">
      <path
         inkscape:connector-curvature="0"
         d="m 27670,16420 200,600 200,-600"
         id="path326" />
      <path
         inkscape:connector-curvature="0"
         d="m 28260,16790 460,0"
         id="path328" />
    </g>
    <g
       transform="matrix(0.00899999,0,0,0.00899999,-162.52324,344.42104)"
       style="fill:#840000;fill-opacity:0;stroke:#840000;stroke-width:100;stroke-linecap:round;stroke-linejoin:round;stroke-opacity:1"
       id="g330">
      <polyline
         fill="none;"
         points="27250,16750 27550,17290 29090,17290 29090,16750 29090,16210 27550,16210 27250,16750 "
         id="polyline332" />
    </g>
    <g
       transform="matrix(0.00899999,0,0,0.00899999,-162.52324,344.42104)"
       style="fill:#840000;fill-opacity:0;stroke:#840000;stroke-width:60;stroke-linecap:round;stroke-linejoin:round;stroke-opacity:1"
       id="g334">
      <path
         inkscape:connector-curvature="0"
         d="m 27670,10420 200,600 200,-600"
         id="path336" />
      <path
         inkscape:connector-curvature="0"
         d="m 28260,10790 460,0"
         id="path338" />
      <path
         inkscape:connector-curvature="0"
         d="m 28490,11020 0,-460"
         id="path340" />
    </g>
    <g
       transform="matrix(0.00899999,0,0,0.00899999,-162.52324,344.42104)"
       style="fill:#840000;fill-opacity:0;stroke:#840000;stroke-width:100;stroke-linecap:round;stroke-linejoin:round;stroke-opacity:1"
       id="g342">
      <polyline
         fill="none;"
         points="27250,10750 27550,11290 29090,11290 29090,10750 29090,10210 27550,10210 27250,10750 "
         id="polyline344" />
    </g>
    <g
       transform="matrix(0.00899999,0,0,0.00899999,-162.52324,344.42104)"
       style="fill:#840000;fill-opacity:0;stroke:#840000;stroke-width:60;stroke-linecap:round;stroke-linejoin:round;stroke-opacity:1"
       id="g346">
      <path
         inkscape:connector-curvature="0"
         d="m 28100,12960 -30,30 -90,30 -60,0 -80,-30 -60,-50 -30,-60 -30,-120 0,-80 30,-120 30,-50 60,-60 80,-30 60,0 90,30 30,30"
         id="path348" />
      <path
         inkscape:connector-curvature="0"
         d="m 28350,13020 0,-600"
         id="path350" />
      <path
         inkscape:connector-curvature="0"
         d="m 28350,12710 350,0"
         id="path352" />
      <path
         inkscape:connector-curvature="0"
         d="m 28700,13020 0,-600"
         id="path354" />
      <path
         inkscape:connector-curvature="0"
         d="m 29300,13020 -350,0"
         id="path356" />
      <path
         inkscape:connector-curvature="0"
         d="m 29130,13020 0,-600 -60,90 -60,50 -60,30"
         id="path358" />
    </g>
    <g
       transform="matrix(0.00899999,0,0,0.00899999,-162.52324,344.42104)"
       style="fill:#840000;fill-opacity:0;stroke:#840000;stroke-width:100;stroke-linecap:round;stroke-linejoin:round;stroke-opacity:1"
       id="g360">
      <polyline
         fill="none;"
         points="27250,12750 27550,13290 29640,13290 29640,12750 29640,12210 27550,12210 27250,12750 "
         id="polyline362" />
    </g>
    <g
       transform="matrix(0.00899999,0,0,0.00899999,-162.52324,344.42104)"
       style="fill:#008400;fill-opacity:0;stroke:#008400;stroke-width:60;stroke-linecap:round;stroke-linejoin:round;stroke-opacity:1"
       id="g366">
      <path
         inkscape:connector-curvature="0"
         d="m 27250,14750 2250,0"
         id="path368" />
      <path
         inkscape:connector-curvature="0"
         d="m 29500,14750 0,4750"
         id="path370" />
      <path
         inkscape:connector-curvature="0"
         d="m 29500,19500 -23750,0"
         id="path372" />
    </g>
    <g
       transform="matrix(0.00899999,0,0,0.00899999,-162.52324,344.42104)"
       style="fill:#008400;fill-opacity:0;stroke:#008400;stroke-width:60;stroke-linecap:round;stroke-linejoin:round;stroke-opacity:1"
       id="g762">
      <path
         inkscape:connector-curvature="0"
         d="m 5750,14750 5500,0"
         id="path770" />
    </g>
    <g
       transform="matrix(0.00899999,0,0,0.00899999,-162.52324,344.42104)"
       style="fill:#840000;fill-opacity:0;stroke:#840000;stroke-width:100;stroke-linecap:round;stroke-linejoin:round;stroke-opacity:1"
       id="g776">
      <rect
         x="12000"
         y="21850"
         width="2000"
         height="800"
         rx="0"
         id="rect778" />
    </g>
    <g
       transform="matrix(0.00899999,0,0,0.00899999,-162.52324,344.42104)"
       style="fill:#840000;fill-opacity:0;stroke:#840000;stroke-width:60;stroke-linecap:round;stroke-linejoin:round;stroke-opacity:1"
       id="g780">
      <path
         inkscape:connector-curvature="0"
         d="m 14000,22250 500,0"
         id="path782" />
      <path
         inkscape:connector-curvature="0"
         d="m 12000,22250 -500,0"
         id="path784" />
    </g>
    <g
       transform="matrix(0.00899999,0,0,0.00899999,-162.52324,344.42104)"
       style="fill:#008484;fill-opacity:0;stroke:#008484;stroke-width:60;stroke-linecap:round;stroke-linejoin:round;stroke-opacity:1"
       id="g786">
      <path
         inkscape:connector-curvature="0"
         d="m 12890,22450 -280,0"
         id="path788" />
      <path
         inkscape:connector-curvature="0"
         d="m 12750,22450 0,-500 -50,70 -50,50 -40,20"
         id="path790" />
      <path
         inkscape:connector-curvature="0"
         d="m 13110,22450 0,-500"
         id="path792" />
      <path
         inkscape:connector-curvature="0"
         d="m 13390,22450 -210,-290"
         id="path794" />
      <path
         inkscape:connector-curvature="0"
         d="m 13390,21950 -280,280"
         id="path796" />
    </g>
    <g
       transform="matrix(0.00899999,0,0,0.00899999,-162.52324,344.42104)"
       style="fill:#840000;fill-opacity:0;stroke:#840000;stroke-width:100;stroke-linecap:round;stroke-linejoin:round;stroke-opacity:1"
       id="g802">
      <rect
         x="15250"
         y="21850"
         width="2000"
         height="800"
         rx="0"
         id="rect804" />
    </g>
    <g
       transform="matrix(0.00899999,0,0,0.00899999,-162.52324,344.42104)"
       style="fill:#840000;fill-opacity:0;stroke:#840000;stroke-width:60;stroke-linecap:round;stroke-linejoin:round;stroke-opacity:1"
       id="g806">
      <path
         inkscape:connector-curvature="0"
         d="m 15250,22250 -500,0"
         id="path808" />
      <path
         inkscape:connector-curvature="0"
         d="m 17250,22250 500,0"
         id="path810" />
    </g>
    <g
       transform="matrix(0.00899999,0,0,0.00899999,-162.52324,344.42104)"
       style="fill:#008484;fill-opacity:0;stroke:#008484;stroke-width:60;stroke-linecap:round;stroke-linejoin:round;stroke-opacity:1"
       id="g812">
      <path
         inkscape:connector-curvature="0"
         d="m 16140,22510 -280,0"
         id="path814" />
      <path
         inkscape:connector-curvature="0"
         d="m 16000,22510 0,-500 -50,70 -50,50 -40,20"
         id="path816" />
      <path
         inkscape:connector-curvature="0"
         d="m 16360,22510 0,-500"
         id="path818" />
      <path
         inkscape:connector-curvature="0"
         d="m 16640,22510 -210,-290"
         id="path820" />
      <path
         inkscape:connector-curvature="0"
         d="m 16640,22010 -280,280"
         id="path822" />
    </g>
    <g
       transform="matrix(0.00899999,0,0,0.00899999,-162.52324,344.42104)"
       style="fill:#840000;fill-opacity:0;stroke:#840000;stroke-width:60;stroke-linecap:round;stroke-linejoin:round;stroke-opacity:1"
       id="g824">
      <path
         inkscape:connector-curvature="0"
         d="m 18570,21950 -60,-30 -90,0 -80,30 -60,60 -30,50 -30,120 0,80 30,120 30,60 60,50 80,30 60,0 90,-30 30,-30 0,-200 -120,0"
         id="path826" />
      <path
         inkscape:connector-curvature="0"
         d="m 18850,22520 0,-600 350,600 0,-600"
         id="path828" />
      <path
         inkscape:connector-curvature="0"
         d="m 19480,22520 0,-600 150,0 80,30 60,60 30,50 30,120 0,80 -30,120 -30,60 -60,50 -80,30 -150,0"
         id="path830" />
    </g>
    <g
       transform="matrix(0.00899999,0,0,0.00899999,-162.52324,344.42104)"
       style="fill:#840000;fill-opacity:0;stroke:#840000;stroke-width:100;stroke-linecap:round;stroke-linejoin:round;stroke-opacity:1"
       id="g832">
      <polyline
         fill="none;"
         points="17750,22250 18050,22790 20170,22790 20170,22250 20170,21710 18050,21710 17750,22250 "
         id="polyline834" />
    </g>
    <g
       transform="matrix(0.00899999,0,0,0.00899999,-162.52324,344.42104)"
       style="fill:#008400;fill-opacity:0;stroke:#008400;stroke-width:60;stroke-linecap:round;stroke-linejoin:round;stroke-opacity:1"
       id="g838">
      <path
         inkscape:connector-curvature="0"
         d="m 14750,22250 -250,0"
         id="path840" />
      <path
         inkscape:connector-curvature="0"
         d="m 14500,22250 0,-2750"
         id="path842" />
    </g>
    <g
       transform="matrix(0.00899999,0,0,0.00899999,-162.52324,344.42104)"
       style="fill:#008400;fill-opacity:1;stroke:#008400;stroke-width:100;stroke-linecap:round;stroke-linejoin:round;stroke-opacity:1"
       id="g846">
      <circle
         cx="14500"
         cy="19500"
         r="200"
         id="circle848" />
    </g>
  </g>
</svg>
