<?xml version="1.0" encoding="UTF-8" standalone="no"?>
<!-- Created with Inkscape (http://www.inkscape.org/) -->

<svg
   xmlns:dc="http://purl.org/dc/elements/1.1/"
   xmlns:cc="http://creativecommons.org/ns#"
   xmlns:rdf="http://www.w3.org/1999/02/22-rdf-syntax-ns#"
   xmlns:svg="http://www.w3.org/2000/svg"
   xmlns="http://www.w3.org/2000/svg"
   xmlns:sodipodi="http://sodipodi.sourceforge.net/DTD/sodipodi-0.dtd"
   xmlns:inkscape="http://www.inkscape.org/namespaces/inkscape"
   width="27.07637mm"
   height="11.408205mm"
   viewBox="0 0 95.939895 40.422774"
   id="svg5437"
   version="1.1"
   inkscape:version="0.91 r13725"
   sodipodi:docname="CR.svg">
  <defs
     id="defs5439" />
  <sodipodi:namedview
     id="base"
     pagecolor="#ffffff"
     bordercolor="#666666"
     borderopacity="1.0"
     inkscape:pageopacity="0.0"
     inkscape:pageshadow="2"
     inkscape:zoom="0.35"
     inkscape:cx="-629.8872"
     inkscape:cy="-108.36004"
     inkscape:document-units="px"
     inkscape:current-layer="layer1"
     showgrid="false"
     fit-margin-top="0"
     fit-margin-left="0"
     fit-margin-right="0"
     fit-margin-bottom="0"
     inkscape:window-width="1855"
     inkscape:window-height="1056"
     inkscape:window-x="65"
     inkscape:window-y="24"
     inkscape:window-maximized="1" />
  <metadata
     id="metadata5442">
    <rdf:RDF>
      <cc:Work
         rdf:about="">
        <dc:format>image/svg+xml</dc:format>
        <dc:type
           rdf:resource="http://purl.org/dc/dcmitype/StillImage" />
        <dc:title></dc:title>
      </cc:Work>
    </rdf:RDF>
  </metadata>
  <g
     inkscape:label="Layer 1"
     inkscape:groupmode="layer"
     id="layer1"
     transform="translate(-306.31577,-383.57939)">
    <g
       transform="matrix(0.00899999,0,0,0.00899999,240.79584,308.44229)"
       style="fill:#840000;fill-opacity:0;stroke:#840000;stroke-width:200;stroke-linecap:round;stroke-linejoin:round;stroke-opacity:1"
       id="g14">
      <polyline
         fill="none;"
         points="11800,10050 11800,8450 "
         id="polyline16" />
      <polyline
         fill="none;"
         points="11200,10050 11200,8450 "
         id="polyline18" />
    </g>
    <g
       transform="matrix(0.00899999,0,0,0.00899999,240.79584,308.44229)"
       style="fill:#840000;fill-opacity:0;stroke:#840000;stroke-width:60;stroke-linecap:round;stroke-linejoin:round;stroke-opacity:1"
       id="g20">
      <path
         inkscape:connector-curvature="0"
         d="m 11100,9250 -1100,0"
         id="path22" />
      <path
         inkscape:connector-curvature="0"
         d="m 11900,9250 1100,0"
         id="path24" />
    </g>
    <g
       transform="matrix(0.00899999,0,0,0.00899999,240.79584,308.44229)"
       style="fill:#008484;fill-opacity:0;stroke:#008484;stroke-width:60;stroke-linecap:round;stroke-linejoin:round;stroke-opacity:1"
       id="g26">
      <path
         inkscape:connector-curvature="0"
         d="m 12520,9010 -280,0"
         id="path28" />
      <path
         inkscape:connector-curvature="0"
         d="m 12380,9010 0,-500 -50,70 -50,50 -40,20"
         id="path30" />
      <path
         inkscape:connector-curvature="0"
         d="m 12950,8670 0,340"
         id="path32" />
      <path
         inkscape:connector-curvature="0"
         d="m 12740,8670 0,260 20,50 50,30 70,0 50,-30 20,-20"
         id="path34" />
      <path
         inkscape:connector-curvature="0"
         d="m 13360,8740 -170,0"
         id="path36" />
      <path
         inkscape:connector-curvature="0"
         d="m 13190,9010 0,-500 240,0"
         id="path38" />
    </g>
    <g
       transform="matrix(0.00899999,0,0,0.00899999,240.79584,308.44229)"
       style="fill:#840000;fill-opacity:0;stroke:#840000;stroke-width:100;stroke-linecap:round;stroke-linejoin:round;stroke-opacity:1"
       id="g44">
      <rect
         x="14100"
         y="9750"
         width="800"
         height="2000"
         rx="0"
         id="rect46" />
    </g>
    <g
       transform="matrix(0.00899999,0,0,0.00899999,240.79584,308.44229)"
       style="fill:#840000;fill-opacity:0;stroke:#840000;stroke-width:60;stroke-linecap:round;stroke-linejoin:round;stroke-opacity:1"
       id="g48">
      <path
         inkscape:connector-curvature="0"
         d="m 14500,11750 0,500"
         id="path50" />
      <path
         inkscape:connector-curvature="0"
         d="m 14500,9750 0,-500"
         id="path52" />
    </g>
    <g
       transform="matrix(0.00899999,0,0,0.00899999,240.79584,308.44229)"
       style="fill:#008484;fill-opacity:0;stroke:#008484;stroke-width:60;stroke-linecap:round;stroke-linejoin:round;stroke-opacity:1"
       id="g54">
      <path
         inkscape:connector-curvature="0"
         d="m 14260,11360 0,240 230,20 -20,-20 -20,-50 0,-120 20,-40 20,-30 50,-20 120,0 50,20 20,30 30,40 0,120 -30,50 -20,20"
         id="path56" />
      <path
         inkscape:connector-curvature="0"
         d="m 14260,10910 0,90 20,50 20,20 80,50 90,20 190,0 50,-20 20,-20 30,-50 0,-100 -30,-40 -20,-30 -50,-20 -120,0 -50,20 -20,30 -20,40 0,100 20,50 20,20 50,20"
         id="path58" />
      <path
         inkscape:connector-curvature="0"
         d="m 14260,10550 0,-50 20,-50 20,-20 50,-30 100,-20 120,0 90,20 50,30 20,20 30,50 0,50 -30,40 -20,30 -50,20 -90,20 -120,0 -100,-20 -50,-20 -20,-30 -20,-40"
         id="path60" />
      <path
         inkscape:connector-curvature="0"
         d="m 14760,9880 -240,160"
         id="path62" />
      <path
         inkscape:connector-curvature="0"
         d="m 14760,10160 -500,0 0,-190 20,-50 20,-20 50,-20 70,0 50,20 20,20 30,50 0,190"
         id="path64" />
    </g>
    <g
       transform="matrix(0.00899999,0,0,0.00899999,240.79584,308.44229)"
       style="fill:#840000;fill-opacity:0;stroke:#840000;stroke-width:60;stroke-linecap:round;stroke-linejoin:round;stroke-opacity:1"
       id="g66">
      <path
         inkscape:connector-curvature="0"
         d="m 16350,9460 -30,30 -90,30 -60,0 -80,-30 -60,-50 -30,-60 -30,-120 0,-80 30,-120 30,-50 60,-60 80,-30 60,0 90,30 30,30"
         id="path68" />
      <path
         inkscape:connector-curvature="0"
         d="m 16600,9520 0,-600"
         id="path70" />
      <path
         inkscape:connector-curvature="0"
         d="m 16600,9210 350,0"
         id="path72" />
      <path
         inkscape:connector-curvature="0"
         d="m 16950,9520 0,-600"
         id="path74" />
      <path
         inkscape:connector-curvature="0"
         d="m 17200,8980 30,-30 60,-30 140,0 60,30 30,30 30,60 0,50 -30,90 -340,340 370,0"
         id="path76" />
    </g>
    <g
       transform="matrix(0.00899999,0,0,0.00899999,240.79584,308.44229)"
       style="fill:#840000;fill-opacity:0;stroke:#840000;stroke-width:100;stroke-linecap:round;stroke-linejoin:round;stroke-opacity:1"
       id="g78">
      <polyline
         fill="none;"
         points="15500,9250 15800,9790 17890,9790 17890,9250 17890,8710 15800,8710 15500,9250 "
         id="polyline80" />
    </g>
    <g
       transform="matrix(0.00899999,0,0,0.00899999,240.79584,308.44229)"
       style="fill:#840000;fill-opacity:0;stroke:#840000;stroke-width:60;stroke-linecap:round;stroke-linejoin:round;stroke-opacity:1"
       id="g82">
      <path
         inkscape:connector-curvature="0"
         d="m 8020,11950 -60,-30 -90,0 -80,30 -60,60 -30,50 -30,120 0,80 30,120 30,60 60,50 80,30 60,0 90,-30 30,-30 0,-200 -120,0"
         id="path84" />
      <path
         inkscape:connector-curvature="0"
         d="m 8300,12520 0,-600 350,600 0,-600"
         id="path86" />
      <path
         inkscape:connector-curvature="0"
         d="m 8930,12520 0,-600 150,0 80,30 60,60 30,50 30,120 0,80 -30,120 -30,60 -60,50 -80,30 -150,0"
         id="path88" />
    </g>
    <g
       transform="matrix(0.00899999,0,0,0.00899999,240.79584,308.44229)"
       style="fill:#840000;fill-opacity:0;stroke:#840000;stroke-width:100;stroke-linecap:round;stroke-linejoin:round;stroke-opacity:1"
       id="g90">
      <polyline
         fill="none;"
         points="9750,12250 9450,11710 7330,11710 7330,12250 7330,12790 9450,12790 9750,12250 "
         id="polyline92" />
    </g>
    <g
       transform="matrix(0.00899999,0,0,0.00899999,240.79584,308.44229)"
       style="fill:#008400;fill-opacity:0;stroke:#008400;stroke-width:60;stroke-linecap:round;stroke-linejoin:round;stroke-opacity:1"
       id="g96">
      <path
         inkscape:connector-curvature="0"
         d="m 9750,12250 4750,0"
         id="path98" />
    </g>
    <g
       transform="matrix(0.00899999,0,0,0.00899999,240.79584,308.44229)"
       style="fill:#840000;fill-opacity:0;stroke:#840000;stroke-width:60;stroke-linecap:round;stroke-linejoin:round;stroke-opacity:1"
       id="g100">
      <path
         inkscape:connector-curvature="0"
         d="m 7720,8920 140,600 110,-430 120,430 140,-600"
         id="path102" />
      <path
         inkscape:connector-curvature="0"
         d="m 8780,9520 -350,0"
         id="path104" />
      <path
         inkscape:connector-curvature="0"
         d="m 8610,9520 0,-600 -60,90 -60,50 -60,30"
         id="path106" />
    </g>
    <g
       transform="matrix(0.00899999,0,0,0.00899999,240.79584,308.44229)"
       style="fill:#840000;fill-opacity:0;stroke:#840000;stroke-width:100;stroke-linecap:round;stroke-linejoin:round;stroke-opacity:1"
       id="g108">
      <polyline
         fill="none;"
         points="9250,9250 8950,8710 7400,8710 7400,9250 7400,9790 8950,9790 9250,9250 "
         id="polyline110" />
    </g>
    <g
       transform="matrix(0.00899999,0,0,0.00899999,240.79584,308.44229)"
       style="fill:#008400;fill-opacity:0;stroke:#008400;stroke-width:60;stroke-linecap:round;stroke-linejoin:round;stroke-opacity:1"
       id="g114">
      <path
         inkscape:connector-curvature="0"
         d="m 9250,9250 750,0"
         id="path116" />
    </g>
    <g
       transform="matrix(0.00899999,0,0,0.00899999,240.79584,308.44229)"
       style="fill:#840000;fill-opacity:0;stroke:#840000;stroke-width:60;stroke-linecap:round;stroke-linejoin:round;stroke-opacity:1"
       id="g118">
      <path
         inkscape:connector-curvature="0"
         d="m 8080,10710 -30,30 -90,30 -60,0 -80,-30 -60,-50 -30,-60 -30,-120 0,-80 30,-120 30,-50 60,-60 80,-30 60,0 90,30 30,30"
         id="path120" />
      <path
         inkscape:connector-curvature="0"
         d="m 8330,10770 0,-600"
         id="path122" />
      <path
         inkscape:connector-curvature="0"
         d="m 8330,10460 350,0"
         id="path124" />
      <path
         inkscape:connector-curvature="0"
         d="m 8680,10770 0,-600"
         id="path126" />
      <path
         inkscape:connector-curvature="0"
         d="m 9280,10770 -350,0"
         id="path128" />
      <path
         inkscape:connector-curvature="0"
         d="m 9110,10770 0,-600 -60,90 -60,50 -60,30"
         id="path130" />
    </g>
    <g
       transform="matrix(0.00899999,0,0,0.00899999,240.79584,308.44229)"
       style="fill:#840000;fill-opacity:0;stroke:#840000;stroke-width:100;stroke-linecap:round;stroke-linejoin:round;stroke-opacity:1"
       id="g132">
      <polyline
         fill="none;"
         points="9750,10500 9450,9960 7360,9960 7360,10500 7360,11040 9450,11040 9750,10500 "
         id="polyline134" />
    </g>
    <g
       transform="matrix(0.00899999,0,0,0.00899999,240.79584,308.44229)"
       style="fill:#008400;fill-opacity:0;stroke:#008400;stroke-width:60;stroke-linecap:round;stroke-linejoin:round;stroke-opacity:1"
       id="g138">
      <path
         inkscape:connector-curvature="0"
         d="m 10000,9250 0,1250"
         id="path140" />
      <path
         inkscape:connector-curvature="0"
         d="m 10000,10500 -250,0"
         id="path142" />
      <path
         inkscape:connector-curvature="0"
         d="m 13000,9250 2500,0"
         id="path144" />
    </g>
    <g
       transform="matrix(0.00899999,0,0,0.00899999,240.79584,308.44229)"
       style="fill:#008400;fill-opacity:1;stroke:#008400;stroke-width:100;stroke-linecap:round;stroke-linejoin:round;stroke-opacity:1"
       id="g148">
      <circle
         cx="14500"
         cy="9250"
         r="200"
         id="circle150" />
    </g>
  </g>
</svg>
