<?xml version="1.0" encoding="UTF-8" standalone="no"?>
<!-- Created with Inkscape (http://www.inkscape.org/) -->

<svg
   xmlns:dc="http://purl.org/dc/elements/1.1/"
   xmlns:cc="http://creativecommons.org/ns#"
   xmlns:rdf="http://www.w3.org/1999/02/22-rdf-syntax-ns#"
   xmlns:svg="http://www.w3.org/2000/svg"
   xmlns="http://www.w3.org/2000/svg"
   xmlns:sodipodi="http://sodipodi.sourceforge.net/DTD/sodipodi-0.dtd"
   xmlns:inkscape="http://www.inkscape.org/namespaces/inkscape"
   width="18.99918mm"
   height="28.397169mm"
   viewBox="0 0 67.319929 100.61989"
   id="svg9969"
   version="1.1"
   inkscape:version="0.91 r13725"
   sodipodi:docname="DCBlocking.svg">
  <defs
     id="defs9971" />
  <sodipodi:namedview
     id="base"
     pagecolor="#ffffff"
     bordercolor="#666666"
     borderopacity="1.0"
     inkscape:pageopacity="0.0"
     inkscape:pageshadow="2"
     inkscape:zoom="5.6"
     inkscape:cx="15.502042"
     inkscape:cy="54.219845"
     inkscape:document-units="px"
     inkscape:current-layer="layer1"
     showgrid="false"
     fit-margin-top="0"
     fit-margin-left="0"
     fit-margin-right="0"
     fit-margin-bottom="0"
     inkscape:window-width="1855"
     inkscape:window-height="1056"
     inkscape:window-x="65"
     inkscape:window-y="24"
     inkscape:window-maximized="1" />
  <metadata
     id="metadata9974">
    <rdf:RDF>
      <cc:Work
         rdf:about="">
        <dc:format>image/svg+xml</dc:format>
        <dc:type
           rdf:resource="http://purl.org/dc/dcmitype/StillImage" />
        <dc:title></dc:title>
      </cc:Work>
    </rdf:RDF>
  </metadata>
  <g
     inkscape:label="Layer 1"
     inkscape:groupmode="layer"
     id="layer1"
     transform="translate(-217.76861,-264.9094)">
    <path
       style="fill:#0000c2;fill-opacity:0;stroke:#0000c2;stroke-width:0.53999943;stroke-linecap:round;stroke-linejoin:round;stroke-opacity:1"
       inkscape:connector-curvature="0"
       id="path708"
       d="m 229.03985,296.20564 0,-5.4 1.35,0 0.72,0.27 0.54,0.54 0.27,0.45 0.27,1.08 0,0.72 -0.27,1.08 -0.27,0.54 -0.54,0.45 -0.72,0.27 -1.35,0" />
    <path
       style="fill:#0000c2;fill-opacity:0;stroke:#0000c2;stroke-width:0.53999943;stroke-linecap:round;stroke-linejoin:round;stroke-opacity:1"
       inkscape:connector-curvature="0"
       id="path710"
       d="m 237.58984,295.66564 -0.27,0.27 -0.81,0.27 -0.54,0 -0.72,-0.27 -0.54,-0.45 -0.27,-0.54 -0.27,-1.08 0,-0.72 0.27,-1.08 0.27,-0.45 0.54,-0.54 0.72,-0.27 0.54,0 0.81,0.27 0.27,0.27" />
    <path
       style="fill:#0000c2;fill-opacity:0;stroke:#0000c2;stroke-width:0.53999943;stroke-linecap:round;stroke-linejoin:round;stroke-opacity:1"
       inkscape:connector-curvature="0"
       id="path712"
       d="m 243.97983,296.20564 0,-5.4" />
    <path
       style="fill:#0000c2;fill-opacity:0;stroke:#0000c2;stroke-width:0.53999943;stroke-linecap:round;stroke-linejoin:round;stroke-opacity:1"
       inkscape:connector-curvature="0"
       id="path714"
       d="m 243.97983,292.87564 0.54,-0.27 0.99,0 0.54,0.27 0.27,0.27 0.27,0.54 0,1.53 -0.27,0.45 -0.27,0.27 -0.54,0.27 -0.99,0 -0.54,-0.27" />
    <path
       style="fill:#0000c2;fill-opacity:0;stroke:#0000c2;stroke-width:0.53999943;stroke-linecap:round;stroke-linejoin:round;stroke-opacity:1"
       inkscape:connector-curvature="0"
       id="path716"
       d="m 249.64983,296.20564 -0.54,-0.27 -0.27,-0.45 0,-4.68" />
    <path
       style="fill:#0000c2;fill-opacity:0;stroke:#0000c2;stroke-width:0.53999943;stroke-linecap:round;stroke-linejoin:round;stroke-opacity:1"
       inkscape:connector-curvature="0"
       id="path718"
       d="m 252.43982,296.20564 -0.54,-0.27 -0.27,-0.27 -0.26999,-0.45 0,-1.53 0.26999,-0.54 0.27,-0.27 0.54,-0.27 0.72,0 0.54,0.27 0.27,0.27 0.27,0.54 0,1.53 -0.27,0.45 -0.27,0.27 -0.54,0.27 -0.72,0" />
    <path
       style="fill:#0000c2;fill-opacity:0;stroke:#0000c2;stroke-width:0.53999943;stroke-linecap:round;stroke-linejoin:round;stroke-opacity:1"
       inkscape:connector-curvature="0"
       id="path720"
       d="m 258.82982,295.93564 -0.54,0.27 -0.99,0 -0.54,-0.27 -0.27,-0.27 -0.27,-0.45 0,-1.53 0.27,-0.54 0.27,-0.27 0.54,-0.27 0.99,0 0.54,0.27" />
    <path
       style="fill:#0000c2;fill-opacity:0;stroke:#0000c2;stroke-width:0.53999943;stroke-linecap:round;stroke-linejoin:round;stroke-opacity:1"
       inkscape:connector-curvature="0"
       id="path722"
       d="m 261.07981,296.20564 0,-5.4" />
    <path
       style="fill:#0000c2;fill-opacity:0;stroke:#0000c2;stroke-width:0.53999943;stroke-linecap:round;stroke-linejoin:round;stroke-opacity:1"
       inkscape:connector-curvature="0"
       id="path724"
       d="m 261.61981,294.13564 1.53,2.07" />
    <path
       style="fill:#0000c2;fill-opacity:0;stroke:#0000c2;stroke-width:0.53999943;stroke-linecap:round;stroke-linejoin:round;stroke-opacity:1"
       inkscape:connector-curvature="0"
       id="path726"
       d="m 263.14981,292.60564 -2.07,2.07" />
    <path
       style="fill:#0000c2;fill-opacity:0;stroke:#0000c2;stroke-width:0.53999943;stroke-linecap:round;stroke-linejoin:round;stroke-opacity:1"
       inkscape:connector-curvature="0"
       id="path728"
       d="m 265.48981,296.20564 0,-3.6" />
    <path
       style="fill:#0000c2;fill-opacity:0;stroke:#0000c2;stroke-width:0.53999943;stroke-linecap:round;stroke-linejoin:round;stroke-opacity:1"
       inkscape:connector-curvature="0"
       id="path730"
       d="m 265.48981,290.80564 -0.27,0.27 0.27,0.27 0.27,-0.27 -0.27,-0.27 0,0.54" />
    <path
       style="fill:#0000c2;fill-opacity:0;stroke:#0000c2;stroke-width:0.53999943;stroke-linecap:round;stroke-linejoin:round;stroke-opacity:1"
       inkscape:connector-curvature="0"
       id="path732"
       d="m 268.09981,292.60564 0,3.6" />
    <path
       style="fill:#0000c2;fill-opacity:0;stroke:#0000c2;stroke-width:0.53999943;stroke-linecap:round;stroke-linejoin:round;stroke-opacity:1"
       inkscape:connector-curvature="0"
       id="path734"
       d="m 268.09981,293.14564 0.27,-0.27 0.54,-0.27 0.71999,0 0.54,0.27 0.27,0.54 0,2.79" />
    <path
       style="fill:#0000c2;fill-opacity:0;stroke:#0000c2;stroke-width:0.53999943;stroke-linecap:round;stroke-linejoin:round;stroke-opacity:1"
       inkscape:connector-curvature="0"
       id="path736"
       d="m 275.2998,292.60564 0,4.40999 -0.27,0.45 -0.27,0.27 -0.45,0.27 -0.81,0 -0.54,-0.27" />
    <path
       style="fill:#0000c2;fill-opacity:0;stroke:#0000c2;stroke-width:0.53999943;stroke-linecap:round;stroke-linejoin:round;stroke-opacity:1"
       inkscape:connector-curvature="0"
       id="path738"
       d="m 275.2998,295.93564 -0.54,0.27 -0.99,0 -0.54,-0.27 -0.27,-0.27 -0.27,-0.45 0,-1.53 0.27,-0.54 0.27,-0.27 0.54,-0.27 0.99,0 0.54,0.27" />
    <g
       transform="matrix(0.00899999,0,0,0.00899999,-191.64094,177.9695)"
       style="fill:#840000;fill-opacity:0;stroke:#840000;stroke-width:60;stroke-linecap:round;stroke-linejoin:round;stroke-opacity:1"
       id="g740">
      <path
         inkscape:connector-curvature="0"
         d="m 45880,10490 90,30 140,0 60,-30 30,-30 30,-50 0,-60 -30,-60 -30,-30 -60,-20 -110,-30 -60,-30 -30,-30 -30,-60 0,-50 30,-60 30,-30 60,-30 140,0 90,30"
         id="path742" />
      <path
         inkscape:connector-curvature="0"
         d="m 46880,10580 -50,-30 -60,-60 -90,-80 -50,-30 -60,0"
         id="path744" />
      <path
         inkscape:connector-curvature="0"
         d="m 46600,10520 -60,-30 -60,-50 -30,-120 0,-200 30,-110 60,-60 60,-30 110,0 60,30 60,60 20,110 0,200 -20,120 -60,50 -60,30 -110,0"
         id="path746" />
      <path
         inkscape:connector-curvature="0"
         d="m 47460,10520 -200,-280"
         id="path748" />
      <path
         inkscape:connector-curvature="0"
         d="m 47110,10520 0,-600 230,0 60,30 30,30 30,60 0,80 -30,60 -30,30 -60,30 -230,0"
         id="path750" />
      <path
         inkscape:connector-curvature="0"
         d="m 48030,10520 -350,0"
         id="path752" />
      <path
         inkscape:connector-curvature="0"
         d="m 47860,10520 0,-600 -60,90 -60,50 -60,30"
         id="path754" />
    </g>
    <g
       transform="matrix(0.00899999,0,0,0.00899999,-191.64094,177.9695)"
       style="fill:#840000;fill-opacity:0;stroke:#840000;stroke-width:100;stroke-linecap:round;stroke-linejoin:round;stroke-opacity:1"
       id="g756">
      <polyline
         fill="none;"
         points="48500,10250 48200,9710 45540,9710 45540,10250 45540,10790 48200,10790 48500,10250 "
         id="polyline758" />
    </g>
    <g
       transform="matrix(0.00899999,0,0,0.00899999,-191.64094,177.9695)"
       style="fill:#840000;fill-opacity:0;stroke:#840000;stroke-width:60;stroke-linecap:round;stroke-linejoin:round;stroke-opacity:1"
       id="g760">
      <path
         inkscape:connector-curvature="0"
         d="m 51350,10460 -30,30 -90,30 -60,0 -80,-30 -60,-50 -30,-60 -30,-120 0,-80 30,-120 30,-50 60,-60 80,-30 60,0 90,30 30,30"
         id="path762" />
      <path
         inkscape:connector-curvature="0"
         d="m 51600,10520 0,-600"
         id="path764" />
      <path
         inkscape:connector-curvature="0"
         d="m 51600,10210 350,0"
         id="path766" />
      <path
         inkscape:connector-curvature="0"
         d="m 51950,10520 0,-600"
         id="path768" />
      <path
         inkscape:connector-curvature="0"
         d="m 52550,10520 -350,0"
         id="path770" />
      <path
         inkscape:connector-curvature="0"
         d="m 52380,10520 0,-600 -60,90 -60,50 -60,30"
         id="path772" />
    </g>
    <g
       transform="matrix(0.00899999,0,0,0.00899999,-191.64094,177.9695)"
       style="fill:#840000;fill-opacity:0;stroke:#840000;stroke-width:100;stroke-linecap:round;stroke-linejoin:round;stroke-opacity:1"
       id="g774">
      <polyline
         fill="none;"
         points="50500,10250 50800,10790 52890,10790 52890,10250 52890,9710 50800,9710 50500,10250 "
         id="polyline776" />
    </g>
    <g
       transform="matrix(0.00899999,0,0,0.00899999,-191.64094,177.9695)"
       style="fill:#840000;fill-opacity:0;stroke:#840000;stroke-width:60;stroke-linecap:round;stroke-linejoin:round;stroke-opacity:1"
       id="g778">
      <path
         inkscape:connector-curvature="0"
         d="m 45880,14240 90,30 140,0 60,-30 30,-30 30,-50 0,-60 -30,-60 -30,-30 -60,-20 -110,-30 -60,-30 -30,-30 -30,-60 0,-50 30,-60 30,-30 60,-30 140,0 90,30"
         id="path780" />
      <path
         inkscape:connector-curvature="0"
         d="m 46880,14330 -50,-30 -60,-60 -90,-80 -50,-30 -60,0"
         id="path782" />
      <path
         inkscape:connector-curvature="0"
         d="m 46600,14270 -60,-30 -60,-50 -30,-120 0,-200 30,-110 60,-60 60,-30 110,0 60,30 60,60 20,110 0,200 -20,120 -60,50 -60,30 -110,0"
         id="path784" />
      <path
         inkscape:connector-curvature="0"
         d="m 47460,14270 -200,-280"
         id="path786" />
      <path
         inkscape:connector-curvature="0"
         d="m 47110,14270 0,-600 230,0 60,30 30,30 30,60 0,80 -30,60 -30,30 -60,30 -230,0"
         id="path788" />
      <path
         inkscape:connector-curvature="0"
         d="m 48030,14270 -350,0"
         id="path790" />
      <path
         inkscape:connector-curvature="0"
         d="m 47860,14270 0,-600 -60,90 -60,50 -60,30"
         id="path792" />
    </g>
    <g
       transform="matrix(0.00899999,0,0,0.00899999,-191.64094,177.9695)"
       style="fill:#840000;fill-opacity:0;stroke:#840000;stroke-width:100;stroke-linecap:round;stroke-linejoin:round;stroke-opacity:1"
       id="g794">
      <polyline
         fill="none;"
         points="48500,14000 48200,13460 45540,13460 45540,14000 45540,14540 48200,14540 48500,14000 "
         id="polyline796" />
    </g>
    <g
       transform="matrix(0.00899999,0,0,0.00899999,-191.64094,177.9695)"
       style="fill:#840000;fill-opacity:0;stroke:#840000;stroke-width:200;stroke-linecap:round;stroke-linejoin:round;stroke-opacity:1"
       id="g800">
      <polyline
         fill="none;"
         points="49300,15200 47700,15200 "
         id="polyline802" />
      <polyline
         fill="none;"
         points="49300,15800 47700,15800 "
         id="polyline804" />
    </g>
    <g
       transform="matrix(0.00899999,0,0,0.00899999,-191.64094,177.9695)"
       style="fill:#840000;fill-opacity:0;stroke:#840000;stroke-width:60;stroke-linecap:round;stroke-linejoin:round;stroke-opacity:1"
       id="g806">
      <path
         inkscape:connector-curvature="0"
         d="m 48500,15900 0,1100"
         id="path808" />
      <path
         inkscape:connector-curvature="0"
         d="m 48500,15100 0,-1100"
         id="path810" />
    </g>
    <g
       transform="matrix(0.00899999,0,0,0.00899999,-191.64094,177.9695)"
       style="fill:#008484;fill-opacity:0;stroke:#008484;stroke-width:60;stroke-linecap:round;stroke-linejoin:round;stroke-opacity:1"
       id="g812">
      <path
         inkscape:connector-curvature="0"
         d="m 49260,14730 0,280"
         id="path814" />
      <path
         inkscape:connector-curvature="0"
         d="m 49260,14870 -500,0 70,50 50,50 20,40"
         id="path816" />
      <path
         inkscape:connector-curvature="0"
         d="m 48920,14300 340,0"
         id="path818" />
      <path
         inkscape:connector-curvature="0"
         d="m 48920,14510 260,0 50,-20 30,-50 0,-70 -30,-50 -20,-20"
         id="path820" />
      <path
         inkscape:connector-curvature="0"
         d="m 48990,13890 0,170"
         id="path822" />
      <path
         inkscape:connector-curvature="0"
         d="m 49260,14060 -500,0 0,-240"
         id="path824" />
    </g>
    <g
       transform="matrix(0.00899999,0,0,0.00899999,-191.64094,177.9695)"
       style="fill:#840000;fill-opacity:0;stroke:#840000;stroke-width:100;stroke-linecap:round;stroke-linejoin:round;stroke-opacity:1"
       id="g830">
      <rect
         x="48100"
         y="17750"
         width="800"
         height="2000"
         rx="0"
         id="rect832" />
    </g>
    <g
       transform="matrix(0.00899999,0,0,0.00899999,-191.64094,177.9695)"
       style="fill:#840000;fill-opacity:0;stroke:#840000;stroke-width:60;stroke-linecap:round;stroke-linejoin:round;stroke-opacity:1"
       id="g834">
      <path
         inkscape:connector-curvature="0"
         d="m 48500,19750 0,500"
         id="path836" />
      <path
         inkscape:connector-curvature="0"
         d="m 48500,17750 0,-500"
         id="path838" />
    </g>
    <g
       transform="matrix(0.00899999,0,0,0.00899999,-191.64094,177.9695)"
       style="fill:#008484;fill-opacity:0;stroke:#008484;stroke-width:60;stroke-linecap:round;stroke-linejoin:round;stroke-opacity:1"
       id="g840">
      <path
         inkscape:connector-curvature="0"
         d="m 48760,19100 0,280"
         id="path842" />
      <path
         inkscape:connector-curvature="0"
         d="m 48760,19240 -500,0 70,50 50,50 20,40"
         id="path844" />
      <path
         inkscape:connector-curvature="0"
         d="m 48260,18790 0,-50 20,-50 20,-20 50,-30 100,-20 120,0 90,20 50,30 20,20 30,50 0,50 -30,40 -20,30 -50,20 -90,20 -120,0 -100,-20 -50,-20 -20,-30 -20,-40"
         id="path846" />
      <path
         inkscape:connector-curvature="0"
         d="m 48760,18400 -500,0"
         id="path848" />
      <path
         inkscape:connector-curvature="0"
         d="m 48760,18120 -290,210"
         id="path850" />
      <path
         inkscape:connector-curvature="0"
         d="m 48260,18120 280,280"
         id="path852" />
    </g>
    <g
       transform="matrix(0.00899999,0,0,0.00899999,-191.64094,177.9695)"
       style="fill:#840000;fill-opacity:0;stroke:#840000;stroke-width:60;stroke-linecap:round;stroke-linejoin:round;stroke-opacity:1"
       id="g854">
      <path
         inkscape:connector-curvature="0"
         d="m 51350,17210 -30,30 -90,30 -60,0 -80,-30 -60,-50 -30,-60 -30,-120 0,-80 30,-120 30,-50 60,-60 80,-30 60,0 90,30 30,30"
         id="path856" />
      <path
         inkscape:connector-curvature="0"
         d="m 51600,17270 0,-600"
         id="path858" />
      <path
         inkscape:connector-curvature="0"
         d="m 51600,16960 350,0"
         id="path860" />
      <path
         inkscape:connector-curvature="0"
         d="m 51950,17270 0,-600"
         id="path862" />
      <path
         inkscape:connector-curvature="0"
         d="m 52550,17270 -350,0"
         id="path864" />
      <path
         inkscape:connector-curvature="0"
         d="m 52380,17270 0,-600 -60,90 -60,50 -60,30"
         id="path866" />
    </g>
    <g
       transform="matrix(0.00899999,0,0,0.00899999,-191.64094,177.9695)"
       style="fill:#840000;fill-opacity:0;stroke:#840000;stroke-width:100;stroke-linecap:round;stroke-linejoin:round;stroke-opacity:1"
       id="g868">
      <polyline
         fill="none;"
         points="50500,17000 50800,17540 52890,17540 52890,17000 52890,16460 50800,16460 50500,17000 "
         id="polyline870" />
    </g>
    <g
       transform="matrix(0.00899999,0,0,0.00899999,-191.64094,177.9695)"
       style="fill:#840000;fill-opacity:0;stroke:#840000;stroke-width:60;stroke-linecap:round;stroke-linejoin:round;stroke-opacity:1"
       id="g872">
      <path
         inkscape:connector-curvature="0"
         d="m 51320,19950 -60,-30 -90,0 -80,30 -60,60 -30,50 -30,120 0,80 30,120 30,60 60,50 80,30 60,0 90,-30 30,-30 0,-200 -120,0"
         id="path874" />
      <path
         inkscape:connector-curvature="0"
         d="m 51600,20520 0,-600 350,600 0,-600"
         id="path876" />
      <path
         inkscape:connector-curvature="0"
         d="m 52230,20520 0,-600 150,0 80,30 60,60 30,50 30,120 0,80 -30,120 -30,60 -60,50 -80,30 -150,0"
         id="path878" />
    </g>
    <g
       transform="matrix(0.00899999,0,0,0.00899999,-191.64094,177.9695)"
       style="fill:#840000;fill-opacity:0;stroke:#840000;stroke-width:100;stroke-linecap:round;stroke-linejoin:round;stroke-opacity:1"
       id="g880">
      <polyline
         fill="none;"
         points="50500,20250 50800,20790 52920,20790 52920,20250 52920,19710 50800,19710 50500,20250 "
         id="polyline882" />
    </g>
    <path
       style="fill:#008400;fill-opacity:0;stroke:#008400;stroke-width:0.53999943;stroke-linecap:round;stroke-linejoin:round;stroke-opacity:1"
       inkscape:connector-curvature="0"
       id="path1020"
       d="m 244.85858,270.2194 17.99998,0" />
    <path
       style="fill:#008400;fill-opacity:0;stroke:#008400;stroke-width:0.53999943;stroke-linecap:round;stroke-linejoin:round;stroke-opacity:1"
       inkscape:connector-curvature="0"
       id="path1022"
       d="m 262.85856,330.96933 -17.99998,0" />
    <path
       style="fill:#008400;fill-opacity:0;stroke:#008400;stroke-width:0.53999943;stroke-linecap:round;stroke-linejoin:round;stroke-opacity:1"
       inkscape:connector-curvature="0"
       id="path1024"
       d="m 244.85858,330.96933 0,2.25" />
    <path
       style="fill:#008400;fill-opacity:0;stroke:#008400;stroke-width:0.53999943;stroke-linecap:round;stroke-linejoin:round;stroke-opacity:1"
       inkscape:connector-curvature="0"
       id="path1026"
       d="m 244.85858,360.2193 17.99998,0" />
  </g>
</svg>
