<?xml version="1.0" encoding="UTF-8" standalone="no"?>
<svg
   xmlns:dc="http://purl.org/dc/elements/1.1/"
   xmlns:cc="http://creativecommons.org/ns#"
   xmlns:rdf="http://www.w3.org/1999/02/22-rdf-syntax-ns#"
   xmlns:svg="http://www.w3.org/2000/svg"
   xmlns="http://www.w3.org/2000/svg"
   xmlns:sodipodi="http://sodipodi.sourceforge.net/DTD/sodipodi-0.dtd"
   xmlns:inkscape="http://www.inkscape.org/namespaces/inkscape"
   version="1.1"
   width="2.7653229cm"
   height="1.8991114cm"
   viewBox="0 0 10887.106 7476.8236"
   id="svg2"
   inkscape:version="0.91 r13725"
   sodipodi:docname="diode_clamping.svg">
  <metadata
     id="metadata676">
    <rdf:RDF>
      <cc:Work
         rdf:about="">
        <dc:format>image/svg+xml</dc:format>
        <dc:type
           rdf:resource="http://purl.org/dc/dcmitype/StillImage" />
        <dc:title>SVG Picture created as halfwave.sch.svg date 2016/06/12 00:19:44 </dc:title>
      </cc:Work>
    </rdf:RDF>
  </metadata>
  <defs
     id="defs674" />
  <sodipodi:namedview
     pagecolor="#ffffff"
     bordercolor="#666666"
     borderopacity="1"
     objecttolerance="10"
     gridtolerance="10"
     guidetolerance="10"
     inkscape:pageopacity="0"
     inkscape:pageshadow="2"
     inkscape:window-width="1855"
     inkscape:window-height="1056"
     id="namedview672"
     showgrid="false"
     fit-margin-top="0"
     fit-margin-left="0"
     fit-margin-right="0"
     fit-margin-bottom="0"
     inkscape:zoom="6.3859172"
     inkscape:cx="24.618346"
     inkscape:cy="41.082817"
     inkscape:window-x="65"
     inkscape:window-y="24"
     inkscape:window-maximized="1"
     inkscape:current-layer="svg2" />
  <title
     id="title4">SVG Picture created as halfwave.sch.svg date 2016/06/12 00:19:44 </title>
  <desc
     id="desc6">Picture generated by Eeschema-SVG </desc>
  <g
     style="fill:#000000;fill-opacity:1;stroke:#000000;stroke-linecap:round;stroke-linejoin:round;stroke-opacity:1"
     id="g8"
     transform="translate(-35305.878,-31545.585)" />
  <g
     style="fill:#000000;fill-opacity:0;stroke:#000000;stroke-width:60;stroke-linecap:round;stroke-linejoin:round;stroke-opacity:1"
     id="g10"
     transform="translate(-35305.878,-31545.585)" />
  <g
     style="fill:#840000;fill-opacity:0;stroke:#840000;stroke-width:0;stroke-linecap:round;stroke-linejoin:round;stroke-opacity:1"
     id="g58"
     transform="translate(-35305.878,-31545.585)" />
  <g
     style="fill:#840000;fill-opacity:0;stroke:#840000;stroke-width:0;stroke-linecap:round;stroke-linejoin:round;stroke-opacity:1"
     id="g74"
     transform="translate(-35305.878,-31545.585)" />
  <g
     style="fill:#008484;fill-opacity:0;stroke:#008484;stroke-width:0;stroke-linecap:round;stroke-linejoin:round;stroke-opacity:1"
     id="g100"
     transform="translate(-35305.878,-31545.585)" />
  <g
     style="fill:#840000;fill-opacity:0;stroke:#840000;stroke-width:0;stroke-linecap:round;stroke-linejoin:round;stroke-opacity:1"
     id="g102"
     transform="translate(-35305.878,-31545.585)" />
  <g
     style="fill:#840000;fill-opacity:0;stroke:#840000;stroke-width:60;stroke-linecap:round;stroke-linejoin:round;stroke-opacity:1"
     id="g154"
     transform="translate(-35305.878,-31545.585)" />
  <g
     style="fill:#840000;fill-opacity:0;stroke:#840000;stroke-width:0;stroke-linecap:round;stroke-linejoin:round;stroke-opacity:1"
     id="g218"
     transform="translate(-35305.878,-31545.585)" />
  <g
     style="fill:#840000;fill-opacity:0;stroke:#840000;stroke-width:0;stroke-linecap:round;stroke-linejoin:round;stroke-opacity:1"
     id="g234"
     transform="translate(-35305.878,-31545.585)" />
  <g
     style="fill:#840000;fill-opacity:0;stroke:#840000;stroke-width:60;stroke-linecap:round;stroke-linejoin:round;stroke-opacity:1"
     id="g270"
     transform="translate(-35305.878,-31545.585)" />
  <g
     style="fill:#008400;fill-opacity:0;stroke:#008400;stroke-width:0;stroke-linecap:round;stroke-linejoin:round;stroke-opacity:1"
     id="g280"
     transform="translate(-35305.878,-31545.585)" />
  <g
     style="fill:#008400;fill-opacity:1;stroke:#008400;stroke-width:60;stroke-linecap:round;stroke-linejoin:round;stroke-opacity:1"
     id="g286"
     transform="translate(-35305.878,-31545.585)" />
  <g
     style="fill:#008400;fill-opacity:0;stroke:#008400;stroke-width:0;stroke-linecap:round;stroke-linejoin:round;stroke-opacity:1"
     id="g292"
     transform="translate(-35305.878,-31545.585)" />
  <g
     style="fill:#008400;fill-opacity:1;stroke:#008400;stroke-width:60;stroke-linecap:round;stroke-linejoin:round;stroke-opacity:1"
     id="g298"
     transform="translate(-35305.878,-31545.585)" />
  <g
     style="fill:#0000c2;fill-opacity:0;stroke:#0000c2;stroke-width:60;stroke-linecap:round;stroke-linejoin:round;stroke-opacity:1"
     id="g306"
     transform="translate(-35305.878,-31545.585)" />
  <g
     style="fill:#0000c2;fill-opacity:0;stroke:#0000c2;stroke-width:60;stroke-linecap:round;stroke-linejoin:round;stroke-opacity:1"
     id="g312"
     transform="translate(-35305.878,-31545.585)" />
  <g
     style="fill:#008400;fill-opacity:0;stroke:#008400;stroke-width:0;stroke-linecap:round;stroke-linejoin:round;stroke-opacity:1"
     id="g320"
     transform="translate(-35305.878,-31545.585)" />
  <g
     style="fill:#008400;fill-opacity:1;stroke:#008400;stroke-width:60;stroke-linecap:round;stroke-linejoin:round;stroke-opacity:1"
     id="g326"
     transform="translate(-35305.878,-31545.585)" />
  <g
     style="fill:#008400;fill-opacity:0;stroke:#008400;stroke-width:0;stroke-linecap:round;stroke-linejoin:round;stroke-opacity:1"
     id="g332"
     transform="translate(-35305.878,-31545.585)" />
  <g
     style="fill:#008400;fill-opacity:1;stroke:#008400;stroke-width:60;stroke-linecap:round;stroke-linejoin:round;stroke-opacity:1"
     id="g338"
     transform="translate(-35305.878,-31545.585)" />
  <g
     style="fill:#840000;fill-opacity:0;stroke:#840000;stroke-width:0;stroke-linecap:round;stroke-linejoin:round;stroke-opacity:1"
     id="g390"
     transform="translate(-35305.878,-31545.585)" />
  <g
     style="fill:#840000;fill-opacity:0;stroke:#840000;stroke-width:60;stroke-linecap:round;stroke-linejoin:round;stroke-opacity:1"
     id="g502"
     transform="translate(-35305.878,-31545.585)">
    <path
       d="m 36970,32920 140,600 110,-430 120,430 140,-600"
       id="path504"
       inkscape:connector-curvature="0" />
    <path
       d="m 38030,33520 -350,0"
       id="path506"
       inkscape:connector-curvature="0" />
    <path
       d="m 37860,33520 0,-600 -60,90 -60,50 -60,30"
       id="path508"
       inkscape:connector-curvature="0" />
  </g>
  <g
     style="fill:#840000;fill-opacity:0;stroke:#840000;stroke-width:100;stroke-linecap:round;stroke-linejoin:round;stroke-opacity:1"
     id="g510"
     transform="translate(-35305.878,-31545.585)">
    <polyline
       fill="none;"
       points="38500,33250 38200,32710 36650,32710 36650,33250 36650,33790 38200,33790 38500,33250 "
       id="polyline512" />
  </g>
  <g
     style="fill:#840000;fill-opacity:0;stroke:#840000;stroke-width:60;stroke-linecap:round;stroke-linejoin:round;stroke-opacity:1"
     id="g514"
     transform="translate(-35305.878,-31545.585)">
    <path
       d="m 43350,33460 -30,30 -90,30 -60,0 -80,-30 -60,-50 -30,-60 -30,-120 0,-80 30,-120 30,-50 60,-60 80,-30 60,0 90,30 30,30"
       id="path516"
       inkscape:connector-curvature="0" />
    <path
       d="m 43600,33520 0,-600"
       id="path518"
       inkscape:connector-curvature="0" />
    <path
       d="m 43600,33210 350,0"
       id="path520"
       inkscape:connector-curvature="0" />
    <path
       d="m 43950,33520 0,-600"
       id="path522"
       inkscape:connector-curvature="0" />
    <path
       d="m 44550,33520 -350,0"
       id="path524"
       inkscape:connector-curvature="0" />
    <path
       d="m 44380,33520 0,-600 -60,90 -60,50 -60,30"
       id="path526"
       inkscape:connector-curvature="0" />
  </g>
  <g
     style="fill:#840000;fill-opacity:0;stroke:#840000;stroke-width:100;stroke-linecap:round;stroke-linejoin:round;stroke-opacity:1"
     id="g528"
     transform="translate(-35305.878,-31545.585)">
    <polyline
       fill="none;"
       points="42500,33250 42800,33790 44890,33790 44890,33250 44890,32710 42800,32710 42500,33250 "
       id="polyline530" />
  </g>
  <g
     style="fill:#840000;fill-opacity:0;stroke:#840000;stroke-width:60;stroke-linecap:round;stroke-linejoin:round;stroke-opacity:1"
     id="g532"
     transform="translate(-35305.878,-31545.585)">
    <path
       d="m 43350,35210 -30,30 -90,30 -60,0 -80,-30 -60,-50 -30,-60 -30,-120 0,-80 30,-120 30,-50 60,-60 80,-30 60,0 90,30 30,30"
       id="path534"
       inkscape:connector-curvature="0" />
    <path
       d="m 43600,35270 0,-600"
       id="path536"
       inkscape:connector-curvature="0" />
    <path
       d="m 43600,34960 350,0"
       id="path538"
       inkscape:connector-curvature="0" />
    <path
       d="m 43950,35270 0,-600"
       id="path540"
       inkscape:connector-curvature="0" />
    <path
       d="m 44200,34730 30,-30 60,-30 140,0 60,30 30,30 30,60 0,50 -30,90 -340,340 370,0"
       id="path542"
       inkscape:connector-curvature="0" />
  </g>
  <g
     style="fill:#840000;fill-opacity:0;stroke:#840000;stroke-width:100;stroke-linecap:round;stroke-linejoin:round;stroke-opacity:1"
     id="g544"
     transform="translate(-35305.878,-31545.585)">
    <polyline
       fill="none;"
       points="42500,35000 42800,35540 44890,35540 44890,35000 44890,34460 42800,34460 42500,35000 "
       id="polyline546" />
  </g>
  <g
     style="fill:#840000;fill-opacity:0;stroke:#840000;stroke-width:0;stroke-linecap:round;stroke-linejoin:round;stroke-opacity:1"
     id="g548"
     transform="translate(-35305.878,-31545.585)" />
  <g
     style="fill:#840000;fill-opacity:0;stroke:#840000;stroke-width:60;stroke-linecap:round;stroke-linejoin:round;stroke-opacity:1"
     id="g550"
     transform="translate(-35305.878,-31545.585)">
    <polyline
       fill="none;"
       points="41250,37250 41250,36250 "
       id="polyline552" />
  </g>
  <g
     style="fill:#840000;fill-opacity:1;stroke:#840000;stroke-width:60;stroke-linecap:round;stroke-linejoin:round;stroke-opacity:1"
     id="g554"
     transform="translate(-35305.878,-31545.585)">
    <polyline
       style="fill-rule:evenodd"
       points="40250,37250 41250,36750 40250,36250 "
       id="polyline556" />
  </g>
  <g
     style="fill:#840000;fill-opacity:0;stroke:#840000;stroke-width:60;stroke-linecap:round;stroke-linejoin:round;stroke-opacity:1"
     id="g558"
     transform="translate(-35305.878,-31545.585)">
    <path
       d="m 41250,36750 1000,0"
       id="path560"
       inkscape:connector-curvature="0" />
    <path
       d="m 40250,36750 -1000,0"
       id="path562"
       inkscape:connector-curvature="0" />
    <path
       d="m 37100,37020 0,-600 230,0 60,30 30,30 30,60 0,80 -30,60 -30,30 -60,30 -230,0"
       id="path564"
       inkscape:connector-curvature="0" />
    <path
       d="m 37620,36420 200,600 200,-600"
       id="path566"
       inkscape:connector-curvature="0" />
  </g>
  <g
     style="fill:#840000;fill-opacity:0;stroke:#840000;stroke-width:100;stroke-linecap:round;stroke-linejoin:round;stroke-opacity:1"
     id="g570"
     transform="translate(-35305.878,-31545.585)">
    <polyline
       fill="none;"
       points="39000,36750 38700,36210 36730,36210 36730,36750 36730,37290 38700,37290 39000,36750 "
       id="polyline572" />
  </g>
  <g
     style="fill:#840000;fill-opacity:0;stroke:#840000;stroke-width:60;stroke-linecap:round;stroke-linejoin:round;stroke-opacity:1"
     id="g574"
     transform="translate(-35305.878,-31545.585)" />
  <g
     style="fill:#008400;fill-opacity:0;stroke:#008400;stroke-width:60;stroke-linecap:round;stroke-linejoin:round;stroke-opacity:1"
     id="g576"
     transform="translate(-35305.878,-31545.585)">
    <path
       d="m 38500,33250 0,1750"
       id="path578"
       inkscape:connector-curvature="0" />
    <path
       d="m 41500,35000 1000,0"
       id="path580"
       inkscape:connector-curvature="0" />
  </g>
  <g
     style="fill:#008400;fill-opacity:0;stroke:#008400;stroke-width:0;stroke-linecap:round;stroke-linejoin:round;stroke-opacity:1"
     id="g582"
     transform="translate(-35305.878,-31545.585)" />
  <g
     style="fill:#008400;fill-opacity:1;stroke:#008400;stroke-width:100;stroke-linecap:round;stroke-linejoin:round;stroke-opacity:1"
     id="g584"
     transform="translate(-35305.878,-31545.585)">
    <circle
       cx="42250"
       cy="35000"
       r="200"
       id="circle586" />
  </g>
  <g
     style="fill:#008400;fill-opacity:1;stroke:#008400;stroke-width:60;stroke-linecap:round;stroke-linejoin:round;stroke-opacity:1"
     id="g588"
     transform="translate(-35305.878,-31545.585)" />
  <g
     style="fill:#008400;fill-opacity:0;stroke:#008400;stroke-width:60;stroke-linecap:round;stroke-linejoin:round;stroke-opacity:1"
     id="g590"
     transform="translate(-35305.878,-31545.585)">
    <path
       d="m 39250,36750 -250,0"
       id="path592"
       inkscape:connector-curvature="0" />
  </g>
  <g
     style="fill:#008400;fill-opacity:0;stroke:#008400;stroke-width:0;stroke-linecap:round;stroke-linejoin:round;stroke-opacity:1"
     id="g594"
     transform="translate(-35305.878,-31545.585)" />
  <g
     style="fill:#008400;fill-opacity:1;stroke:#008400;stroke-width:100;stroke-linecap:round;stroke-linejoin:round;stroke-opacity:1"
     id="g596"
     transform="translate(-35305.878,-31545.585)">
    <circle
       cx="42250"
       cy="36750"
       r="200"
       id="circle598" />
  </g>
  <g
     style="fill:#008400;fill-opacity:1;stroke:#008400;stroke-width:60;stroke-linecap:round;stroke-linejoin:round;stroke-opacity:1"
     id="g600"
     transform="translate(-35305.878,-31545.585)" />
  <g
     style="fill:#008400;fill-opacity:0;stroke:#008400;stroke-width:60;stroke-linecap:round;stroke-linejoin:round;stroke-opacity:1"
     id="g602"
     transform="translate(-35305.878,-31545.585)">
    <path
       d="m 42250,35000 0,1750"
       id="path604"
       inkscape:connector-curvature="0" />
    <path
       d="m 42250,36750 250,0"
       id="path606"
       inkscape:connector-curvature="0" />
    <path
       d="m 42500,33250 -4000,0"
       id="path608"
       inkscape:connector-curvature="0" />
  </g>
  <g
     style="fill:#0000c2;fill-opacity:0;stroke:#0000c2;stroke-width:0;stroke-linecap:round;stroke-linejoin:round;stroke-opacity:1"
     id="g642"
     transform="translate(-35305.878,-31545.585)" />
  <g
     style="fill:#840000;fill-opacity:0;stroke:#840000;stroke-width:0;stroke-linecap:round;stroke-linejoin:round;stroke-opacity:1"
     id="g644"
     transform="translate(-35305.878,-31545.585)" />
  <g
     style="fill:#840000;fill-opacity:0;stroke:#840000;stroke-width:200;stroke-linecap:round;stroke-linejoin:round;stroke-opacity:1"
     id="g646"
     transform="translate(-35305.878,-31545.585)">
    <polyline
       fill="none;"
       points="39700,34200 39700,35800 "
       id="polyline648" />
    <polyline
       fill="none;"
       points="40300,34200 40300,35800 "
       id="polyline650" />
  </g>
  <g
     style="fill:#840000;fill-opacity:0;stroke:#840000;stroke-width:60;stroke-linecap:round;stroke-linejoin:round;stroke-opacity:1"
     id="g652"
     transform="translate(-35305.878,-31545.585)">
    <path
       d="m 40400,35000 1100,0"
       id="path654"
       inkscape:connector-curvature="0" />
    <path
       d="m 39600,35000 -1100,0"
       id="path656"
       inkscape:connector-curvature="0" />
  </g>
  <g
     style="fill:#008484;fill-opacity:0;stroke:#008484;stroke-width:60;stroke-linecap:round;stroke-linejoin:round;stroke-opacity:1"
     id="g658"
     transform="translate(-35305.878,-31545.585)">
    <path
       d="m 40880,35700 -280,0"
       id="path660"
       inkscape:connector-curvature="0" />
    <path
       d="m 40740,35700 0,-500 -50,70 -50,50 -40,20"
       id="path662"
       inkscape:connector-curvature="0" />
    <path
       d="m 41310,35360 0,340"
       id="path664"
       inkscape:connector-curvature="0" />
    <path
       d="m 41100,35360 0,260 20,50 50,30 70,0 50,-30 20,-20"
       id="path666"
       inkscape:connector-curvature="0" />
    <path
       d="m 41720,35430 -170,0"
       id="path668"
       inkscape:connector-curvature="0" />
    <path
       d="m 41550,35700 0,-500 240,0"
       id="path670"
       inkscape:connector-curvature="0" />
  </g>
  <path
     style="fill:#840000;fill-opacity:0;stroke:#840000;stroke-width:59.99999619;stroke-linecap:round;stroke-linejoin:round;stroke-opacity:1"
     d="m 2897.0799,4940.0996 30,-30 60,-30 139.9999,0 60,30 30,30 30,60 0,50 -30,90 -339.9999,339.9999 369.9999,0"
     id="path542-2"
     inkscape:connector-curvature="0" />
</svg>
