<?xml version="1.0" encoding="UTF-8" standalone="no"?>
<svg
   xmlns:dc="http://purl.org/dc/elements/1.1/"
   xmlns:cc="http://creativecommons.org/ns#"
   xmlns:rdf="http://www.w3.org/1999/02/22-rdf-syntax-ns#"
   xmlns:svg="http://www.w3.org/2000/svg"
   xmlns="http://www.w3.org/2000/svg"
   xmlns:sodipodi="http://sodipodi.sourceforge.net/DTD/sodipodi-0.dtd"
   xmlns:inkscape="http://www.inkscape.org/namespaces/inkscape"
   version="1.1"
   width="5.2106557cm"
   height="3.1856422cm"
   viewBox="0 0 20514.407 12541.911"
   id="svg2"
   inkscape:version="0.91 r13725"
   sodipodi:docname="inverting.svg">
  <metadata
     id="metadata2798">
    <rdf:RDF>
      <cc:Work
         rdf:about="">
        <dc:format>image/svg+xml</dc:format>
        <dc:type
           rdf:resource="http://purl.org/dc/dcmitype/StillImage" />
        <dc:title>SVG Picture created as halfwave.sch.svg date 2016/06/12 15:48:20 </dc:title>
      </cc:Work>
    </rdf:RDF>
  </metadata>
  <defs
     id="defs2796" />
  <sodipodi:namedview
     pagecolor="#ffffff"
     bordercolor="#666666"
     borderopacity="1"
     objecttolerance="10"
     gridtolerance="10"
     guidetolerance="10"
     inkscape:pageopacity="0"
     inkscape:pageshadow="2"
     inkscape:window-width="1855"
     inkscape:window-height="1056"
     id="namedview2794"
     showgrid="false"
     inkscape:zoom="1.1288813"
     inkscape:cx="-20.665465"
     inkscape:cy="-57.42312"
     inkscape:window-x="65"
     inkscape:window-y="24"
     inkscape:window-maximized="1"
     inkscape:current-layer="svg2"
     fit-margin-top="0"
     fit-margin-left="0"
     fit-margin-right="0"
     fit-margin-bottom="0" />
  <title
     id="title4">SVG Picture created as halfwave.sch.svg date 2016/06/12 15:48:20 </title>
  <desc
     id="desc6">Picture generated by Eeschema-SVG </desc>
  <g
     style="fill:#000000;fill-opacity:1;stroke:#000000;stroke-linecap:round;stroke-linejoin:round;stroke-opacity:1"
     id="g8"
     transform="translate(-59625.226,-10020.741)" />
  <g
     style="fill:#000000;fill-opacity:0;stroke:#000000;stroke-width:60;stroke-linecap:round;stroke-linejoin:round;stroke-opacity:1"
     id="g10"
     transform="translate(-59625.226,-10020.741)" />
  <g
     style="fill:#840000;fill-opacity:0;stroke:#840000;stroke-width:0;stroke-linecap:round;stroke-linejoin:round;stroke-opacity:1"
     id="g58"
     transform="translate(-59625.226,-10020.741)" />
  <g
     style="fill:#840000;fill-opacity:0;stroke:#840000;stroke-width:0;stroke-linecap:round;stroke-linejoin:round;stroke-opacity:1"
     id="g74"
     transform="translate(-59625.226,-10020.741)" />
  <g
     style="fill:#008484;fill-opacity:0;stroke:#008484;stroke-width:0;stroke-linecap:round;stroke-linejoin:round;stroke-opacity:1"
     id="g100"
     transform="translate(-59625.226,-10020.741)" />
  <g
     style="fill:#840000;fill-opacity:0;stroke:#840000;stroke-width:0;stroke-linecap:round;stroke-linejoin:round;stroke-opacity:1"
     id="g102"
     transform="translate(-59625.226,-10020.741)" />
  <g
     style="fill:#840000;fill-opacity:0;stroke:#840000;stroke-width:60;stroke-linecap:round;stroke-linejoin:round;stroke-opacity:1"
     id="g154"
     transform="translate(-59625.226,-10020.741)" />
  <g
     style="fill:#840000;fill-opacity:0;stroke:#840000;stroke-width:0;stroke-linecap:round;stroke-linejoin:round;stroke-opacity:1"
     id="g218"
     transform="translate(-59625.226,-10020.741)" />
  <g
     style="fill:#840000;fill-opacity:0;stroke:#840000;stroke-width:0;stroke-linecap:round;stroke-linejoin:round;stroke-opacity:1"
     id="g234"
     transform="translate(-59625.226,-10020.741)" />
  <g
     style="fill:#840000;fill-opacity:0;stroke:#840000;stroke-width:0;stroke-linecap:round;stroke-linejoin:round;stroke-opacity:1"
     id="g312"
     transform="translate(-59625.226,-10020.741)" />
  <g
     style="fill:#840000;fill-opacity:0;stroke:#840000;stroke-width:0;stroke-linecap:round;stroke-linejoin:round;stroke-opacity:1"
     id="g462"
     transform="translate(-59625.226,-10020.741)" />
  <g
     style="fill:#840000;fill-opacity:0;stroke:#840000;stroke-width:60;stroke-linecap:round;stroke-linejoin:round;stroke-opacity:1"
     id="g488"
     transform="translate(-59625.226,-10020.741)" />
  <g
     style="fill:#0000c2;fill-opacity:0;stroke:#0000c2;stroke-width:0;stroke-linecap:round;stroke-linejoin:round;stroke-opacity:1"
     id="g522"
     transform="translate(-59625.226,-10020.741)" />
  <g
     style="fill:#840000;fill-opacity:0;stroke:#840000;stroke-width:0;stroke-linecap:round;stroke-linejoin:round;stroke-opacity:1"
     id="g524"
     transform="translate(-59625.226,-10020.741)" />
  <g
     style="fill:#840000;fill-opacity:0;stroke:#840000;stroke-width:0;stroke-linecap:round;stroke-linejoin:round;stroke-opacity:1"
     id="g598"
     transform="translate(-59625.226,-10020.741)" />
  <g
     style="fill:#840000;fill-opacity:0;stroke:#840000;stroke-width:0;stroke-linecap:round;stroke-linejoin:round;stroke-opacity:1"
     id="g614"
     transform="translate(-59625.226,-10020.741)" />
  <g
     style="fill:#008484;fill-opacity:0;stroke:#008484;stroke-width:0;stroke-linecap:round;stroke-linejoin:round;stroke-opacity:1"
     id="g640"
     transform="translate(-59625.226,-10020.741)" />
  <g
     style="fill:#840000;fill-opacity:0;stroke:#840000;stroke-width:0;stroke-linecap:round;stroke-linejoin:round;stroke-opacity:1"
     id="g642"
     transform="translate(-59625.226,-10020.741)" />
  <g
     style="fill:#840000;fill-opacity:0;stroke:#840000;stroke-width:60;stroke-linecap:round;stroke-linejoin:round;stroke-opacity:1"
     id="g694"
     transform="translate(-59625.226,-10020.741)" />
  <g
     style="fill:#840000;fill-opacity:0;stroke:#840000;stroke-width:0;stroke-linecap:round;stroke-linejoin:round;stroke-opacity:1"
     id="g748"
     transform="translate(-59625.226,-10020.741)" />
  <g
     style="fill:#840000;fill-opacity:0;stroke:#840000;stroke-width:0;stroke-linecap:round;stroke-linejoin:round;stroke-opacity:1"
     id="g804"
     transform="translate(-59625.226,-10020.741)" />
  <g
     style="fill:#008484;fill-opacity:0;stroke:#008484;stroke-width:0;stroke-linecap:round;stroke-linejoin:round;stroke-opacity:1"
     id="g830"
     transform="translate(-59625.226,-10020.741)" />
  <g
     style="fill:#840000;fill-opacity:0;stroke:#840000;stroke-width:0;stroke-linecap:round;stroke-linejoin:round;stroke-opacity:1"
     id="g832"
     transform="translate(-59625.226,-10020.741)" />
  <g
     style="fill:#840000;fill-opacity:0;stroke:#840000;stroke-width:0;stroke-linecap:round;stroke-linejoin:round;stroke-opacity:1"
     id="g900"
     transform="translate(-59625.226,-10020.741)" />
  <g
     style="fill:#008484;fill-opacity:0;stroke:#008484;stroke-width:0;stroke-linecap:round;stroke-linejoin:round;stroke-opacity:1"
     id="g926"
     transform="translate(-59625.226,-10020.741)" />
  <g
     style="fill:#840000;fill-opacity:0;stroke:#840000;stroke-width:0;stroke-linecap:round;stroke-linejoin:round;stroke-opacity:1"
     id="g928"
     transform="translate(-59625.226,-10020.741)" />
  <g
     style="fill:#840000;fill-opacity:0;stroke:#840000;stroke-width:0;stroke-linecap:round;stroke-linejoin:round;stroke-opacity:1"
     id="g1074"
     transform="translate(-59625.226,-10020.741)" />
  <g
     style="fill:#0000c2;fill-opacity:0;stroke:#0000c2;stroke-width:0;stroke-linecap:round;stroke-linejoin:round;stroke-opacity:1"
     id="g1076"
     transform="translate(-59625.226,-10020.741)" />
  <g
     style="fill:#840000;fill-opacity:0;stroke:#840000;stroke-width:0;stroke-linecap:round;stroke-linejoin:round;stroke-opacity:1"
     id="g1148"
     transform="translate(-59625.226,-10020.741)" />
  <g
     style="fill:#840000;fill-opacity:0;stroke:#840000;stroke-width:60;stroke-linecap:round;stroke-linejoin:round;stroke-opacity:1"
     id="g1266"
     transform="translate(-59625.226,-10020.741)" />
  <g
     style="fill:#840000;fill-opacity:0;stroke:#840000;stroke-width:60;stroke-linecap:round;stroke-linejoin:round;stroke-opacity:1"
     id="g1336"
     transform="translate(-59625.226,-10020.741)" />
  <g
     style="fill:#840000;fill-opacity:0;stroke:#840000;stroke-width:0;stroke-linecap:round;stroke-linejoin:round;stroke-opacity:1"
     id="g1454"
     transform="translate(-59625.226,-10020.741)" />
  <g
     style="fill:#008484;fill-opacity:0;stroke:#008484;stroke-width:0;stroke-linecap:round;stroke-linejoin:round;stroke-opacity:1"
     id="g1482"
     transform="translate(-59625.226,-10020.741)" />
  <g
     style="fill:#840000;fill-opacity:0;stroke:#840000;stroke-width:0;stroke-linecap:round;stroke-linejoin:round;stroke-opacity:1"
     id="g1484"
     transform="translate(-59625.226,-10020.741)" />
  <g
     style="fill:#840000;fill-opacity:0;stroke:#840000;stroke-width:60;stroke-linecap:round;stroke-linejoin:round;stroke-opacity:1"
     id="g1570"
     transform="translate(-59625.226,-10020.741)" />
  <g
     style="fill:#0000c2;fill-opacity:0;stroke:#0000c2;stroke-width:0;stroke-linecap:round;stroke-linejoin:round;stroke-opacity:1"
     id="g1582"
     transform="translate(-59625.226,-10020.741)" />
  <g
     style="fill:#840000;fill-opacity:0;stroke:#840000;stroke-width:0;stroke-linecap:round;stroke-linejoin:round;stroke-opacity:1"
     id="g1584"
     transform="translate(-59625.226,-10020.741)" />
  <g
     style="fill:#840000;fill-opacity:0;stroke:#840000;stroke-width:60;stroke-linecap:round;stroke-linejoin:round;stroke-opacity:1"
     id="g1606"
     transform="translate(-59625.226,-10020.741)" />
  <g
     style="fill:#840000;fill-opacity:0;stroke:#840000;stroke-width:60;stroke-linecap:round;stroke-linejoin:round;stroke-opacity:1"
     id="g1674"
     transform="translate(-59625.226,-10020.741)">
    <path
       d="m 71920,17670 200,600 200,-600"
       id="path1676"
       inkscape:connector-curvature="0" />
    <path
       d="m 72510,18040 460,0"
       id="path1678"
       inkscape:connector-curvature="0" />
  </g>
  <g
     style="fill:#840000;fill-opacity:0;stroke:#840000;stroke-width:100;stroke-linecap:round;stroke-linejoin:round;stroke-opacity:1"
     id="g1680"
     transform="translate(-59625.226,-10020.741)">
    <polyline
       fill="none;"
       points="71500,18000 71800,18540 73340,18540 73340,18000 73340,17460 71800,17460 71500,18000 "
       id="polyline1682" />
  </g>
  <g
     style="fill:#840000;fill-opacity:0;stroke:#840000;stroke-width:60;stroke-linecap:round;stroke-linejoin:round;stroke-opacity:1"
     id="g1684"
     transform="translate(-59625.226,-10020.741)">
    <path
       d="m 71920,11670 200,600 200,-600"
       id="path1686"
       inkscape:connector-curvature="0" />
    <path
       d="m 72510,12040 460,0"
       id="path1688"
       inkscape:connector-curvature="0" />
    <path
       d="m 72740,12270 0,-460"
       id="path1690"
       inkscape:connector-curvature="0" />
  </g>
  <g
     style="fill:#840000;fill-opacity:0;stroke:#840000;stroke-width:100;stroke-linecap:round;stroke-linejoin:round;stroke-opacity:1"
     id="g1692"
     transform="translate(-59625.226,-10020.741)">
    <polyline
       fill="none;"
       points="71500,12000 71800,12540 73340,12540 73340,12000 73340,11460 71800,11460 71500,12000 "
       id="polyline1694" />
  </g>
  <g
     style="fill:#840000;fill-opacity:0;stroke:#840000;stroke-width:0;stroke-linecap:round;stroke-linejoin:round;stroke-opacity:1"
     id="g1696"
     transform="translate(-59625.226,-10020.741)" />
  <g
     style="fill:#840000;fill-opacity:0;stroke:#840000;stroke-width:100;stroke-linecap:round;stroke-linejoin:round;stroke-opacity:1"
     id="g1698"
     transform="translate(-59625.226,-10020.741)">
    <rect
       x="70500"
       y="19600"
       width="2000"
       height="800"
       rx="0"
       id="rect1700" />
  </g>
  <g
     style="fill:#840000;fill-opacity:0;stroke:#840000;stroke-width:60;stroke-linecap:round;stroke-linejoin:round;stroke-opacity:1"
     id="g1702"
     transform="translate(-59625.226,-10020.741)">
    <path
       d="m 70500,20000 -500,0"
       id="path1704"
       inkscape:connector-curvature="0" />
    <path
       d="m 72500,20000 500,0"
       id="path1706"
       inkscape:connector-curvature="0" />
  </g>
  <g
     style="fill:#008484;fill-opacity:0;stroke:#008484;stroke-width:60;stroke-linecap:round;stroke-linejoin:round;stroke-opacity:1"
     id="g1708"
     transform="translate(-59625.226,-10020.741)">
    <path
       d="m 71150,20260 -280,0"
       id="path1710"
       inkscape:connector-curvature="0" />
    <path
       d="m 71010,20260 0,-500 -50,70 -50,50 -40,20"
       id="path1712"
       inkscape:connector-curvature="0" />
    <path
       d="m 71460,19760 50,0 50,20 20,20 30,50 20,100 0,120 -20,90 -30,50 -20,20 -50,30 -50,0 -40,-30 -30,-20 -20,-50 -20,-90 0,-120 20,-100 20,-50 30,-20 40,-20"
       id="path1714"
       inkscape:connector-curvature="0" />
    <path
       d="m 71850,20260 0,-500"
       id="path1716"
       inkscape:connector-curvature="0" />
    <path
       d="m 72130,20260 -210,-290"
       id="path1718"
       inkscape:connector-curvature="0" />
    <path
       d="m 72130,19760 -280,280"
       id="path1720"
       inkscape:connector-curvature="0" />
  </g>
  <g
     style="fill:#008484;fill-opacity:0;stroke:#008484;stroke-width:0;stroke-linecap:round;stroke-linejoin:round;stroke-opacity:1"
     id="g1722"
     transform="translate(-59625.226,-10020.741)" />
  <g
     style="fill:#840000;fill-opacity:0;stroke:#840000;stroke-width:0;stroke-linecap:round;stroke-linejoin:round;stroke-opacity:1"
     id="g1724"
     transform="translate(-59625.226,-10020.741)" />
  <g
     style="fill:#840000;fill-opacity:0;stroke:#840000;stroke-width:100;stroke-linecap:round;stroke-linejoin:round;stroke-opacity:1"
     id="g1726"
     transform="translate(-59625.226,-10020.741)">
    <rect
       x="64750"
       y="15600"
       width="2000"
       height="800"
       rx="0"
       id="rect1728" />
  </g>
  <g
     style="fill:#840000;fill-opacity:0;stroke:#840000;stroke-width:60;stroke-linecap:round;stroke-linejoin:round;stroke-opacity:1"
     id="g1730"
     transform="translate(-59625.226,-10020.741)">
    <path
       d="m 64750,16000 -500,0"
       id="path1732"
       inkscape:connector-curvature="0" />
    <path
       d="m 66750,16000 500,0"
       id="path1734"
       inkscape:connector-curvature="0" />
  </g>
  <g
     style="fill:#008484;fill-opacity:0;stroke:#008484;stroke-width:60;stroke-linecap:round;stroke-linejoin:round;stroke-opacity:1"
     id="g1736"
     transform="translate(-59625.226,-10020.741)">
    <path
       d="m 65400,16260 -280,0"
       id="path1738"
       inkscape:connector-curvature="0" />
    <path
       d="m 65260,16260 0,-500 -50,70 -50,50 -40,20"
       id="path1740"
       inkscape:connector-curvature="0" />
    <path
       d="m 65710,15760 50,0 50,20 20,20 30,50 20,100 0,120 -20,90 -30,50 -20,20 -50,30 -50,0 -40,-30 -30,-20 -20,-50 -20,-90 0,-120 20,-100 20,-50 30,-20 40,-20"
       id="path1742"
       inkscape:connector-curvature="0" />
    <path
       d="m 66100,16260 0,-500"
       id="path1744"
       inkscape:connector-curvature="0" />
    <path
       d="m 66380,16260 -210,-290"
       id="path1746"
       inkscape:connector-curvature="0" />
    <path
       d="m 66380,15760 -280,280"
       id="path1748"
       inkscape:connector-curvature="0" />
  </g>
  <g
     style="fill:#840000;fill-opacity:0;stroke:#840000;stroke-width:60;stroke-linecap:round;stroke-linejoin:round;stroke-opacity:1"
     id="g1750"
     transform="translate(-59625.226,-10020.741)">
    <path
       d="m 61720,15670 140,600 110,-430 120,430 140,-600"
       id="path1752"
       inkscape:connector-curvature="0" />
    <path
       d="m 62780,16270 -350,0"
       id="path1754"
       inkscape:connector-curvature="0" />
    <path
       d="m 62610,16270 0,-600 -60,90 -60,50 -60,30"
       id="path1756"
       inkscape:connector-curvature="0" />
  </g>
  <g
     style="fill:#840000;fill-opacity:0;stroke:#840000;stroke-width:100;stroke-linecap:round;stroke-linejoin:round;stroke-opacity:1"
     id="g1758"
     transform="translate(-59625.226,-10020.741)">
    <polyline
       fill="none;"
       points="63250,16000 62950,15460 61400,15460 61400,16000 61400,16540 62950,16540 63250,16000 "
       id="polyline1760" />
  </g>
  <g
     style="fill:#840000;fill-opacity:0;stroke:#840000;stroke-width:60;stroke-linecap:round;stroke-linejoin:round;stroke-opacity:1"
     id="g1762"
     transform="translate(-59625.226,-10020.741)">
    <path
       d="m 65520,13700 -60,-30 -90,0 -80,30 -60,60 -30,50 -30,120 0,80 30,120 30,60 60,50 80,30 60,0 90,-30 30,-30 0,-200 -120,0"
       id="path1764"
       inkscape:connector-curvature="0" />
    <path
       d="m 65800,14270 0,-600 350,600 0,-600"
       id="path1766"
       inkscape:connector-curvature="0" />
    <path
       d="m 66430,14270 0,-600 150,0 80,30 60,60 30,50 30,120 0,80 -30,120 -30,60 -60,50 -80,30 -150,0"
       id="path1768"
       inkscape:connector-curvature="0" />
  </g>
  <g
     style="fill:#840000;fill-opacity:0;stroke:#840000;stroke-width:100;stroke-linecap:round;stroke-linejoin:round;stroke-opacity:1"
     id="g1770"
     transform="translate(-59625.226,-10020.741)">
    <polyline
       fill="none;"
       points="67250,14000 66950,13460 64830,13460 64830,14000 64830,14540 66950,14540 67250,14000 "
       id="polyline1772" />
  </g>
  <g
     style="fill:#840000;fill-opacity:0;stroke:#840000;stroke-width:60;stroke-linecap:round;stroke-linejoin:round;stroke-opacity:1"
     id="g1774"
     transform="translate(-59625.226,-10020.741)">
    <path
       d="m 77350,15210 -30,30 -90,30 -60,0 -80,-30 -60,-50 -30,-60 -30,-120 0,-80 30,-120 30,-50 60,-60 80,-30 60,0 90,30 30,30"
       id="path1776"
       inkscape:connector-curvature="0" />
    <path
       d="m 77600,15270 0,-600"
       id="path1778"
       inkscape:connector-curvature="0" />
    <path
       d="m 77600,14960 350,0"
       id="path1780"
       inkscape:connector-curvature="0" />
    <path
       d="m 77950,15270 0,-600"
       id="path1782"
       inkscape:connector-curvature="0" />
    <path
       d="m 78200,14730 30,-30 60,-30 140,0 60,30 30,30 30,60 0,50 -30,90 -340,340 370,0"
       id="path1784"
       inkscape:connector-curvature="0" />
  </g>
  <g
     style="fill:#840000;fill-opacity:0;stroke:#840000;stroke-width:100;stroke-linecap:round;stroke-linejoin:round;stroke-opacity:1"
     id="g1786"
     transform="translate(-59625.226,-10020.741)">
    <polyline
       fill="none;"
       points="76500,15000 76800,15540 78890,15540 78890,15000 78890,14460 76800,14460 76500,15000 "
       id="polyline1788" />
  </g>
  <g
     style="fill:#840000;fill-opacity:0;stroke:#840000;stroke-width:60;stroke-linecap:round;stroke-linejoin:round;stroke-opacity:1"
     id="g1790"
     transform="translate(-59625.226,-10020.741)">
    <path
       d="m 62080,18210 -30,30 -90,30 -60,0 -80,-30 -60,-50 -30,-60 -30,-120 0,-80 30,-120 30,-50 60,-60 80,-30 60,0 90,30 30,30"
       id="path1792"
       inkscape:connector-curvature="0" />
    <path
       d="m 62330,18270 0,-600"
       id="path1794"
       inkscape:connector-curvature="0" />
    <path
       d="m 62330,17960 350,0"
       id="path1796"
       inkscape:connector-curvature="0" />
    <path
       d="m 62680,18270 0,-600"
       id="path1798"
       inkscape:connector-curvature="0" />
    <path
       d="m 63280,18270 -350,0"
       id="path1800"
       inkscape:connector-curvature="0" />
    <path
       d="m 63110,18270 0,-600 -60,90 -60,50 -60,30"
       id="path1802"
       inkscape:connector-curvature="0" />
  </g>
  <g
     style="fill:#840000;fill-opacity:0;stroke:#840000;stroke-width:100;stroke-linecap:round;stroke-linejoin:round;stroke-opacity:1"
     id="g1804"
     transform="translate(-59625.226,-10020.741)">
    <polyline
       fill="none;"
       points="63750,18000 63450,17460 61360,17460 61360,18000 61360,18540 63450,18540 63750,18000 "
       id="polyline1806" />
  </g>
  <g
     style="fill:#840000;fill-opacity:0;stroke:#840000;stroke-width:60;stroke-linecap:round;stroke-linejoin:round;stroke-opacity:1"
     id="g1808"
     transform="translate(-59625.226,-10020.741)" />
  <g
     style="fill:#840000;fill-opacity:0;stroke:#840000;stroke-width:0;stroke-linecap:round;stroke-linejoin:round;stroke-opacity:1"
     id="g1906"
     transform="translate(-59625.226,-10020.741)" />
  <g
     style="fill:#008484;fill-opacity:0;stroke:#008484;stroke-width:0;stroke-linecap:round;stroke-linejoin:round;stroke-opacity:1"
     id="g1932"
     transform="translate(-59625.226,-10020.741)" />
  <g
     style="fill:#840000;fill-opacity:0;stroke:#840000;stroke-width:0;stroke-linecap:round;stroke-linejoin:round;stroke-opacity:1"
     id="g1934"
     transform="translate(-59625.226,-10020.741)" />
  <g
     style="fill:#840000;fill-opacity:0;stroke:#840000;stroke-width:60;stroke-linecap:round;stroke-linejoin:round;stroke-opacity:1"
     id="g2018"
     transform="translate(-59625.226,-10020.741)" />
  <g
     style="fill:#840000;fill-opacity:0;stroke:#840000;stroke-width:0;stroke-linecap:round;stroke-linejoin:round;stroke-opacity:1"
     id="g2100"
     transform="translate(-59625.226,-10020.741)" />
  <g
     style="fill:#840000;fill-opacity:0;stroke:#840000;stroke-width:0;stroke-linecap:round;stroke-linejoin:round;stroke-opacity:1"
     id="g2166"
     transform="translate(-59625.226,-10020.741)" />
  <g
     style="fill:#840000;fill-opacity:0;stroke:#840000;stroke-width:0;stroke-linecap:round;stroke-linejoin:round;stroke-opacity:1"
     id="g2200"
     transform="translate(-59625.226,-10020.741)" />
  <g
     style="fill:#008400;fill-opacity:0;stroke:#008400;stroke-width:0;stroke-linecap:round;stroke-linejoin:round;stroke-opacity:1"
     id="g2234"
     transform="translate(-59625.226,-10020.741)" />
  <g
     style="fill:#008400;fill-opacity:1;stroke:#008400;stroke-width:60;stroke-linecap:round;stroke-linejoin:round;stroke-opacity:1"
     id="g2240"
     transform="translate(-59625.226,-10020.741)" />
  <g
     style="fill:#008400;fill-opacity:0;stroke:#008400;stroke-width:0;stroke-linecap:round;stroke-linejoin:round;stroke-opacity:1"
     id="g2246"
     transform="translate(-59625.226,-10020.741)" />
  <g
     style="fill:#008400;fill-opacity:1;stroke:#008400;stroke-width:60;stroke-linecap:round;stroke-linejoin:round;stroke-opacity:1"
     id="g2252"
     transform="translate(-59625.226,-10020.741)" />
  <g
     style="fill:#0000c2;fill-opacity:0;stroke:#0000c2;stroke-width:60;stroke-linecap:round;stroke-linejoin:round;stroke-opacity:1"
     id="g2260"
     transform="translate(-59625.226,-10020.741)" />
  <g
     style="fill:#0000c2;fill-opacity:0;stroke:#0000c2;stroke-width:60;stroke-linecap:round;stroke-linejoin:round;stroke-opacity:1"
     id="g2266"
     transform="translate(-59625.226,-10020.741)" />
  <g
     style="fill:#008400;fill-opacity:0;stroke:#008400;stroke-width:0;stroke-linecap:round;stroke-linejoin:round;stroke-opacity:1"
     id="g2274"
     transform="translate(-59625.226,-10020.741)" />
  <g
     style="fill:#008400;fill-opacity:1;stroke:#008400;stroke-width:60;stroke-linecap:round;stroke-linejoin:round;stroke-opacity:1"
     id="g2280"
     transform="translate(-59625.226,-10020.741)" />
  <g
     style="fill:#008400;fill-opacity:0;stroke:#008400;stroke-width:0;stroke-linecap:round;stroke-linejoin:round;stroke-opacity:1"
     id="g2286"
     transform="translate(-59625.226,-10020.741)" />
  <g
     style="fill:#008400;fill-opacity:1;stroke:#008400;stroke-width:60;stroke-linecap:round;stroke-linejoin:round;stroke-opacity:1"
     id="g2292"
     transform="translate(-59625.226,-10020.741)" />
  <g
     style="fill:#008400;fill-opacity:0;stroke:#008400;stroke-width:0;stroke-linecap:round;stroke-linejoin:round;stroke-opacity:1"
     id="g2312"
     transform="translate(-59625.226,-10020.741)" />
  <g
     style="fill:#008400;fill-opacity:1;stroke:#008400;stroke-width:60;stroke-linecap:round;stroke-linejoin:round;stroke-opacity:1"
     id="g2318"
     transform="translate(-59625.226,-10020.741)" />
  <g
     style="fill:#008400;fill-opacity:0;stroke:#008400;stroke-width:0;stroke-linecap:round;stroke-linejoin:round;stroke-opacity:1"
     id="g2324"
     transform="translate(-59625.226,-10020.741)" />
  <g
     style="fill:#008400;fill-opacity:1;stroke:#008400;stroke-width:60;stroke-linecap:round;stroke-linejoin:round;stroke-opacity:1"
     id="g2330"
     transform="translate(-59625.226,-10020.741)" />
  <g
     style="fill:#008400;fill-opacity:0;stroke:#008400;stroke-width:0;stroke-linecap:round;stroke-linejoin:round;stroke-opacity:1"
     id="g2346"
     transform="translate(-59625.226,-10020.741)" />
  <g
     style="fill:#008400;fill-opacity:1;stroke:#008400;stroke-width:60;stroke-linecap:round;stroke-linejoin:round;stroke-opacity:1"
     id="g2352"
     transform="translate(-59625.226,-10020.741)" />
  <g
     style="fill:#0000c2;fill-opacity:0;stroke:#0000c2;stroke-width:60;stroke-linecap:round;stroke-linejoin:round;stroke-opacity:1"
     id="g2360"
     transform="translate(-59625.226,-10020.741)" />
  <g
     style="fill:#0000c2;fill-opacity:0;stroke:#0000c2;stroke-width:60;stroke-linecap:round;stroke-linejoin:round;stroke-opacity:1"
     id="g2366"
     transform="translate(-59625.226,-10020.741)" />
  <g
     style="fill:#008400;fill-opacity:0;stroke:#008400;stroke-width:0;stroke-linecap:round;stroke-linejoin:round;stroke-opacity:1"
     id="g2378"
     transform="translate(-59625.226,-10020.741)" />
  <g
     style="fill:#008400;fill-opacity:1;stroke:#008400;stroke-width:60;stroke-linecap:round;stroke-linejoin:round;stroke-opacity:1"
     id="g2384"
     transform="translate(-59625.226,-10020.741)" />
  <g
     style="fill:#008400;fill-opacity:0;stroke:#008400;stroke-width:0;stroke-linecap:round;stroke-linejoin:round;stroke-opacity:1"
     id="g2390"
     transform="translate(-59625.226,-10020.741)" />
  <g
     style="fill:#008400;fill-opacity:1;stroke:#008400;stroke-width:60;stroke-linecap:round;stroke-linejoin:round;stroke-opacity:1"
     id="g2396"
     transform="translate(-59625.226,-10020.741)" />
  <g
     style="fill:#008400;fill-opacity:0;stroke:#008400;stroke-width:0;stroke-linecap:round;stroke-linejoin:round;stroke-opacity:1"
     id="g2404"
     transform="translate(-59625.226,-10020.741)" />
  <g
     style="fill:#008400;fill-opacity:1;stroke:#008400;stroke-width:60;stroke-linecap:round;stroke-linejoin:round;stroke-opacity:1"
     id="g2410"
     transform="translate(-59625.226,-10020.741)" />
  <g
     style="fill:#008400;fill-opacity:0;stroke:#008400;stroke-width:0;stroke-linecap:round;stroke-linejoin:round;stroke-opacity:1"
     id="g2430"
     transform="translate(-59625.226,-10020.741)" />
  <g
     style="fill:#008400;fill-opacity:1;stroke:#008400;stroke-width:60;stroke-linecap:round;stroke-linejoin:round;stroke-opacity:1"
     id="g2436"
     transform="translate(-59625.226,-10020.741)" />
  <g
     style="fill:#008400;fill-opacity:0;stroke:#008400;stroke-width:0;stroke-linecap:round;stroke-linejoin:round;stroke-opacity:1"
     id="g2444"
     transform="translate(-59625.226,-10020.741)" />
  <g
     style="fill:#008400;fill-opacity:1;stroke:#008400;stroke-width:60;stroke-linecap:round;stroke-linejoin:round;stroke-opacity:1"
     id="g2450"
     transform="translate(-59625.226,-10020.741)" />
  <g
     style="fill:#0000c2;fill-opacity:0;stroke:#0000c2;stroke-width:60;stroke-linecap:round;stroke-linejoin:round;stroke-opacity:1"
     id="g2484"
     transform="translate(-59625.226,-10020.741)" />
  <g
     style="fill:#0000c2;fill-opacity:0;stroke:#0000c2;stroke-width:60;stroke-linecap:round;stroke-linejoin:round;stroke-opacity:1"
     id="g2490"
     transform="translate(-59625.226,-10020.741)" />
  <g
     style="fill:#0000c2;fill-opacity:0;stroke:#0000c2;stroke-width:60;stroke-linecap:round;stroke-linejoin:round;stroke-opacity:1"
     id="g2496"
     transform="translate(-59625.226,-10020.741)" />
  <g
     style="fill:#0000c2;fill-opacity:0;stroke:#0000c2;stroke-width:60;stroke-linecap:round;stroke-linejoin:round;stroke-opacity:1"
     id="g2502"
     transform="translate(-59625.226,-10020.741)" />
  <g
     style="fill:#008400;fill-opacity:0;stroke:#008400;stroke-width:60;stroke-linecap:round;stroke-linejoin:round;stroke-opacity:1"
     id="g2504"
     transform="translate(-59625.226,-10020.741)">
    <path
       d="m 9500,53000 3000,0"
       id="path2506"
       inkscape:connector-curvature="0" />
    <path
       d="m 71500,18000 -1000,0"
       id="path2508"
       inkscape:connector-curvature="0" />
    <path
       d="m 71500,12000 -1000,0"
       id="path2510"
       inkscape:connector-curvature="0" />
    <path
       d="m 75000,15000 0,5000"
       id="path2512"
       inkscape:connector-curvature="0" />
    <path
       d="m 75000,20000 -2000,0"
       id="path2514"
       inkscape:connector-curvature="0" />
    <path
       d="m 70000,20000 -2750,0"
       id="path2516"
       inkscape:connector-curvature="0" />
    <path
       d="m 67250,20000 0,-4000"
       id="path2518"
       inkscape:connector-curvature="0" />
    <path
       d="m 67250,16000 750,0"
       id="path2520"
       inkscape:connector-curvature="0" />
    <path
       d="m 67250,14000 750,0"
       id="path2522"
       inkscape:connector-curvature="0" />
    <path
       d="m 76500,15000 -1500,0"
       id="path2524"
       inkscape:connector-curvature="0" />
    <path
       d="m 64250,16000 0,2000"
       id="path2526"
       inkscape:connector-curvature="0" />
    <path
       d="m 64250,18000 -500,0"
       id="path2528"
       inkscape:connector-curvature="0" />
    <path
       d="m 63250,16000 1000,0"
       id="path2530"
       inkscape:connector-curvature="0" />
  </g>
  <g
     style="fill:#008400;fill-opacity:0;stroke:#008400;stroke-width:0;stroke-linecap:round;stroke-linejoin:round;stroke-opacity:1"
     id="g2544"
     transform="translate(-59625.226,-10020.741)" />
  <g
     style="fill:#008400;fill-opacity:1;stroke:#008400;stroke-width:60;stroke-linecap:round;stroke-linejoin:round;stroke-opacity:1"
     id="g2550"
     transform="translate(-59625.226,-10020.741)" />
  <g
     style="fill:#008400;fill-opacity:0;stroke:#008400;stroke-width:0;stroke-linecap:round;stroke-linejoin:round;stroke-opacity:1"
     id="g2588"
     transform="translate(-59625.226,-10020.741)" />
  <g
     style="fill:#840000;fill-opacity:0;stroke:#840000;stroke-width:0;stroke-linecap:round;stroke-linejoin:round;stroke-opacity:1"
     id="g2590"
     transform="translate(-59625.226,-10020.741)" />
  <g
     style="fill:#ffffc2;fill-opacity:0;stroke:#ffffc2;stroke-width:0;stroke-linecap:round;stroke-linejoin:round;stroke-opacity:1"
     id="g2592"
     transform="translate(-59625.226,-10020.741)" />
  <g
     style="fill:#ffffc2;fill-opacity:0.6;stroke:#ffffc2;stroke-width:0;stroke-linecap:round;stroke-linejoin:round;stroke-opacity:1"
     id="g2594"
     transform="translate(-59625.226,-10020.741)">
    <polyline
       style="fill-rule:evenodd"
       points="69500,13000 73500,15000 69500,17000 69500,13000 "
       id="polyline2596" />
  </g>
  <g
     style="fill:#840000;fill-opacity:0.6;stroke:#840000;stroke-width:0;stroke-linecap:round;stroke-linejoin:round;stroke-opacity:1"
     id="g2598"
     transform="translate(-59625.226,-10020.741)" />
  <g
     style="fill:#840000;fill-opacity:0;stroke:#840000;stroke-width:60;stroke-linecap:round;stroke-linejoin:round;stroke-opacity:1"
     id="g2600"
     transform="translate(-59625.226,-10020.741)">
    <polyline
       fill="none;"
       points="69500,13000 73500,15000 69500,17000 69500,13000 "
       id="polyline2602" />
    <path
       d="m 70500,16500 0,1500"
       id="path2604"
       inkscape:connector-curvature="0" />
  </g>
  <g
     style="fill:#008484;fill-opacity:0;stroke:#008484;stroke-width:60;stroke-linecap:round;stroke-linejoin:round;stroke-opacity:1"
     id="g2606"
     transform="translate(-59625.226,-10020.741)">
    <path
       d="m 70280,16360 400,-130 -400,-130"
       id="path2608"
       inkscape:connector-curvature="0" />
    <path
       d="m 70530,15960 0,-300"
       id="path2610"
       inkscape:connector-curvature="0" />
  </g>
  <g
     style="fill:#840000;fill-opacity:0;stroke:#840000;stroke-width:60;stroke-linecap:round;stroke-linejoin:round;stroke-opacity:1"
     id="g2612"
     transform="translate(-59625.226,-10020.741)">
    <path
       d="m 70110,17170 270,0"
       id="path2614"
       inkscape:connector-curvature="0" />
    <path
       d="m 69960,17270 290,90 0,-240"
       id="path2616"
       inkscape:connector-curvature="0" />
    <path
       d="m 70500,13500 0,-1500"
       id="path2618"
       inkscape:connector-curvature="0" />
  </g>
  <g
     style="fill:#008484;fill-opacity:0;stroke:#008484;stroke-width:60;stroke-linecap:round;stroke-linejoin:round;stroke-opacity:1"
     id="g2620"
     transform="translate(-59625.226,-10020.741)">
    <path
       d="m 70280,14400 400,-130 -400,-130"
       id="path2622"
       inkscape:connector-curvature="0" />
    <path
       d="m 70530,14000 0,-300"
       id="path2624"
       inkscape:connector-curvature="0" />
    <path
       d="m 70680,13850 -300,0"
       id="path2626"
       inkscape:connector-curvature="0" />
  </g>
  <g
     style="fill:#840000;fill-opacity:0;stroke:#840000;stroke-width:60;stroke-linecap:round;stroke-linejoin:round;stroke-opacity:1"
     id="g2628"
     transform="translate(-59625.226,-10020.741)">
    <path
       d="m 69980,12880 0,-260 400,170"
       id="path2630"
       inkscape:connector-curvature="0" />
    <path
       d="m 69500,16000 -1500,0"
       id="path2632"
       inkscape:connector-curvature="0" />
  </g>
  <g
     style="fill:#008484;fill-opacity:0;stroke:#008484;stroke-width:60;stroke-linecap:round;stroke-linejoin:round;stroke-opacity:1"
     id="g2634"
     transform="translate(-59625.226,-10020.741)">
    <path
       d="m 69700,16030 300,0"
       id="path2636"
       inkscape:connector-curvature="0" />
  </g>
  <g
     style="fill:#840000;fill-opacity:0;stroke:#840000;stroke-width:60;stroke-linecap:round;stroke-linejoin:round;stroke-opacity:1"
     id="g2638"
     transform="translate(-59625.226,-10020.741)">
    <path
       d="m 68640,15520 20,-20 30,-20 100,0 40,20 20,20 10,40 0,40 -10,50 -230,230 240,0"
       id="path2640"
       inkscape:connector-curvature="0" />
    <path
       d="m 69500,14000 -1500,0"
       id="path2642"
       inkscape:connector-curvature="0" />
  </g>
  <g
     style="fill:#008484;fill-opacity:0;stroke:#008484;stroke-width:60;stroke-linecap:round;stroke-linejoin:round;stroke-opacity:1"
     id="g2644"
     transform="translate(-59625.226,-10020.741)">
    <path
       d="m 69700,14030 300,0"
       id="path2646"
       inkscape:connector-curvature="0" />
    <path
       d="m 69850,14180 0,-300"
       id="path2648"
       inkscape:connector-curvature="0" />
  </g>
  <g
     style="fill:#840000;fill-opacity:0;stroke:#840000;stroke-width:60;stroke-linecap:round;stroke-linejoin:round;stroke-opacity:1"
     id="g2650"
     transform="translate(-59625.226,-10020.741)">
    <path
       d="m 68620,13480 240,0 -130,150 60,0 40,20 20,20 10,40 0,90 -10,40 -20,20 -40,20 -120,0 -30,-20 -20,-20"
       id="path2652"
       inkscape:connector-curvature="0" />
    <path
       d="m 73500,15000 1500,0"
       id="path2654"
       inkscape:connector-curvature="0" />
    <path
       d="m 74330,14480 -80,0 -40,20 -20,20 -30,60 -20,70 0,150 20,40 10,20 40,20 80,0 40,-20 20,-20 10,-40 0,-90 -10,-40 -20,-20 -40,-20 -80,0 -40,20 -10,20 -20,40"
       id="path2656"
       inkscape:connector-curvature="0" />
  </g>
  <g
     style="fill:#840000;fill-opacity:0;stroke:#840000;stroke-width:0;stroke-linecap:round;stroke-linejoin:round;stroke-opacity:1"
     id="g2658"
     transform="translate(-59625.226,-10020.741)" />
  <g
     style="fill:#ffffc2;fill-opacity:0;stroke:#ffffc2;stroke-width:0;stroke-linecap:round;stroke-linejoin:round;stroke-opacity:1"
     id="g2660"
     transform="translate(-59625.226,-10020.741)" />
  <g
     style="fill:#840000;fill-opacity:0.6;stroke:#840000;stroke-width:0;stroke-linecap:round;stroke-linejoin:round;stroke-opacity:1"
     id="g2666"
     transform="translate(-59625.226,-10020.741)" />
  <g
     style="fill:#840000;fill-opacity:0;stroke:#840000;stroke-width:0;stroke-linecap:round;stroke-linejoin:round;stroke-opacity:1"
     id="g2726"
     transform="translate(-59625.226,-10020.741)" />
  <g
     style="fill:#ffffc2;fill-opacity:0;stroke:#ffffc2;stroke-width:0;stroke-linecap:round;stroke-linejoin:round;stroke-opacity:1"
     id="g2728"
     transform="translate(-59625.226,-10020.741)" />
  <g
     style="fill:#840000;fill-opacity:0.6;stroke:#840000;stroke-width:0;stroke-linecap:round;stroke-linejoin:round;stroke-opacity:1"
     id="g2734"
     transform="translate(-59625.226,-10020.741)" />
</svg>
