<?xml version="1.0" encoding="UTF-8" standalone="no"?>
<!-- Created with Inkscape (http://www.inkscape.org/) -->

<svg
   xmlns:dc="http://purl.org/dc/elements/1.1/"
   xmlns:cc="http://creativecommons.org/ns#"
   xmlns:rdf="http://www.w3.org/1999/02/22-rdf-syntax-ns#"
   xmlns:svg="http://www.w3.org/2000/svg"
   xmlns="http://www.w3.org/2000/svg"
   xmlns:sodipodi="http://sodipodi.sourceforge.net/DTD/sodipodi-0.dtd"
   xmlns:inkscape="http://www.inkscape.org/namespaces/inkscape"
   width="27.07637mm"
   height="10.617188mm"
   viewBox="0 0 95.939895 37.619959"
   id="svg7810"
   version="1.1"
   inkscape:version="0.91 r13725"
   sodipodi:docname="RC.svg">
  <defs
     id="defs7812" />
  <sodipodi:namedview
     id="base"
     pagecolor="#ffffff"
     bordercolor="#666666"
     borderopacity="1.0"
     inkscape:pageopacity="0.0"
     inkscape:pageshadow="2"
     inkscape:zoom="0.35"
     inkscape:cx="-578.45862"
     inkscape:cy="-104.04717"
     inkscape:document-units="px"
     inkscape:current-layer="layer1"
     showgrid="false"
     inkscape:window-width="1855"
     inkscape:window-height="1056"
     inkscape:window-x="65"
     inkscape:window-y="24"
     inkscape:window-maximized="1"
     fit-margin-top="0"
     fit-margin-left="0"
     fit-margin-right="0"
     fit-margin-bottom="0" />
  <metadata
     id="metadata7815">
    <rdf:RDF>
      <cc:Work
         rdf:about="">
        <dc:format>image/svg+xml</dc:format>
        <dc:type
           rdf:resource="http://purl.org/dc/dcmitype/StillImage" />
        <dc:title></dc:title>
      </cc:Work>
    </rdf:RDF>
  </metadata>
  <g
     inkscape:label="Layer 1"
     inkscape:groupmode="layer"
     id="layer1"
     transform="translate(-254.8872,-390.69508)">
    <g
       transform="matrix(0.00899999,0,0,0.00899999,36.367439,245.25524)"
       style="fill:#840000;fill-opacity:0;stroke:#840000;stroke-width:200;stroke-linecap:round;stroke-linejoin:round;stroke-opacity:1"
       id="g810">
      <polyline
         fill="none;"
         points="30700,18550 32300,18550 "
         id="polyline812" />
      <polyline
         fill="none;"
         points="30700,17950 32300,17950 "
         id="polyline814" />
    </g>
    <g
       transform="matrix(0.00899999,0,0,0.00899999,36.367439,245.25524)"
       style="fill:#840000;fill-opacity:0;stroke:#840000;stroke-width:60;stroke-linecap:round;stroke-linejoin:round;stroke-opacity:1"
       id="g816">
      <path
         inkscape:connector-curvature="0"
         d="m 31500,17850 0,-1100"
         id="path818" />
      <path
         inkscape:connector-curvature="0"
         d="m 31500,18650 0,1100"
         id="path820" />
    </g>
    <g
       transform="matrix(0.00899999,0,0,0.00899999,36.367439,245.25524)"
       style="fill:#008484;fill-opacity:0;stroke:#008484;stroke-width:60;stroke-linecap:round;stroke-linejoin:round;stroke-opacity:1"
       id="g822">
      <path
         inkscape:connector-curvature="0"
         d="m 32380,19700 -280,0"
         id="path824" />
      <path
         inkscape:connector-curvature="0"
         d="m 32240,19700 0,-500 -50,70 -50,50 -40,20"
         id="path826" />
      <path
         inkscape:connector-curvature="0"
         d="m 32810,19360 0,340"
         id="path828" />
      <path
         inkscape:connector-curvature="0"
         d="m 32600,19360 0,260 20,50 50,30 70,0 50,-30 20,-20"
         id="path830" />
      <path
         inkscape:connector-curvature="0"
         d="m 33220,19430 -170,0"
         id="path832" />
      <path
         inkscape:connector-curvature="0"
         d="m 33050,19700 0,-500 240,0"
         id="path834" />
    </g>
    <g
       transform="matrix(0.00899999,0,0,0.00899999,36.367439,245.25524)"
       style="fill:#840000;fill-opacity:0;stroke:#840000;stroke-width:100;stroke-linecap:round;stroke-linejoin:round;stroke-opacity:1"
       id="g840">
      <rect
         x="27500"
         y="16350"
         width="2000"
         height="800"
         rx="0"
         id="rect842" />
    </g>
    <g
       transform="matrix(0.00899999,0,0,0.00899999,36.367439,245.25524)"
       style="fill:#840000;fill-opacity:0;stroke:#840000;stroke-width:60;stroke-linecap:round;stroke-linejoin:round;stroke-opacity:1"
       id="g844">
      <path
         inkscape:connector-curvature="0"
         d="m 27500,16750 -500,0"
         id="path846" />
      <path
         inkscape:connector-curvature="0"
         d="m 29500,16750 500,0"
         id="path848" />
    </g>
    <g
       transform="matrix(0.00899999,0,0,0.00899999,36.367439,245.25524)"
       style="fill:#008484;fill-opacity:0;stroke:#008484;stroke-width:60;stroke-linecap:round;stroke-linejoin:round;stroke-opacity:1"
       id="g850">
      <path
         inkscape:connector-curvature="0"
         d="m 27890,16510 -240,0 -20,230 20,-20 50,-20 120,0 40,20 30,20 20,50 0,120 -20,50 -30,20 -40,30 -120,0 -50,-30 -20,-20"
         id="path852" />
      <path
         inkscape:connector-curvature="0"
         d="m 28340,16510 -90,0 -50,20 -20,20 -50,80 -20,90 0,190 20,50 20,20 50,30 100,0 40,-30 30,-20 20,-50 0,-120 -20,-50 -30,-20 -40,-20 -100,0 -50,20 -20,20 -20,50"
         id="path854" />
      <path
         inkscape:connector-curvature="0"
         d="m 28700,16510 50,0 50,20 20,20 30,50 20,100 0,120 -20,90 -30,50 -20,20 -50,30 -50,0 -40,-30 -30,-20 -20,-50 -20,-90 0,-120 20,-100 20,-50 30,-20 40,-20"
         id="path856" />
      <path
         inkscape:connector-curvature="0"
         d="m 29370,17010 -160,-240"
         id="path858" />
      <path
         inkscape:connector-curvature="0"
         d="m 29090,17010 0,-500 190,0 50,20 20,20 20,50 0,70 -20,50 -20,20 -50,30 -190,0"
         id="path860" />
    </g>
    <g
       transform="matrix(0.00899999,0,0,0.00899999,36.367439,245.25524)"
       style="fill:#840000;fill-opacity:0;stroke:#840000;stroke-width:60;stroke-linecap:round;stroke-linejoin:round;stroke-opacity:1"
       id="g862">
      <path
         inkscape:connector-curvature="0"
         d="m 33350,16960 -30,30 -90,30 -60,0 -80,-30 -60,-50 -30,-60 -30,-120 0,-80 30,-120 30,-50 60,-60 80,-30 60,0 90,30 30,30"
         id="path864" />
      <path
         inkscape:connector-curvature="0"
         d="m 33600,17020 0,-600"
         id="path866" />
      <path
         inkscape:connector-curvature="0"
         d="m 33600,16710 350,0"
         id="path868" />
      <path
         inkscape:connector-curvature="0"
         d="m 33950,17020 0,-600"
         id="path870" />
      <path
         inkscape:connector-curvature="0"
         d="m 34200,16480 30,-30 60,-30 140,0 60,30 30,30 30,60 0,50 -30,90 -340,340 370,0"
         id="path872" />
    </g>
    <g
       transform="matrix(0.00899999,0,0,0.00899999,36.367439,245.25524)"
       style="fill:#840000;fill-opacity:0;stroke:#840000;stroke-width:100;stroke-linecap:round;stroke-linejoin:round;stroke-opacity:1"
       id="g874">
      <polyline
         fill="none;"
         points="32500,16750 32800,17290 34890,17290 34890,16750 34890,16210 32800,16210 32500,16750 "
         id="polyline876" />
    </g>
    <g
       transform="matrix(0.00899999,0,0,0.00899999,36.367439,245.25524)"
       style="fill:#840000;fill-opacity:0;stroke:#840000;stroke-width:60;stroke-linecap:round;stroke-linejoin:round;stroke-opacity:1"
       id="g878">
      <path
         inkscape:connector-curvature="0"
         d="m 25020,19450 -60,-30 -90,0 -80,30 -60,60 -30,50 -30,120 0,80 30,120 30,60 60,50 80,30 60,0 90,-30 30,-30 0,-200 -120,0"
         id="path880" />
      <path
         inkscape:connector-curvature="0"
         d="m 25300,20020 0,-600 350,600 0,-600"
         id="path882" />
      <path
         inkscape:connector-curvature="0"
         d="m 25930,20020 0,-600 150,0 80,30 60,60 30,50 30,120 0,80 -30,120 -30,60 -60,50 -80,30 -150,0"
         id="path884" />
    </g>
    <g
       transform="matrix(0.00899999,0,0,0.00899999,36.367439,245.25524)"
       style="fill:#840000;fill-opacity:0;stroke:#840000;stroke-width:100;stroke-linecap:round;stroke-linejoin:round;stroke-opacity:1"
       id="g886">
      <polyline
         fill="none;"
         points="26750,19750 26450,19210 24330,19210 24330,19750 24330,20290 26450,20290 26750,19750 "
         id="polyline888" />
    </g>
    <g
       transform="matrix(0.00899999,0,0,0.00899999,36.367439,245.25524)"
       style="fill:#008400;fill-opacity:0;stroke:#008400;stroke-width:60;stroke-linecap:round;stroke-linejoin:round;stroke-opacity:1"
       id="g892">
      <path
         inkscape:connector-curvature="0"
         d="m 26750,19750 4750,0"
         id="path894" />
    </g>
    <g
       transform="matrix(0.00899999,0,0,0.00899999,36.367439,245.25524)"
       style="fill:#840000;fill-opacity:0;stroke:#840000;stroke-width:60;stroke-linecap:round;stroke-linejoin:round;stroke-opacity:1"
       id="g896">
      <path
         inkscape:connector-curvature="0"
         d="m 24720,16420 140,600 110,-430 120,430 140,-600"
         id="path898" />
      <path
         inkscape:connector-curvature="0"
         d="m 25780,17020 -350,0"
         id="path900" />
      <path
         inkscape:connector-curvature="0"
         d="m 25610,17020 0,-600 -60,90 -60,50 -60,30"
         id="path902" />
    </g>
    <g
       transform="matrix(0.00899999,0,0,0.00899999,36.367439,245.25524)"
       style="fill:#840000;fill-opacity:0;stroke:#840000;stroke-width:100;stroke-linecap:round;stroke-linejoin:round;stroke-opacity:1"
       id="g904">
      <polyline
         fill="none;"
         points="26250,16750 25950,16210 24400,16210 24400,16750 24400,17290 25950,17290 26250,16750 "
         id="polyline906" />
    </g>
    <g
       transform="matrix(0.00899999,0,0,0.00899999,36.367439,245.25524)"
       style="fill:#008400;fill-opacity:0;stroke:#008400;stroke-width:60;stroke-linecap:round;stroke-linejoin:round;stroke-opacity:1"
       id="g910">
      <path
         inkscape:connector-curvature="0"
         d="m 26250,16750 750,0"
         id="path912" />
    </g>
    <g
       transform="matrix(0.00899999,0,0,0.00899999,36.367439,245.25524)"
       style="fill:#840000;fill-opacity:0;stroke:#840000;stroke-width:60;stroke-linecap:round;stroke-linejoin:round;stroke-opacity:1"
       id="g914">
      <path
         inkscape:connector-curvature="0"
         d="m 25080,18210 -30,30 -90,30 -60,0 -80,-30 -60,-50 -30,-60 -30,-120 0,-80 30,-120 30,-50 60,-60 80,-30 60,0 90,30 30,30"
         id="path916" />
      <path
         inkscape:connector-curvature="0"
         d="m 25330,18270 0,-600"
         id="path918" />
      <path
         inkscape:connector-curvature="0"
         d="m 25330,17960 350,0"
         id="path920" />
      <path
         inkscape:connector-curvature="0"
         d="m 25680,18270 0,-600"
         id="path922" />
      <path
         inkscape:connector-curvature="0"
         d="m 26280,18270 -350,0"
         id="path924" />
      <path
         inkscape:connector-curvature="0"
         d="m 26110,18270 0,-600 -60,90 -60,50 -60,30"
         id="path926" />
    </g>
    <g
       transform="matrix(0.00899999,0,0,0.00899999,36.367439,245.25524)"
       style="fill:#840000;fill-opacity:0;stroke:#840000;stroke-width:100;stroke-linecap:round;stroke-linejoin:round;stroke-opacity:1"
       id="g928">
      <polyline
         fill="none;"
         points="26750,18000 26450,17460 24360,17460 24360,18000 24360,18540 26450,18540 26750,18000 "
         id="polyline930" />
    </g>
    <g
       transform="matrix(0.00899999,0,0,0.00899999,36.367439,245.25524)"
       style="fill:#008400;fill-opacity:0;stroke:#008400;stroke-width:60;stroke-linecap:round;stroke-linejoin:round;stroke-opacity:1"
       id="g934">
      <path
         inkscape:connector-curvature="0"
         d="m 27000,16750 0,1250"
         id="path936" />
      <path
         inkscape:connector-curvature="0"
         d="m 27000,18000 -250,0"
         id="path938" />
      <path
         inkscape:connector-curvature="0"
         d="m 30000,16750 2500,0"
         id="path940" />
    </g>
    <g
       transform="matrix(0.00899999,0,0,0.00899999,36.367439,245.25524)"
       style="fill:#008400;fill-opacity:1;stroke:#008400;stroke-width:100;stroke-linecap:round;stroke-linejoin:round;stroke-opacity:1"
       id="g944">
      <circle
         cx="31500"
         cy="16750"
         r="200"
         id="circle946" />
    </g>
  </g>
</svg>
