<?xml version="1.0" encoding="UTF-8" standalone="no"?>
<svg
   xmlns:dc="http://purl.org/dc/elements/1.1/"
   xmlns:cc="http://creativecommons.org/ns#"
   xmlns:rdf="http://www.w3.org/1999/02/22-rdf-syntax-ns#"
   xmlns:svg="http://www.w3.org/2000/svg"
   xmlns="http://www.w3.org/2000/svg"
   xmlns:sodipodi="http://sodipodi.sourceforge.net/DTD/sodipodi-0.dtd"
   xmlns:inkscape="http://www.inkscape.org/namespaces/inkscape"
   version="1.1"
   width="6.2478471cm"
   height="3.6668899cm"
   viewBox="0 0 24597.84 14436.588"
   id="svg2"
   inkscape:version="0.91 r13725"
   sodipodi:docname="colpitts.svg">
  <metadata
     id="metadata1200">
    <rdf:RDF>
      <cc:Work
         rdf:about="">
        <dc:format>image/svg+xml</dc:format>
        <dc:type
           rdf:resource="http://purl.org/dc/dcmitype/StillImage" />
        <dc:title>SVG Picture created as filter.sch.svg date 2016/06/12 19:07:46 </dc:title>
      </cc:Work>
    </rdf:RDF>
  </metadata>
  <defs
     id="defs1198" />
  <sodipodi:namedview
     pagecolor="#ffffff"
     bordercolor="#666666"
     borderopacity="1"
     objecttolerance="10"
     gridtolerance="10"
     guidetolerance="10"
     inkscape:pageopacity="0"
     inkscape:pageshadow="2"
     inkscape:window-width="891"
     inkscape:window-height="373"
     id="namedview1196"
     showgrid="false"
     fit-margin-top="0"
     fit-margin-left="0"
     fit-margin-right="0"
     fit-margin-bottom="0"
     inkscape:zoom="4.5155254"
     inkscape:cx="200.69635"
     inkscape:cy="59.676743"
     inkscape:window-x="406"
     inkscape:window-y="104"
     inkscape:window-maximized="0"
     inkscape:current-layer="g768" />
  <title
     id="title4">SVG Picture created as filter.sch.svg date 2016/06/12 19:07:46 </title>
  <desc
     id="desc6">Picture generated by Eeschema-SVG </desc>
  <g
     style="fill:#000000;fill-opacity:1;stroke:#000000;stroke-linecap:round;stroke-linejoin:round;stroke-opacity:1"
     id="g8"
     transform="translate(-29738.066,-7534.3926)" />
  <g
     style="fill:#000000;fill-opacity:0;stroke:#000000;stroke-width:60;stroke-linecap:round;stroke-linejoin:round;stroke-opacity:1"
     id="g10"
     transform="translate(-29738.066,-7534.3926)" />
  <g
     style="fill:#840000;fill-opacity:0;stroke:#840000;stroke-width:0;stroke-linecap:round;stroke-linejoin:round;stroke-opacity:1"
     id="g34"
     transform="translate(-29738.066,-7534.3926)" />
  <g
     style="fill:#840000;fill-opacity:0;stroke:#840000;stroke-width:0;stroke-linecap:round;stroke-linejoin:round;stroke-opacity:1"
     id="g98"
     transform="translate(-29738.066,-7534.3926)" />
  <g
     style="fill:#008484;fill-opacity:0;stroke:#008484;stroke-width:0;stroke-linecap:round;stroke-linejoin:round;stroke-opacity:1"
     id="g120"
     transform="translate(-29738.066,-7534.3926)" />
  <g
     style="fill:#840000;fill-opacity:0;stroke:#840000;stroke-width:0;stroke-linecap:round;stroke-linejoin:round;stroke-opacity:1"
     id="g122"
     transform="translate(-29738.066,-7534.3926)" />
  <g
     style="fill:#008484;fill-opacity:0;stroke:#008484;stroke-width:0;stroke-linecap:round;stroke-linejoin:round;stroke-opacity:1"
     id="g142"
     transform="translate(-29738.066,-7534.3926)" />
  <g
     style="fill:#840000;fill-opacity:0;stroke:#840000;stroke-width:0;stroke-linecap:round;stroke-linejoin:round;stroke-opacity:1"
     id="g144"
     transform="translate(-29738.066,-7534.3926)" />
  <g
     style="fill:#ffffc2;fill-opacity:0;stroke:#ffffc2;stroke-width:0;stroke-linecap:round;stroke-linejoin:round;stroke-opacity:1"
     id="g146"
     transform="translate(-29738.066,-7534.3926)" />
  <g
     style="fill:#840000;fill-opacity:0.6;stroke:#840000;stroke-width:0;stroke-linecap:round;stroke-linejoin:round;stroke-opacity:1"
     id="g152"
     transform="translate(-29738.066,-7534.3926)" />
  <g
     style="fill:#0000c2;fill-opacity:0;stroke:#0000c2;stroke-width:0;stroke-linecap:round;stroke-linejoin:round;stroke-opacity:1"
     id="g266"
     transform="translate(-29738.066,-7534.3926)" />
  <g
     style="fill:#840000;fill-opacity:0;stroke:#840000;stroke-width:0;stroke-linecap:round;stroke-linejoin:round;stroke-opacity:1"
     id="g268"
     transform="translate(-29738.066,-7534.3926)" />
  <g
     style="fill:#008484;fill-opacity:0;stroke:#008484;stroke-width:0;stroke-linecap:round;stroke-linejoin:round;stroke-opacity:1"
     id="g298"
     transform="translate(-29738.066,-7534.3926)" />
  <g
     style="fill:#840000;fill-opacity:0;stroke:#840000;stroke-width:0;stroke-linecap:round;stroke-linejoin:round;stroke-opacity:1"
     id="g300"
     transform="translate(-29738.066,-7534.3926)" />
  <g
     style="fill:#840000;fill-opacity:0;stroke:#840000;stroke-width:0;stroke-linecap:round;stroke-linejoin:round;stroke-opacity:1"
     id="g370"
     transform="translate(-29738.066,-7534.3926)" />
  <g
     style="fill:#840000;fill-opacity:0;stroke:#840000;stroke-width:0;stroke-linecap:round;stroke-linejoin:round;stroke-opacity:1"
     id="g434"
     transform="translate(-29738.066,-7534.3926)" />
  <g
     style="fill:#008484;fill-opacity:0;stroke:#008484;stroke-width:0;stroke-linecap:round;stroke-linejoin:round;stroke-opacity:1"
     id="g456"
     transform="translate(-29738.066,-7534.3926)" />
  <g
     style="fill:#840000;fill-opacity:0;stroke:#840000;stroke-width:0;stroke-linecap:round;stroke-linejoin:round;stroke-opacity:1"
     id="g458"
     transform="translate(-29738.066,-7534.3926)" />
  <g
     style="fill:#008484;fill-opacity:0;stroke:#008484;stroke-width:0;stroke-linecap:round;stroke-linejoin:round;stroke-opacity:1"
     id="g478"
     transform="translate(-29738.066,-7534.3926)" />
  <g
     style="fill:#840000;fill-opacity:0;stroke:#840000;stroke-width:0;stroke-linecap:round;stroke-linejoin:round;stroke-opacity:1"
     id="g480"
     transform="translate(-29738.066,-7534.3926)" />
  <g
     style="fill:#ffffc2;fill-opacity:0;stroke:#ffffc2;stroke-width:0;stroke-linecap:round;stroke-linejoin:round;stroke-opacity:1"
     id="g482"
     transform="translate(-29738.066,-7534.3926)" />
  <g
     style="fill:#840000;fill-opacity:0.6;stroke:#840000;stroke-width:0;stroke-linecap:round;stroke-linejoin:round;stroke-opacity:1"
     id="g488"
     transform="translate(-29738.066,-7534.3926)" />
  <g
     style="fill:#840000;fill-opacity:0;stroke:#840000;stroke-width:0;stroke-linecap:round;stroke-linejoin:round;stroke-opacity:1"
     id="g548"
     transform="translate(-29738.066,-7534.3926)" />
  <g
     style="fill:#008484;fill-opacity:0;stroke:#008484;stroke-width:0;stroke-linecap:round;stroke-linejoin:round;stroke-opacity:1"
     id="g578"
     transform="translate(-29738.066,-7534.3926)" />
  <g
     style="fill:#840000;fill-opacity:0;stroke:#840000;stroke-width:0;stroke-linecap:round;stroke-linejoin:round;stroke-opacity:1"
     id="g580"
     transform="translate(-29738.066,-7534.3926)" />
  <g
     style="fill:#840000;fill-opacity:0;stroke:#840000;stroke-width:60;stroke-linecap:round;stroke-linejoin:round;stroke-opacity:1"
     id="g626"
     transform="translate(-29738.066,-7534.3926)" />
  <g
     style="fill:#840000;fill-opacity:0;stroke:#840000;stroke-width:60;stroke-linecap:round;stroke-linejoin:round;stroke-opacity:1"
     id="g680"
     transform="translate(-29738.066,-7534.3926)">
    <path
       d="m 46920,17670 200,600 200,-600"
       id="path682"
       inkscape:connector-curvature="0" />
    <path
       d="m 47510,18040 460,0"
       id="path684"
       inkscape:connector-curvature="0" />
  </g>
  <g
     style="fill:#840000;fill-opacity:0;stroke:#840000;stroke-width:100;stroke-linecap:round;stroke-linejoin:round;stroke-opacity:1"
     id="g686"
     transform="translate(-29738.066,-7534.3926)">
    <polyline
       fill="none;"
       points="46500,18000 46800,18540 48340,18540 48340,18000 48340,17460 46800,17460 46500,18000 "
       id="polyline688" />
  </g>
  <g
     style="fill:#840000;fill-opacity:0;stroke:#840000;stroke-width:60;stroke-linecap:round;stroke-linejoin:round;stroke-opacity:1"
     id="g690"
     transform="translate(-29738.066,-7534.3926)">
    <path
       d="m 46920,11670 200,600 200,-600"
       id="path692"
       inkscape:connector-curvature="0" />
    <path
       d="m 47510,12040 460,0"
       id="path694"
       inkscape:connector-curvature="0" />
    <path
       d="m 47740,12270 0,-460"
       id="path696"
       inkscape:connector-curvature="0" />
  </g>
  <g
     style="fill:#840000;fill-opacity:0;stroke:#840000;stroke-width:100;stroke-linecap:round;stroke-linejoin:round;stroke-opacity:1"
     id="g698"
     transform="translate(-29738.066,-7534.3926)">
    <polyline
       fill="none;"
       points="46500,12000 46800,12540 48340,12540 48340,12000 48340,11460 46800,11460 46500,12000 "
       id="polyline700" />
  </g>
  <g
     style="fill:#840000;fill-opacity:0;stroke:#840000;stroke-width:60;stroke-linecap:round;stroke-linejoin:round;stroke-opacity:1"
     id="g702"
     transform="translate(-29738.066,-7534.3926)">
    <path
       d="m 37950,19730 -30,60 0,90 30,80 60,60 50,30 120,30 80,0 120,-30 60,-30 50,-60 30,-80 0,-60 -30,-90 -30,-30 -200,0 0,120"
       id="path704"
       inkscape:connector-curvature="0" />
    <path
       d="m 38520,19450 -600,0 600,-350 -600,0"
       id="path706"
       inkscape:connector-curvature="0" />
    <path
       d="m 38520,18820 -600,0 0,-150 30,-80 60,-60 50,-30 120,-30 80,0 120,30 60,30 50,60 30,80 0,150"
       id="path708"
       inkscape:connector-curvature="0" />
  </g>
  <g
     style="fill:#840000;fill-opacity:0;stroke:#840000;stroke-width:100;stroke-linecap:round;stroke-linejoin:round;stroke-opacity:1"
     id="g710"
     transform="translate(-29738.066,-7534.3926)">
    <polyline
       fill="none;"
       points="38250,18000 37710,18300 37710,20420 38250,20420 38790,20420 38790,18300 38250,18000 "
       id="polyline712" />
  </g>
  <g
     style="fill:#840000;fill-opacity:0;stroke:#840000;stroke-width:0;stroke-linecap:round;stroke-linejoin:round;stroke-opacity:1"
     id="g730"
     transform="translate(-29738.066,-7534.3926)" />
  <g
     style="fill:#840000;fill-opacity:0;stroke:#840000;stroke-width:100;stroke-linecap:round;stroke-linejoin:round;stroke-opacity:1"
     id="g732"
     transform="translate(-29738.066,-7534.3926)">
    <rect
       x="39250"
       y="13600"
       width="2000"
       height="800"
       rx="0"
       id="rect734" />
  </g>
  <g
     style="fill:#840000;fill-opacity:0;stroke:#840000;stroke-width:60;stroke-linecap:round;stroke-linejoin:round;stroke-opacity:1"
     id="g736"
     transform="translate(-29738.066,-7534.3926)">
    <path
       d="m 41250,14000 500,0"
       id="path738"
       inkscape:connector-curvature="0" />
    <path
       d="m 39250,14000 -500,0"
       id="path740"
       inkscape:connector-curvature="0" />
  </g>
  <g
     style="fill:#008484;fill-opacity:0;stroke:#008484;stroke-width:60;stroke-linecap:round;stroke-linejoin:round;stroke-opacity:1"
     id="g742"
     transform="translate(-29738.066,-7534.3926)">
    <path
       d="m 40140,14200 -280,0"
       id="path744"
       inkscape:connector-curvature="0" />
    <path
       d="m 40000,14200 0,-500 -50,70 -50,50 -40,20"
       id="path746"
       inkscape:connector-curvature="0" />
    <path
       d="m 40360,14200 0,-500"
       id="path748"
       inkscape:connector-curvature="0" />
    <path
       d="m 40640,14200 -210,-290"
       id="path750"
       inkscape:connector-curvature="0" />
    <path
       d="m 40640,13700 -280,280"
       id="path752"
       inkscape:connector-curvature="0" />
  </g>
  <g
     style="fill:#008484;fill-opacity:0;stroke:#008484;stroke-width:0;stroke-linecap:round;stroke-linejoin:round;stroke-opacity:1"
     id="g754"
     transform="translate(-29738.066,-7534.3926)" />
  <g
     style="fill:#840000;fill-opacity:0;stroke:#840000;stroke-width:0;stroke-linecap:round;stroke-linejoin:round;stroke-opacity:1"
     id="g756"
     transform="translate(-29738.066,-7534.3926)" />
  <g
     style="fill:#840000;fill-opacity:0;stroke:#840000;stroke-width:100;stroke-linecap:round;stroke-linejoin:round;stroke-opacity:1"
     id="g758"
     transform="translate(-29738.066,-7534.3926)">
    <rect
       x="36750"
       y="8850"
       width="2000"
       height="800"
       rx="0"
       id="rect760" />
  </g>
  <g
     style="fill:#840000;fill-opacity:0;stroke:#840000;stroke-width:60;stroke-linecap:round;stroke-linejoin:round;stroke-opacity:1"
     id="g762"
     transform="translate(-29738.066,-7534.3926)">
    <path
       d="m 36750,9250 -500,0"
       id="path764"
       inkscape:connector-curvature="0" />
    <path
       d="m 38750,9250 500,0"
       id="path766"
       inkscape:connector-curvature="0" />
  </g>
  <g
     style="fill:#008484;fill-opacity:0;stroke:#008484;stroke-width:60;stroke-linecap:round;stroke-linejoin:round;stroke-opacity:1"
     id="g768"
     transform="translate(-29738.066,-7534.3926)">
    <path
       d="m 37640,9510 -280,0"
       id="path770"
       inkscape:connector-curvature="0" />
    <path
       d="m 37500,9510 0,-500 -50,70 -50,50 -40,20"
       id="path772"
       inkscape:connector-curvature="0" />
    <path
       d="m 37860,9510 0,-500"
       id="path774"
       inkscape:connector-curvature="0" />
    <path
       d="m 38140,9510 -210,-290"
       id="path776"
       inkscape:connector-curvature="0" />
    <path
       d="m 38140,9010 -280,280"
       id="path778"
       inkscape:connector-curvature="0" />
    <g
       style="fill:#840000;fill-opacity:0;stroke:#840000;stroke-width:60;stroke-linecap:round;stroke-linejoin:round;stroke-opacity:1"
       id="g184"
       transform="translate(8775.6948,-7017.2614)">
      <path
         d="m 43600,22210 -30,30 -90,30 -60,0 -80,-30 -60,-50 -30,-60 -30,-120 0,-80 30,-120 30,-50 60,-60 80,-30 60,0 90,30 30,30"
         id="path186"
         inkscape:connector-curvature="0" />
      <path
         d="m 43850,22270 0,-600"
         id="path188"
         inkscape:connector-curvature="0" />
      <path
         d="m 43850,21960 350,0"
         id="path190"
         inkscape:connector-curvature="0" />
      <path
         d="m 44200,22270 0,-600"
         id="path192"
         inkscape:connector-curvature="0" />
      <path
         d="m 44800,22270 -350,0"
         id="path194"
         inkscape:connector-curvature="0" />
      <path
         d="m 44630,22270 0,-600 -60,90 -60,50 -60,30"
         id="path196"
         inkscape:connector-curvature="0" />
    </g>
    <g
       style="fill:#840000;fill-opacity:0;stroke:#840000;stroke-width:100;stroke-linecap:round;stroke-linejoin:round;stroke-opacity:1"
       id="g198"
       transform="translate(8775.6948,-7017.2614)">
      <polyline
         fill="none;"
         points="42750,22000 43050,22540 45140,22540 45140,22000 45140,21460 43050,21460 42750,22000 "
         id="polyline200" />
    </g>
  </g>
  <g
     style="fill:#008484;fill-opacity:0;stroke:#008484;stroke-width:0;stroke-linecap:round;stroke-linejoin:round;stroke-opacity:1"
     id="g780"
     transform="translate(-29738.066,-7534.3926)" />
  <g
     style="fill:#840000;fill-opacity:0;stroke:#840000;stroke-width:0;stroke-linecap:round;stroke-linejoin:round;stroke-opacity:1"
     id="g782"
     transform="translate(-29738.066,-7534.3926)" />
  <g
     style="fill:#ffffc2;fill-opacity:0;stroke:#ffffc2;stroke-width:0;stroke-linecap:round;stroke-linejoin:round;stroke-opacity:1"
     id="g784"
     transform="translate(-29738.066,-7534.3926)" />
  <g
     style="fill:#ffffc2;fill-opacity:0.6;stroke:#ffffc2;stroke-width:0;stroke-linecap:round;stroke-linejoin:round;stroke-opacity:1"
     id="g786"
     transform="translate(-29738.066,-7534.3926)">
    <polyline
       style="fill-rule:evenodd"
       points="44500,17000 48500,15000 44500,13000 44500,17000 "
       id="polyline788" />
  </g>
  <g
     style="fill:#840000;fill-opacity:0.6;stroke:#840000;stroke-width:0;stroke-linecap:round;stroke-linejoin:round;stroke-opacity:1"
     id="g790"
     transform="translate(-29738.066,-7534.3926)" />
  <g
     style="fill:#840000;fill-opacity:0;stroke:#840000;stroke-width:60;stroke-linecap:round;stroke-linejoin:round;stroke-opacity:1"
     id="g792"
     transform="translate(-29738.066,-7534.3926)">
    <polyline
       fill="none;"
       points="44500,17000 48500,15000 44500,13000 44500,17000 "
       id="polyline794" />
    <path
       d="m 45500,13500 0,-1500"
       id="path796"
       inkscape:connector-curvature="0" />
  </g>
  <g
     style="fill:#008484;fill-opacity:0;stroke:#008484;stroke-width:60;stroke-linecap:round;stroke-linejoin:round;stroke-opacity:1"
     id="g798"
     transform="translate(-29738.066,-7534.3926)">
    <path
       d="m 45280,14400 400,-130 -400,-130"
       id="path800"
       inkscape:connector-curvature="0" />
    <path
       d="m 45530,14000 0,-300"
       id="path802"
       inkscape:connector-curvature="0" />
  </g>
  <g
     style="fill:#840000;fill-opacity:0;stroke:#840000;stroke-width:60;stroke-linecap:round;stroke-linejoin:round;stroke-opacity:1"
     id="g804"
     transform="translate(-29738.066,-7534.3926)">
    <path
       d="m 45110,12670 270,0"
       id="path806"
       inkscape:connector-curvature="0" />
    <path
       d="m 44960,12770 290,90 0,-240"
       id="path808"
       inkscape:connector-curvature="0" />
    <path
       d="m 45500,16500 0,1500"
       id="path810"
       inkscape:connector-curvature="0" />
  </g>
  <g
     style="fill:#008484;fill-opacity:0;stroke:#008484;stroke-width:60;stroke-linecap:round;stroke-linejoin:round;stroke-opacity:1"
     id="g812"
     transform="translate(-29738.066,-7534.3926)">
    <path
       d="m 45280,16360 400,-130 -400,-130"
       id="path814"
       inkscape:connector-curvature="0" />
    <path
       d="m 45530,15960 0,-300"
       id="path816"
       inkscape:connector-curvature="0" />
    <path
       d="m 45680,15810 -300,0"
       id="path818"
       inkscape:connector-curvature="0" />
  </g>
  <g
     style="fill:#840000;fill-opacity:0;stroke:#840000;stroke-width:60;stroke-linecap:round;stroke-linejoin:round;stroke-opacity:1"
     id="g820"
     transform="translate(-29738.066,-7534.3926)">
    <path
       d="m 44980,17380 0,-260 400,170"
       id="path822"
       inkscape:connector-curvature="0" />
    <path
       d="m 44500,14000 -1500,0"
       id="path824"
       inkscape:connector-curvature="0" />
  </g>
  <g
     style="fill:#008484;fill-opacity:0;stroke:#008484;stroke-width:60;stroke-linecap:round;stroke-linejoin:round;stroke-opacity:1"
     id="g826"
     transform="translate(-29738.066,-7534.3926)">
    <path
       d="m 44700,14030 300,0"
       id="path828"
       inkscape:connector-curvature="0" />
  </g>
  <g
     style="fill:#840000;fill-opacity:0;stroke:#840000;stroke-width:60;stroke-linecap:round;stroke-linejoin:round;stroke-opacity:1"
     id="g830"
     transform="translate(-29738.066,-7534.3926)">
    <path
       d="m 43640,13520 20,-20 30,-20 100,0 40,20 20,20 10,40 0,40 -10,50 -230,230 240,0"
       id="path832"
       inkscape:connector-curvature="0" />
    <path
       d="m 44500,16000 -1500,0"
       id="path834"
       inkscape:connector-curvature="0" />
  </g>
  <g
     style="fill:#008484;fill-opacity:0;stroke:#008484;stroke-width:60;stroke-linecap:round;stroke-linejoin:round;stroke-opacity:1"
     id="g836"
     transform="translate(-29738.066,-7534.3926)">
    <path
       d="m 44700,16030 300,0"
       id="path838"
       inkscape:connector-curvature="0" />
    <path
       d="m 44850,16180 0,-300"
       id="path840"
       inkscape:connector-curvature="0" />
  </g>
  <g
     style="fill:#840000;fill-opacity:0;stroke:#840000;stroke-width:60;stroke-linecap:round;stroke-linejoin:round;stroke-opacity:1"
     id="g842"
     transform="translate(-29738.066,-7534.3926)">
    <path
       d="m 43620,15480 240,0 -130,150 60,0 40,20 20,20 10,40 0,90 -10,40 -20,20 -40,20 -120,0 -30,-20 -20,-20"
       id="path844"
       inkscape:connector-curvature="0" />
    <path
       d="m 48500,15000 1500,0"
       id="path846"
       inkscape:connector-curvature="0" />
    <path
       d="m 49330,14480 -80,0 -40,20 -20,20 -30,60 -20,70 0,150 20,40 10,20 40,20 80,0 40,-20 20,-20 10,-40 0,-90 -10,-40 -20,-20 -40,-20 -80,0 -40,20 -10,20 -20,40"
       id="path848"
       inkscape:connector-curvature="0" />
  </g>
  <g
     style="fill:#840000;fill-opacity:0;stroke:#840000;stroke-width:0;stroke-linecap:round;stroke-linejoin:round;stroke-opacity:1"
     id="g850"
     transform="translate(-29738.066,-7534.3926)" />
  <g
     style="fill:#840000;fill-opacity:0;stroke:#840000;stroke-width:200;stroke-linecap:round;stroke-linejoin:round;stroke-opacity:1"
     id="g852"
     transform="translate(-29738.066,-7534.3926)">
    <polyline
       fill="none;"
       points="31200,15800 32800,15800 "
       id="polyline854" />
    <polyline
       fill="none;"
       points="31200,15200 32800,15200 "
       id="polyline856" />
  </g>
  <g
     style="fill:#840000;fill-opacity:0;stroke:#840000;stroke-width:60;stroke-linecap:round;stroke-linejoin:round;stroke-opacity:1"
     id="g858"
     transform="translate(-29738.066,-7534.3926)">
    <path
       d="m 32000,15100 0,-1100"
       id="path860"
       inkscape:connector-curvature="0" />
    <path
       d="m 32000,15900 0,1100"
       id="path862"
       inkscape:connector-curvature="0" />
  </g>
  <g
     style="fill:#008484;fill-opacity:0;stroke:#008484;stroke-width:60;stroke-linecap:round;stroke-linejoin:round;stroke-opacity:1"
     id="g864"
     transform="translate(-29738.066,-7534.3926)">
    <path
       d="m 31150,16400 -20,20 -70,30 -50,0 -70,-30 -50,-50 -20,-40 -20,-100 0,-70 20,-90 20,-50 50,-50 70,-20 50,0 70,20 20,20"
       id="path866"
       inkscape:connector-curvature="0" />
    <path
       d="m 31630,16450 -280,0"
       id="path868"
       inkscape:connector-curvature="0" />
    <path
       d="m 31490,16450 0,-500 -50,70 -50,50 -40,20"
       id="path870"
       inkscape:connector-curvature="0" />
    <path
       d="m 33120,16400 20,20 -20,30 -20,-30 20,-20 0,50"
       id="path872"
       inkscape:connector-curvature="0" />
    <path
       d="m 33620,16450 -280,0"
       id="path874"
       inkscape:connector-curvature="0" />
    <path
       d="m 33480,16450 0,-500 -50,70 -50,50 -40,20"
       id="path876"
       inkscape:connector-curvature="0" />
    <path
       d="m 34050,16110 0,340"
       id="path878"
       inkscape:connector-curvature="0" />
    <path
       d="m 33840,16110 0,260 20,50 50,30 70,0 50,-30 20,-20"
       id="path880"
       inkscape:connector-curvature="0" />
    <path
       d="m 34460,16180 -170,0"
       id="path882"
       inkscape:connector-curvature="0" />
    <path
       d="m 34290,16450 0,-500 240,0"
       id="path884"
       inkscape:connector-curvature="0" />
  </g>
  <g
     style="fill:#008484;fill-opacity:0;stroke:#008484;stroke-width:0;stroke-linecap:round;stroke-linejoin:round;stroke-opacity:1"
     id="g886"
     transform="translate(-29738.066,-7534.3926)" />
  <g
     style="fill:#840000;fill-opacity:0;stroke:#840000;stroke-width:0;stroke-linecap:round;stroke-linejoin:round;stroke-opacity:1"
     id="g888"
     transform="translate(-29738.066,-7534.3926)" />
  <g
     style="fill:#840000;fill-opacity:0;stroke:#840000;stroke-width:200;stroke-linecap:round;stroke-linejoin:round;stroke-opacity:1"
     id="g890"
     transform="translate(-29738.066,-7534.3926)">
    <polyline
       fill="none;"
       points="39050,15200 37450,15200 "
       id="polyline892" />
    <polyline
       fill="none;"
       points="39050,15800 37450,15800 "
       id="polyline894" />
  </g>
  <g
     style="fill:#840000;fill-opacity:0;stroke:#840000;stroke-width:60;stroke-linecap:round;stroke-linejoin:round;stroke-opacity:1"
     id="g896"
     transform="translate(-29738.066,-7534.3926)">
    <path
       d="m 38250,15900 0,1100"
       id="path898"
       inkscape:connector-curvature="0" />
    <path
       d="m 38250,15100 0,-1100"
       id="path900"
       inkscape:connector-curvature="0" />
  </g>
  <g
     style="fill:#008484;fill-opacity:0;stroke:#008484;stroke-width:60;stroke-linecap:round;stroke-linejoin:round;stroke-opacity:1"
     id="g902"
     transform="translate(-29738.066,-7534.3926)">
    <path
       d="m 36920,16460 -20,20 -70,30 -50,0 -70,-30 -50,-50 -20,-40 -20,-100 0,-70 20,-90 20,-50 50,-50 70,-20 50,0 70,20 20,20"
       id="path904"
       inkscape:connector-curvature="0" />
    <path
       d="m 37120,16050 20,-20 50,-20 120,0 40,20 30,20 20,50 0,50 -20,70 -290,290 310,0"
       id="path906"
       inkscape:connector-curvature="0" />
    <path
       d="m 39020,16460 20,20 -20,30 -20,-30 20,-20 0,50"
       id="path908"
       inkscape:connector-curvature="0" />
    <path
       d="m 39520,16510 -280,0"
       id="path910"
       inkscape:connector-curvature="0" />
    <path
       d="m 39380,16510 0,-500 -50,70 -50,50 -40,20"
       id="path912"
       inkscape:connector-curvature="0" />
    <path
       d="m 39950,16170 0,340"
       id="path914"
       inkscape:connector-curvature="0" />
    <path
       d="m 39740,16170 0,260 20,50 50,30 70,0 50,-30 20,-20"
       id="path916"
       inkscape:connector-curvature="0" />
    <path
       d="m 40360,16240 -170,0"
       id="path918"
       inkscape:connector-curvature="0" />
    <path
       d="m 40190,16510 0,-500 240,0"
       id="path920"
       inkscape:connector-curvature="0" />
  </g>
  <g
     style="fill:#008484;fill-opacity:0;stroke:#008484;stroke-width:0;stroke-linecap:round;stroke-linejoin:round;stroke-opacity:1"
     id="g922"
     transform="translate(-29738.066,-7534.3926)" />
  <g
     style="fill:#840000;fill-opacity:0;stroke:#840000;stroke-width:0;stroke-linecap:round;stroke-linejoin:round;stroke-opacity:1"
     id="g924"
     transform="translate(-29738.066,-7534.3926)" />
  <g
     style="fill:#840000;fill-opacity:0;stroke:#840000;stroke-width:100;stroke-linecap:round;stroke-linejoin:round;stroke-opacity:1"
     id="g926"
     transform="translate(-29738.066,-7534.3926)">
    <rect
       x="44250"
       y="10350"
       width="2000"
       height="800"
       rx="0"
       id="rect928" />
  </g>
  <g
     style="fill:#840000;fill-opacity:0;stroke:#840000;stroke-width:60;stroke-linecap:round;stroke-linejoin:round;stroke-opacity:1"
     id="g930"
     transform="translate(-29738.066,-7534.3926)">
    <path
       d="m 46250,10750 500,0"
       id="path932"
       inkscape:connector-curvature="0" />
    <path
       d="m 44250,10750 -500,0"
       id="path934"
       inkscape:connector-curvature="0" />
  </g>
  <g
     style="fill:#008484;fill-opacity:0;stroke:#008484;stroke-width:60;stroke-linecap:round;stroke-linejoin:round;stroke-opacity:1"
     id="g936"
     transform="translate(-29738.066,-7534.3926)">
    <path
       d="m 44760,10450 -240,0 -20,230 20,-20 50,-20 120,0 40,20 30,20 20,50 0,120 -20,50 -30,20 -40,30 -120,0 -50,-30 -20,-20"
       id="path938"
       inkscape:connector-curvature="0" />
    <path
       d="m 45000,10900 20,20 -20,30 -20,-30 20,-20 0,50"
       id="path940"
       inkscape:connector-curvature="0" />
    <path
       d="m 45500,10950 -280,0"
       id="path942"
       inkscape:connector-curvature="0" />
    <path
       d="m 45360,10950 0,-500 -50,70 -50,50 -40,20"
       id="path944"
       inkscape:connector-curvature="0" />
    <path
       d="m 45720,10950 0,-500"
       id="path946"
       inkscape:connector-curvature="0" />
    <path
       d="m 46000,10950 -210,-290"
       id="path948"
       inkscape:connector-curvature="0" />
    <path
       d="m 46000,10450 -280,280"
       id="path950"
       inkscape:connector-curvature="0" />
  </g>
  <g
     style="fill:#008484;fill-opacity:0;stroke:#008484;stroke-width:0;stroke-linecap:round;stroke-linejoin:round;stroke-opacity:1"
     id="g952"
     transform="translate(-29738.066,-7534.3926)" />
  <g
     style="fill:#840000;fill-opacity:0;stroke:#840000;stroke-width:0;stroke-linecap:round;stroke-linejoin:round;stroke-opacity:1"
     id="g954"
     transform="translate(-29738.066,-7534.3926)" />
  <g
     style="fill:#840000;fill-opacity:0;stroke:#840000;stroke-width:60;stroke-linecap:round;stroke-linejoin:round;stroke-opacity:1"
     id="g956"
     transform="translate(-29738.066,-7534.3926)">
    <path
       d="m 36999.9,13990.4 a 500,500 0 0 0 -999.8,0"
       id="path958"
       inkscape:connector-curvature="0" />
    <path
       d="m 35999.9,13990.2 a 510,510 0 0 0 -1019.8,0"
       id="path960"
       inkscape:connector-curvature="0" />
    <path
       d="m 34999.9,13990.2 a 510,510 0 0 0 -1019.8,0"
       id="path962"
       inkscape:connector-curvature="0" />
    <path
       d="m 33999.9,13990.8 a 480,480 0 0 0 -959.8,0"
       id="path964"
       inkscape:connector-curvature="0" />
    <path
       d="m 33000,14000 -1000,0"
       id="path966"
       inkscape:connector-curvature="0" />
    <path
       d="m 37000,14000 1000,0"
       id="path968"
       inkscape:connector-curvature="0" />
  </g>
  <g
     style="fill:#008484;fill-opacity:0;stroke:#008484;stroke-width:60;stroke-linecap:round;stroke-linejoin:round;stroke-opacity:1"
     id="g970"
     transform="translate(-29738.066,-7534.3926)">
    <path
       d="m 35160,14760 -240,0 0,-500"
       id="path972"
       inkscape:connector-curvature="0" />
    <path
       d="m 34540,13260 -280,0"
       id="path974"
       inkscape:connector-curvature="0" />
    <path
       d="m 34400,13260 0,-500 -50,70 -50,50 -40,20"
       id="path976"
       inkscape:connector-curvature="0" />
    <path
       d="m 34760,13260 0,-340"
       id="path978"
       inkscape:connector-curvature="0" />
    <path
       d="m 34760,12970 20,-20 50,-30 70,0 50,30 20,40 0,270"
       id="path980"
       inkscape:connector-curvature="0" />
    <path
       d="m 34970,12990 30,-40 40,-30 80,0 40,30 30,40 0,270"
       id="path982"
       inkscape:connector-curvature="0" />
    <path
       d="m 35430,13260 0,-500"
       id="path984"
       inkscape:connector-curvature="0" />
    <path
       d="m 35430,12990 280,0"
       id="path986"
       inkscape:connector-curvature="0" />
    <path
       d="m 35710,13260 0,-500"
       id="path988"
       inkscape:connector-curvature="0" />
  </g>
  <g
     style="fill:#008400;fill-opacity:0;stroke:#008400;stroke-width:0;stroke-linecap:round;stroke-linejoin:round;stroke-opacity:1"
     id="g1002"
     transform="translate(-29738.066,-7534.3926)" />
  <g
     style="fill:#008400;fill-opacity:1;stroke:#008400;stroke-width:60;stroke-linecap:round;stroke-linejoin:round;stroke-opacity:1"
     id="g1008"
     transform="translate(-29738.066,-7534.3926)" />
  <g
     style="fill:#008400;fill-opacity:0;stroke:#008400;stroke-width:0;stroke-linecap:round;stroke-linejoin:round;stroke-opacity:1"
     id="g1014"
     transform="translate(-29738.066,-7534.3926)" />
  <g
     style="fill:#008400;fill-opacity:1;stroke:#008400;stroke-width:0;stroke-linecap:round;stroke-linejoin:round;stroke-opacity:1"
     id="g1020"
     transform="translate(-29738.066,-7534.3926)" />
  <g
     style="fill:#008400;fill-opacity:1;stroke:#008400;stroke-width:60;stroke-linecap:round;stroke-linejoin:round;stroke-opacity:1"
     id="g1026"
     transform="translate(-29738.066,-7534.3926)" />
  <g
     style="fill:#008400;fill-opacity:0;stroke:#008400;stroke-width:0;stroke-linecap:round;stroke-linejoin:round;stroke-opacity:1"
     id="g1032"
     transform="translate(-29738.066,-7534.3926)" />
  <g
     style="fill:#008400;fill-opacity:1;stroke:#008400;stroke-width:60;stroke-linecap:round;stroke-linejoin:round;stroke-opacity:1"
     id="g1038"
     transform="translate(-29738.066,-7534.3926)" />
  <g
     style="fill:#008400;fill-opacity:0;stroke:#008400;stroke-width:0;stroke-linecap:round;stroke-linejoin:round;stroke-opacity:1"
     id="g1046"
     transform="translate(-29738.066,-7534.3926)" />
  <g
     style="fill:#008400;fill-opacity:1;stroke:#008400;stroke-width:60;stroke-linecap:round;stroke-linejoin:round;stroke-opacity:1"
     id="g1052"
     transform="translate(-29738.066,-7534.3926)" />
  <g
     style="fill:#008400;fill-opacity:0;stroke:#008400;stroke-width:0;stroke-linecap:round;stroke-linejoin:round;stroke-opacity:1"
     id="g1068"
     transform="translate(-29738.066,-7534.3926)" />
  <g
     style="fill:#008400;fill-opacity:1;stroke:#008400;stroke-width:60;stroke-linecap:round;stroke-linejoin:round;stroke-opacity:1"
     id="g1074"
     transform="translate(-29738.066,-7534.3926)" />
  <g
     style="fill:#008400;fill-opacity:0;stroke:#008400;stroke-width:0;stroke-linecap:round;stroke-linejoin:round;stroke-opacity:1"
     id="g1080"
     transform="translate(-29738.066,-7534.3926)" />
  <g
     style="fill:#008400;fill-opacity:1;stroke:#008400;stroke-width:0;stroke-linecap:round;stroke-linejoin:round;stroke-opacity:1"
     id="g1086"
     transform="translate(-29738.066,-7534.3926)" />
  <g
     style="fill:#008400;fill-opacity:1;stroke:#008400;stroke-width:60;stroke-linecap:round;stroke-linejoin:round;stroke-opacity:1"
     id="g1092"
     transform="translate(-29738.066,-7534.3926)" />
  <g
     style="fill:#008400;fill-opacity:0;stroke:#008400;stroke-width:0;stroke-linecap:round;stroke-linejoin:round;stroke-opacity:1"
     id="g1098"
     transform="translate(-29738.066,-7534.3926)" />
  <g
     style="fill:#008400;fill-opacity:1;stroke:#008400;stroke-width:60;stroke-linecap:round;stroke-linejoin:round;stroke-opacity:1"
     id="g1104"
     transform="translate(-29738.066,-7534.3926)" />
  <g
     style="fill:#008400;fill-opacity:0;stroke:#008400;stroke-width:0;stroke-linecap:round;stroke-linejoin:round;stroke-opacity:1"
     id="g1112"
     transform="translate(-29738.066,-7534.3926)" />
  <g
     style="fill:#008400;fill-opacity:1;stroke:#008400;stroke-width:60;stroke-linecap:round;stroke-linejoin:round;stroke-opacity:1"
     id="g1118"
     transform="translate(-29738.066,-7534.3926)" />
  <g
     style="fill:#008400;fill-opacity:0;stroke:#008400;stroke-width:60;stroke-linecap:round;stroke-linejoin:round;stroke-opacity:1"
     id="g1120"
     transform="translate(-29738.066,-7534.3926)">
    <path
       d="m 46500,18000 -1000,0"
       id="path1124"
       inkscape:connector-curvature="0" />
    <path
       d="m 46500,12000 -1000,0"
       id="path1126"
       inkscape:connector-curvature="0" />
    <path
       d="m 41750,14000 1250,0"
       id="path1128"
       inkscape:connector-curvature="0" />
    <path
       d="m 50000,15000 1500,0"
       id="path1130"
       inkscape:connector-curvature="0" />
  </g>
  <g
     style="fill:#008400;fill-opacity:0;stroke:#008400;stroke-width:0;stroke-linecap:round;stroke-linejoin:round;stroke-opacity:1"
     id="g1132"
     transform="translate(-29738.066,-7534.3926)" />
  <g
     style="fill:#008400;fill-opacity:1;stroke:#008400;stroke-width:100;stroke-linecap:round;stroke-linejoin:round;stroke-opacity:1"
     id="g1134"
     transform="translate(-29738.066,-7534.3926)">
    <circle
       cx="50250"
       cy="15000"
       r="200"
       id="circle1136" />
  </g>
  <g
     style="fill:#008400;fill-opacity:1;stroke:#008400;stroke-width:60;stroke-linecap:round;stroke-linejoin:round;stroke-opacity:1"
     id="g1138"
     transform="translate(-29738.066,-7534.3926)" />
  <g
     style="fill:#008400;fill-opacity:0;stroke:#008400;stroke-width:60;stroke-linecap:round;stroke-linejoin:round;stroke-opacity:1"
     id="g1140"
     transform="translate(-29738.066,-7534.3926)">
    <path
       d="m 37750,14000 1000,0"
       id="path1142"
       inkscape:connector-curvature="0" />
  </g>
  <g
     style="fill:#008400;fill-opacity:0;stroke:#008400;stroke-width:0;stroke-linecap:round;stroke-linejoin:round;stroke-opacity:1"
     id="g1144"
     transform="translate(-29738.066,-7534.3926)" />
  <g
     style="fill:#008400;fill-opacity:1;stroke:#008400;stroke-width:100;stroke-linecap:round;stroke-linejoin:round;stroke-opacity:1"
     id="g1146"
     transform="translate(-29738.066,-7534.3926)">
    <circle
       cx="42250"
       cy="14000"
       r="200"
       id="circle1148" />
  </g>
  <g
     style="fill:#008400;fill-opacity:1;stroke:#008400;stroke-width:0;stroke-linecap:round;stroke-linejoin:round;stroke-opacity:1"
     id="g1150"
     transform="translate(-29738.066,-7534.3926)" />
  <g
     style="fill:#008400;fill-opacity:1;stroke:#008400;stroke-width:100;stroke-linecap:round;stroke-linejoin:round;stroke-opacity:1"
     id="g1152"
     transform="translate(-29738.066,-7534.3926)">
    <circle
       cx="38250"
       cy="14000"
       r="200"
       id="circle1154" />
  </g>
  <g
     style="fill:#008400;fill-opacity:1;stroke:#008400;stroke-width:60;stroke-linecap:round;stroke-linejoin:round;stroke-opacity:1"
     id="g1156"
     transform="translate(-29738.066,-7534.3926)" />
  <g
     style="fill:#008400;fill-opacity:0;stroke:#008400;stroke-width:60;stroke-linecap:round;stroke-linejoin:round;stroke-opacity:1"
     id="g1158"
     transform="translate(-29738.066,-7534.3926)">
    <path
       d="m 43000,17000 0,-1000"
       id="path1160"
       inkscape:connector-curvature="0" />
    <path
       d="m 32000,17000 11000,0"
       id="path1162"
       inkscape:connector-curvature="0" />
  </g>
  <g
     style="fill:#008400;fill-opacity:0;stroke:#008400;stroke-width:0;stroke-linecap:round;stroke-linejoin:round;stroke-opacity:1"
     id="g1164"
     transform="translate(-29738.066,-7534.3926)" />
  <g
     style="fill:#008400;fill-opacity:1;stroke:#008400;stroke-width:100;stroke-linecap:round;stroke-linejoin:round;stroke-opacity:1"
     id="g1166"
     transform="translate(-29738.066,-7534.3926)">
    <circle
       cx="38250"
       cy="17000"
       r="200"
       id="circle1168" />
  </g>
  <g
     style="fill:#008400;fill-opacity:1;stroke:#008400;stroke-width:60;stroke-linecap:round;stroke-linejoin:round;stroke-opacity:1"
     id="g1170"
     transform="translate(-29738.066,-7534.3926)" />
  <g
     style="fill:#008400;fill-opacity:0;stroke:#008400;stroke-width:60;stroke-linecap:round;stroke-linejoin:round;stroke-opacity:1"
     id="g1172"
     transform="translate(-29738.066,-7534.3926)">
    <path
       d="m 38250,18000 0,-1000"
       id="path1174"
       inkscape:connector-curvature="0" />
    <path
       d="m 50250,9250 0,5750"
       id="path1176"
       inkscape:connector-curvature="0" />
    <path
       d="m 50250,10750 -3500,0"
       id="path1178"
       inkscape:connector-curvature="0" />
    <path
       d="m 43750,10750 -1500,0"
       id="path1180"
       inkscape:connector-curvature="0" />
    <path
       d="m 42250,10750 0,3000"
       id="path1182"
       inkscape:connector-curvature="0" />
    <path
       d="m 36250,9250 -4250,0"
       id="path1184"
       inkscape:connector-curvature="0" />
    <path
       d="m 32000,9250 0,4750"
       id="path1186"
       inkscape:connector-curvature="0" />
    <path
       d="m 39250,9250 11000,0"
       id="path1188"
       inkscape:connector-curvature="0" />
  </g>
  <g
     style="fill:#008400;fill-opacity:0;stroke:#008400;stroke-width:0;stroke-linecap:round;stroke-linejoin:round;stroke-opacity:1"
     id="g1190"
     transform="translate(-29738.066,-7534.3926)" />
  <g
     style="fill:#008400;fill-opacity:1;stroke:#008400;stroke-width:100;stroke-linecap:round;stroke-linejoin:round;stroke-opacity:1"
     id="g1192"
     transform="translate(-29738.066,-7534.3926)">
    <circle
       cx="50250"
       cy="10750"
       r="200"
       id="circle1194" />
  </g>
</svg>
