<?xml version="1.0" encoding="UTF-8" standalone="no"?>
<svg
   xmlns:dc="http://purl.org/dc/elements/1.1/"
   xmlns:cc="http://creativecommons.org/ns#"
   xmlns:rdf="http://www.w3.org/1999/02/22-rdf-syntax-ns#"
   xmlns:svg="http://www.w3.org/2000/svg"
   xmlns="http://www.w3.org/2000/svg"
   xmlns:sodipodi="http://sodipodi.sourceforge.net/DTD/sodipodi-0.dtd"
   xmlns:inkscape="http://www.inkscape.org/namespaces/inkscape"
   version="1.1"
   width="3.0128121cm"
   height="2.2173114cm"
   viewBox="0 0 11861.473 8729.5807"
   id="svg2"
   inkscape:version="0.91 r13725"
   sodipodi:docname="halfwave.sch.svg">
  <metadata
     id="metadata352">
    <rdf:RDF>
      <cc:Work
         rdf:about="">
        <dc:format>image/svg+xml</dc:format>
        <dc:type
           rdf:resource="http://purl.org/dc/dcmitype/StillImage" />
        <dc:title>SVG Picture created as halfwave.sch.svg date 2016/06/11 20:09:15 </dc:title>
      </cc:Work>
    </rdf:RDF>
  </metadata>
  <defs
     id="defs350" />
  <sodipodi:namedview
     pagecolor="#ffffff"
     bordercolor="#666666"
     borderopacity="1"
     objecttolerance="10"
     gridtolerance="10"
     guidetolerance="10"
     inkscape:pageopacity="0"
     inkscape:pageshadow="2"
     inkscape:window-width="1364"
     inkscape:window-height="797"
     id="namedview348"
     showgrid="false"
     fit-margin-top="0"
     fit-margin-left="0"
     fit-margin-right="0"
     fit-margin-bottom="0"
     inkscape:zoom="0.39911982"
     inkscape:cx="87.969155"
     inkscape:cy="-309.6799"
     inkscape:window-x="281"
     inkscape:window-y="91"
     inkscape:window-maximized="0"
     inkscape:current-layer="svg2" />
  <title
     id="title4">SVG Picture created as halfwave.sch.svg date 2016/06/11 20:09:15 </title>
  <desc
     id="desc6">Picture generated by Eeschema-SVG </desc>
  <g
     style="fill:#000000;fill-opacity:1;stroke:#000000;stroke-linecap:round;stroke-linejoin:round;stroke-opacity:1"
     id="g8"
     transform="translate(-35097.085,-19644.385)" />
  <g
     style="fill:#000000;fill-opacity:0;stroke:#000000;stroke-width:60;stroke-linecap:round;stroke-linejoin:round;stroke-opacity:1"
     id="g10"
     transform="translate(-35097.085,-19644.385)" />
  <g
     style="fill:#840000;fill-opacity:0;stroke:#840000;stroke-width:0;stroke-linecap:round;stroke-linejoin:round;stroke-opacity:1"
     id="g58"
     transform="translate(-35097.085,-19644.385)" />
  <g
     style="fill:#840000;fill-opacity:0;stroke:#840000;stroke-width:0;stroke-linecap:round;stroke-linejoin:round;stroke-opacity:1"
     id="g74"
     transform="translate(-35097.085,-19644.385)" />
  <g
     style="fill:#008484;fill-opacity:0;stroke:#008484;stroke-width:0;stroke-linecap:round;stroke-linejoin:round;stroke-opacity:1"
     id="g100"
     transform="translate(-35097.085,-19644.385)" />
  <g
     style="fill:#840000;fill-opacity:0;stroke:#840000;stroke-width:0;stroke-linecap:round;stroke-linejoin:round;stroke-opacity:1"
     id="g102"
     transform="translate(-35097.085,-19644.385)" />
  <g
     style="fill:#840000;fill-opacity:0;stroke:#840000;stroke-width:60;stroke-linecap:round;stroke-linejoin:round;stroke-opacity:1"
     id="g154"
     transform="translate(-35097.085,-19644.385)" />
  <g
     style="fill:#840000;fill-opacity:0;stroke:#840000;stroke-width:60;stroke-linecap:round;stroke-linejoin:round;stroke-opacity:1"
     id="g172"
     transform="translate(-35097.085,-19644.385)">
    <path
       d="m 37220,21670 140,600 110,-430 120,430 140,-600"
       id="path174"
       inkscape:connector-curvature="0" />
    <path
       d="m 38280,22270 -350,0"
       id="path176"
       inkscape:connector-curvature="0" />
    <path
       d="m 38110,22270 0,-600 -60,90 -60,50 -60,30"
       id="path178"
       inkscape:connector-curvature="0" />
  </g>
  <g
     style="fill:#840000;fill-opacity:0;stroke:#840000;stroke-width:100;stroke-linecap:round;stroke-linejoin:round;stroke-opacity:1"
     id="g180"
     transform="translate(-35097.085,-19644.385)">
    <polyline
       fill="none;"
       points="38750,22000 38450,21460 36900,21460 36900,22000 36900,22540 38450,22540 38750,22000 "
       id="polyline182" />
  </g>
  <g
     style="fill:#840000;fill-opacity:0;stroke:#840000;stroke-width:60;stroke-linecap:round;stroke-linejoin:round;stroke-opacity:1"
     id="g184"
     transform="translate(-35097.085,-19644.385)">
    <path
       d="m 43600,22210 -30,30 -90,30 -60,0 -80,-30 -60,-50 -30,-60 -30,-120 0,-80 30,-120 30,-50 60,-60 80,-30 60,0 90,30 30,30"
       id="path186"
       inkscape:connector-curvature="0" />
    <path
       d="m 43850,22270 0,-600"
       id="path188"
       inkscape:connector-curvature="0" />
    <path
       d="m 43850,21960 350,0"
       id="path190"
       inkscape:connector-curvature="0" />
    <path
       d="m 44200,22270 0,-600"
       id="path192"
       inkscape:connector-curvature="0" />
    <path
       d="m 44800,22270 -350,0"
       id="path194"
       inkscape:connector-curvature="0" />
    <path
       d="m 44630,22270 0,-600 -60,90 -60,50 -60,30"
       id="path196"
       inkscape:connector-curvature="0" />
  </g>
  <g
     style="fill:#840000;fill-opacity:0;stroke:#840000;stroke-width:100;stroke-linecap:round;stroke-linejoin:round;stroke-opacity:1"
     id="g198"
     transform="translate(-35097.085,-19644.385)">
    <polyline
       fill="none;"
       points="42750,22000 43050,22540 45140,22540 45140,22000 45140,21460 43050,21460 42750,22000 "
       id="polyline200" />
  </g>
  <g
     style="fill:#840000;fill-opacity:0;stroke:#840000;stroke-width:60;stroke-linecap:round;stroke-linejoin:round;stroke-opacity:1"
     id="g202"
     transform="translate(-35097.085,-19644.385)">
    <path
       d="m 43600,23960 -30,30 -90,30 -60,0 -80,-30 -60,-50 -30,-60 -30,-120 0,-80 30,-120 30,-50 60,-60 80,-30 60,0 90,30 30,30"
       id="path204"
       inkscape:connector-curvature="0" />
    <path
       d="m 43850,24020 0,-600"
       id="path206"
       inkscape:connector-curvature="0" />
    <path
       d="m 43850,23710 350,0"
       id="path208"
       inkscape:connector-curvature="0" />
    <path
       d="m 44200,24020 0,-600"
       id="path210"
       inkscape:connector-curvature="0" />
    <path
       d="m 44450,23480 30,-30 60,-30 140,0 60,30 30,30 30,60 0,50 -30,90 -340,340 370,0"
       id="path212"
       inkscape:connector-curvature="0" />
  </g>
  <g
     style="fill:#840000;fill-opacity:0;stroke:#840000;stroke-width:100;stroke-linecap:round;stroke-linejoin:round;stroke-opacity:1"
     id="g214"
     transform="translate(-35097.085,-19644.385)">
    <polyline
       fill="none;"
       points="42750,23750 43050,24290 45140,24290 45140,23750 45140,23210 43050,23210 42750,23750 "
       id="polyline216" />
  </g>
  <g
     style="fill:#840000;fill-opacity:0;stroke:#840000;stroke-width:0;stroke-linecap:round;stroke-linejoin:round;stroke-opacity:1"
     id="g218"
     transform="translate(-35097.085,-19644.385)" />
  <g
     style="fill:#840000;fill-opacity:0;stroke:#840000;stroke-width:60;stroke-linecap:round;stroke-linejoin:round;stroke-opacity:1"
     id="g220"
     transform="translate(-35097.085,-19644.385)">
    <polyline
       fill="none;"
       points="41500,26000 41500,25000 "
       id="polyline222" />
  </g>
  <g
     style="fill:#840000;fill-opacity:1;stroke:#840000;stroke-width:60;stroke-linecap:round;stroke-linejoin:round;stroke-opacity:1"
     id="g224"
     transform="translate(-35097.085,-19644.385)">
    <polyline
       style="fill-rule:evenodd"
       points="40500,26000 41500,25500 40500,25000 "
       id="polyline226" />
  </g>
  <g
     style="fill:#840000;fill-opacity:0;stroke:#840000;stroke-width:60;stroke-linecap:round;stroke-linejoin:round;stroke-opacity:1"
     id="g228"
     transform="translate(-35097.085,-19644.385)">
    <path
       d="m 41500,25500 1000,0"
       id="path230"
       inkscape:connector-curvature="0" />
    <path
       d="m 40500,25500 -1000,0"
       id="path232"
       inkscape:connector-curvature="0" />
  </g>
  <g
     style="fill:#840000;fill-opacity:0;stroke:#840000;stroke-width:0;stroke-linecap:round;stroke-linejoin:round;stroke-opacity:1"
     id="g234"
     transform="translate(-35097.085,-19644.385)" />
  <g
     style="fill:#840000;fill-opacity:0;stroke:#840000;stroke-width:100;stroke-linecap:round;stroke-linejoin:round;stroke-opacity:1"
     id="g236"
     transform="translate(-35097.085,-19644.385)">
    <rect
       x="39250"
       y="23350"
       width="2000"
       height="800"
       rx="0"
       id="rect238" />
  </g>
  <g
     style="fill:#840000;fill-opacity:0;stroke:#840000;stroke-width:60;stroke-linecap:round;stroke-linejoin:round;stroke-opacity:1"
     id="g240"
     transform="translate(-35097.085,-19644.385)">
    <path
       d="m 41250,23750 500,0"
       id="path242"
       inkscape:connector-curvature="0" />
    <path
       d="m 39250,23750 -500,0"
       id="path244"
       inkscape:connector-curvature="0" />
  </g>
  <g
     style="fill:#008484;fill-opacity:0;stroke:#008484;stroke-width:60;stroke-linecap:round;stroke-linejoin:round;stroke-opacity:1"
     id="g246"
     transform="translate(-35097.085,-19644.385)">
    <path
       d="m 40140,23950 -280,0"
       id="path248"
       inkscape:connector-curvature="0" />
    <path
       d="m 40000,23950 0,-500 -50,70 -50,50 -40,20"
       id="path250"
       inkscape:connector-curvature="0" />
    <path
       d="m 40360,23950 0,-500"
       id="path252"
       inkscape:connector-curvature="0" />
    <path
       d="m 40640,23950 -210,-290"
       id="path254"
       inkscape:connector-curvature="0" />
    <path
       d="m 40640,23450 -280,280"
       id="path256"
       inkscape:connector-curvature="0" />
  </g>
  <g
     style="fill:#840000;fill-opacity:0;stroke:#840000;stroke-width:60;stroke-linecap:round;stroke-linejoin:round;stroke-opacity:1"
     id="g258"
     transform="translate(-35097.085,-19644.385)">
    <path
       d="m 37350,25770 0,-600 230,0 60,30 30,30 30,60 0,80 -30,60 -30,30 -60,30 -230,0"
       id="path260"
       inkscape:connector-curvature="0" />
    <path
       d="m 37870,25170 200,600 200,-600"
       id="path262"
       inkscape:connector-curvature="0" />
    <path
       d="m 38410,25170 370,0 -200,230 80,0 60,30 30,30 30,50 0,150 -30,50 -30,30 -60,30 -170,0 -60,-30 -20,-30"
       id="path264"
       inkscape:connector-curvature="0" />
  </g>
  <g
     style="fill:#840000;fill-opacity:0;stroke:#840000;stroke-width:100;stroke-linecap:round;stroke-linejoin:round;stroke-opacity:1"
     id="g266"
     transform="translate(-35097.085,-19644.385)">
    <polyline
       fill="none;"
       points="39250,25500 38950,24960 36980,24960 36980,25500 36980,26040 38950,26040 39250,25500 "
       id="polyline268" />
  </g>
  <g
     style="fill:#840000;fill-opacity:0;stroke:#840000;stroke-width:60;stroke-linecap:round;stroke-linejoin:round;stroke-opacity:1"
     id="g270"
     transform="translate(-35097.085,-19644.385)" />
  <g
     style="fill:#008400;fill-opacity:0;stroke:#008400;stroke-width:0;stroke-linecap:round;stroke-linejoin:round;stroke-opacity:1"
     id="g280"
     transform="translate(-35097.085,-19644.385)" />
  <g
     style="fill:#008400;fill-opacity:1;stroke:#008400;stroke-width:60;stroke-linecap:round;stroke-linejoin:round;stroke-opacity:1"
     id="g286"
     transform="translate(-35097.085,-19644.385)" />
  <g
     style="fill:#008400;fill-opacity:0;stroke:#008400;stroke-width:0;stroke-linecap:round;stroke-linejoin:round;stroke-opacity:1"
     id="g292"
     transform="translate(-35097.085,-19644.385)" />
  <g
     style="fill:#008400;fill-opacity:1;stroke:#008400;stroke-width:60;stroke-linecap:round;stroke-linejoin:round;stroke-opacity:1"
     id="g298"
     transform="translate(-35097.085,-19644.385)" />
  <g
     style="fill:#0000c2;fill-opacity:0;stroke:#0000c2;stroke-width:60;stroke-linecap:round;stroke-linejoin:round;stroke-opacity:1"
     id="g306"
     transform="translate(-35097.085,-19644.385)" />
  <g
     style="fill:#0000c2;fill-opacity:0;stroke:#0000c2;stroke-width:60;stroke-linecap:round;stroke-linejoin:round;stroke-opacity:1"
     id="g312"
     transform="translate(-35097.085,-19644.385)" />
  <g
     style="fill:#008400;fill-opacity:0;stroke:#008400;stroke-width:60;stroke-linecap:round;stroke-linejoin:round;stroke-opacity:1"
     id="g314"
     transform="translate(-35097.085,-19644.385)">
    <path
       d="m 38750,22000 0,1750"
       id="path316"
       inkscape:connector-curvature="0" />
    <path
       d="m 41750,23750 1000,0"
       id="path318"
       inkscape:connector-curvature="0" />
  </g>
  <g
     style="fill:#008400;fill-opacity:0;stroke:#008400;stroke-width:0;stroke-linecap:round;stroke-linejoin:round;stroke-opacity:1"
     id="g320"
     transform="translate(-35097.085,-19644.385)" />
  <g
     style="fill:#008400;fill-opacity:1;stroke:#008400;stroke-width:100;stroke-linecap:round;stroke-linejoin:round;stroke-opacity:1"
     id="g322"
     transform="translate(-35097.085,-19644.385)">
    <circle
       cx="42500"
       cy="23750"
       r="200"
       id="circle324" />
  </g>
  <g
     style="fill:#008400;fill-opacity:1;stroke:#008400;stroke-width:60;stroke-linecap:round;stroke-linejoin:round;stroke-opacity:1"
     id="g326"
     transform="translate(-35097.085,-19644.385)" />
  <g
     style="fill:#008400;fill-opacity:0;stroke:#008400;stroke-width:60;stroke-linecap:round;stroke-linejoin:round;stroke-opacity:1"
     id="g328"
     transform="translate(-35097.085,-19644.385)">
    <path
       d="m 39500,25500 -250,0"
       id="path330"
       inkscape:connector-curvature="0" />
  </g>
  <g
     style="fill:#008400;fill-opacity:0;stroke:#008400;stroke-width:0;stroke-linecap:round;stroke-linejoin:round;stroke-opacity:1"
     id="g332"
     transform="translate(-35097.085,-19644.385)" />
  <g
     style="fill:#008400;fill-opacity:1;stroke:#008400;stroke-width:100;stroke-linecap:round;stroke-linejoin:round;stroke-opacity:1"
     id="g334"
     transform="translate(-35097.085,-19644.385)">
    <circle
       cx="42500"
       cy="25500"
       r="200"
       id="circle336" />
  </g>
  <g
     style="fill:#008400;fill-opacity:1;stroke:#008400;stroke-width:60;stroke-linecap:round;stroke-linejoin:round;stroke-opacity:1"
     id="g338"
     transform="translate(-35097.085,-19644.385)" />
  <g
     style="fill:#008400;fill-opacity:0;stroke:#008400;stroke-width:60;stroke-linecap:round;stroke-linejoin:round;stroke-opacity:1"
     id="g340"
     transform="translate(-35097.085,-19644.385)">
    <path
       d="m 42500,23750 0,1750"
       id="path342"
       inkscape:connector-curvature="0" />
    <path
       d="m 42500,25500 250,0"
       id="path344"
       inkscape:connector-curvature="0" />
    <path
       d="m 42750,22000 -4000,0"
       id="path346"
       inkscape:connector-curvature="0" />
  </g>
</svg>
