<?xml version="1.0" encoding="UTF-8" standalone="no"?>
<svg
   xmlns:dc="http://purl.org/dc/elements/1.1/"
   xmlns:cc="http://creativecommons.org/ns#"
   xmlns:rdf="http://www.w3.org/1999/02/22-rdf-syntax-ns#"
   xmlns:svg="http://www.w3.org/2000/svg"
   xmlns="http://www.w3.org/2000/svg"
   xmlns:sodipodi="http://sodipodi.sourceforge.net/DTD/sodipodi-0.dtd"
   xmlns:inkscape="http://www.inkscape.org/namespaces/inkscape"
   version="1.1"
   width="2.3266375cm"
   height="1.2345474cm"
   viewBox="0 0 9159.9966 4860.4274"
   id="svg2"
   inkscape:version="0.91 r13725"
   sodipodi:docname="diodeAC.svg">
  <metadata
     id="metadata3458">
    <rdf:RDF>
      <cc:Work
         rdf:about="">
        <dc:format>image/svg+xml</dc:format>
        <dc:type
           rdf:resource="http://purl.org/dc/dcmitype/StillImage" />
        <dc:title>SVG Picture created as School level.sch.svg date 2016/06/18 12:08:47 </dc:title>
      </cc:Work>
    </rdf:RDF>
  </metadata>
  <defs
     id="defs3456" />
  <sodipodi:namedview
     pagecolor="#ffffff"
     bordercolor="#666666"
     borderopacity="1"
     objecttolerance="10"
     gridtolerance="10"
     guidetolerance="10"
     inkscape:pageopacity="0"
     inkscape:pageshadow="2"
     inkscape:window-width="1855"
     inkscape:window-height="1056"
     id="namedview3454"
     showgrid="false"
     inkscape:zoom="2.2577626"
     inkscape:cx="-107.5185"
     inkscape:cy="32.452335"
     inkscape:window-x="65"
     inkscape:window-y="24"
     inkscape:window-maximized="1"
     inkscape:current-layer="svg2"
     fit-margin-top="0"
     fit-margin-left="0"
     fit-margin-right="0"
     fit-margin-bottom="0" />
  <title
     id="title4">SVG Picture created as School level.sch.svg date 2016/06/18 12:08:47 </title>
  <desc
     id="desc6">Picture generated by Eeschema-SVG </desc>
  <path
     style="fill:#840000;fill-opacity:0;stroke:#840000;stroke-width:60;stroke-linecap:round;stroke-linejoin:round;stroke-opacity:1"
     inkscape:connector-curvature="0"
     id="path3284"
     d="m 909.97965,940.42727 140.00005,600.00003 110,-430 120,430 140,-600.00003" />
  <path
     style="fill:#840000;fill-opacity:0;stroke:#840000;stroke-width:60;stroke-linecap:round;stroke-linejoin:round;stroke-opacity:1"
     inkscape:connector-curvature="0"
     id="path3286"
     d="m 1969.9797,1540.4273 -350,0" />
  <path
     style="fill:#840000;fill-opacity:0;stroke:#840000;stroke-width:60;stroke-linecap:round;stroke-linejoin:round;stroke-opacity:1"
     inkscape:connector-curvature="0"
     id="path3288"
     d="m 1799.9797,1540.4273 0,-600.00003 -60,90.00003 -60,50 -60,30" />
  <polyline
     style="fill:#840000;fill-opacity:0;stroke:#840000;stroke-width:100;stroke-linecap:round;stroke-linejoin:round;stroke-opacity:1"
     id="polyline3292"
     points="58750,58000 58450,57460 56900,57460 56900,58000 56900,58540 58450,58540 58750,58000 "
     transform="translate(-56310.02,-56729.572)" />
  <polyline
     style="fill:#840000;fill-opacity:0;stroke:#840000;stroke-width:60;stroke-linecap:round;stroke-linejoin:round;stroke-opacity:1"
     id="polyline3298"
     points="61500,58500 61500,57500 "
     transform="translate(-56310.02,-56729.572)" />
  <polyline
     id="polyline3302"
     points="60500,58500 61500,58000 60500,57500 "
     style="fill:#840000;fill-opacity:1;fill-rule:evenodd;stroke:#840000;stroke-width:60;stroke-linecap:round;stroke-linejoin:round;stroke-opacity:1"
     transform="translate(-56310.02,-56729.572)" />
  <path
     style="fill:#840000;fill-opacity:0;stroke:#840000;stroke-width:60;stroke-linecap:round;stroke-linejoin:round;stroke-opacity:1"
     inkscape:connector-curvature="0"
     id="path3306"
     d="m 5189.9797,1270.4273 1000,0" />
  <path
     style="fill:#840000;fill-opacity:0;stroke:#840000;stroke-width:60;stroke-linecap:round;stroke-linejoin:round;stroke-opacity:1"
     inkscape:connector-curvature="0"
     id="path3308"
     d="m 4189.9797,1270.4273 -1000,0" />
  <path
     style="fill:#008484;fill-opacity:0;stroke:#008484;stroke-width:60;stroke-linecap:round;stroke-linejoin:round;stroke-opacity:1"
     inkscape:connector-curvature="0"
     id="path3312"
     d="m 3699.9797,530.42727 0,-499.999995 120,0 70,20 50,49.999995 20,50 20,90 0,70 -20,100 -20,40 -50,50 -70,30 -120,0" />
  <path
     style="fill:#008484;fill-opacity:0;stroke:#008484;stroke-width:60;stroke-linecap:round;stroke-linejoin:round;stroke-opacity:1"
     inkscape:connector-curvature="0"
     id="path3314"
     d="m 4199.9797,530.42727 0,-499.999995" />
  <path
     style="fill:#008484;fill-opacity:0;stroke:#008484;stroke-width:60;stroke-linecap:round;stroke-linejoin:round;stroke-opacity:1"
     inkscape:connector-curvature="0"
     id="path3316"
     d="m 4529.9797,30.427275 100,0 50,20 40,49.999995 30,90 0,170 -30,90 -40,50 -50,30 -100,0 -40,-30 -50,-50 -20,-90 0,-170 20,-90 50,-49.999995 40,-20" />
  <path
     style="fill:#008484;fill-opacity:0;stroke:#008484;stroke-width:60;stroke-linecap:round;stroke-linejoin:round;stroke-opacity:1"
     inkscape:connector-curvature="0"
     id="path3318"
     d="m 4959.9797,530.42727 0,-499.999995 120,0 70,20 50,49.999995 20,50 20,90 0,70 -20,100 -20,40 -50,50 -70,30 -120,0" />
  <path
     style="fill:#008484;fill-opacity:0;stroke:#008484;stroke-width:60;stroke-linecap:round;stroke-linejoin:round;stroke-opacity:1"
     inkscape:connector-curvature="0"
     id="path3320"
     d="m 5459.9797,260.42727 170,0" />
  <path
     style="fill:#008484;fill-opacity:0;stroke:#008484;stroke-width:60;stroke-linecap:round;stroke-linejoin:round;stroke-opacity:1"
     inkscape:connector-curvature="0"
     id="path3322"
     d="m 5699.9797,530.42727 -240,0 0,-499.999995 240,0" />
  <path
     style="fill:#840000;fill-opacity:0;stroke:#840000;stroke-width:60;stroke-linecap:round;stroke-linejoin:round;stroke-opacity:1"
     inkscape:connector-curvature="0"
     id="path3326"
     d="m 7509.9797,3970.4273 -60,-30 -90,0 -80,30 -60,60 -30,50 -30,120 0,80 30,120 30,60 60,50 80,30 60,0 90,-30 30,-30 0,-200 -120,0" />
  <path
     style="fill:#840000;fill-opacity:0;stroke:#840000;stroke-width:60;stroke-linecap:round;stroke-linejoin:round;stroke-opacity:1"
     inkscape:connector-curvature="0"
     id="path3328"
     d="m 7789.9797,4540.4273 0,-600 350,600 0,-600" />
  <path
     style="fill:#840000;fill-opacity:0;stroke:#840000;stroke-width:60;stroke-linecap:round;stroke-linejoin:round;stroke-opacity:1"
     inkscape:connector-curvature="0"
     id="path3330"
     d="m 8419.9797,4540.4273 0,-600 150,0 80,30 60,60 30,50 30,120 0,80 -30,120 -30,60 -60,50 -80,30 -150,0" />
  <polyline
     style="fill:#840000;fill-opacity:0;stroke:#840000;stroke-width:100;stroke-linecap:round;stroke-linejoin:round;stroke-opacity:1"
     id="polyline3334"
     points="63000,61000 63300,61540 65420,61540 65420,61000 65420,60460 63300,60460 63000,61000 "
     transform="translate(-56310.02,-56729.572)" />
  <path
     style="fill:#008400;fill-opacity:0;stroke:#008400;stroke-width:60;stroke-linecap:round;stroke-linejoin:round;stroke-opacity:1"
     inkscape:connector-curvature="0"
     id="path3340"
     d="m 6689.9797,1270.4273 -500,0" />
  <path
     style="fill:#008400;fill-opacity:0;stroke:#008400;stroke-width:60;stroke-linecap:round;stroke-linejoin:round;stroke-opacity:1"
     inkscape:connector-curvature="0"
     id="path3342"
     d="m 3189.9797,1270.4273 -750,0" />
  <path
     style="fill:#840000;fill-opacity:0;stroke:#840000;stroke-width:60;stroke-linecap:round;stroke-linejoin:round;stroke-opacity:1"
     inkscape:connector-curvature="0"
     id="path3346"
     d="m 769.97965,2730.4273 -30,30 -90,30 -60,0 -80,-30 -60,-50 -30,-60 -30,-120 0,-80 30,-120 30,-50 60,-60 80,-30 60,0 90,30 30,30" />
  <path
     style="fill:#840000;fill-opacity:0;stroke:#840000;stroke-width:60;stroke-linecap:round;stroke-linejoin:round;stroke-opacity:1"
     inkscape:connector-curvature="0"
     id="path3348"
     d="m 1019.9797,2790.4273 0,-600" />
  <path
     style="fill:#840000;fill-opacity:0;stroke:#840000;stroke-width:60;stroke-linecap:round;stroke-linejoin:round;stroke-opacity:1"
     inkscape:connector-curvature="0"
     id="path3350"
     d="m 1019.9797,2480.4273 350,0" />
  <path
     style="fill:#840000;fill-opacity:0;stroke:#840000;stroke-width:60;stroke-linecap:round;stroke-linejoin:round;stroke-opacity:1"
     inkscape:connector-curvature="0"
     id="path3352"
     d="m 1369.9797,2790.4273 0,-600" />
  <path
     style="fill:#840000;fill-opacity:0;stroke:#840000;stroke-width:60;stroke-linecap:round;stroke-linejoin:round;stroke-opacity:1"
     inkscape:connector-curvature="0"
     id="path3354"
     d="m 1969.9797,2790.4273 -350,0" />
  <path
     style="fill:#840000;fill-opacity:0;stroke:#840000;stroke-width:60;stroke-linecap:round;stroke-linejoin:round;stroke-opacity:1"
     inkscape:connector-curvature="0"
     id="path3356"
     d="m 1799.9797,2790.4273 0,-600 -60,90 -60,50 -60,30" />
  <polyline
     style="fill:#840000;fill-opacity:0;stroke:#840000;stroke-width:100;stroke-linecap:round;stroke-linejoin:round;stroke-opacity:1"
     id="polyline3360"
     points="58750,59250 58450,58710 56360,58710 56360,59250 56360,59790 58450,59790 58750,59250 "
     transform="translate(-56310.02,-56729.572)" />
  <path
     style="fill:#008400;fill-opacity:0;stroke:#008400;stroke-width:60;stroke-linecap:round;stroke-linejoin:round;stroke-opacity:1"
     inkscape:connector-curvature="0"
     id="path3366"
     d="m 2439.9797,2520.4273 750,0" />
  <path
     style="fill:#008400;fill-opacity:0;stroke:#008400;stroke-width:60;stroke-linecap:round;stroke-linejoin:round;stroke-opacity:1"
     inkscape:connector-curvature="0"
     id="path3368"
     d="m 3189.9797,2520.4273 0,-1250" />
  <path
     style="fill:#840000;fill-opacity:0;stroke:#840000;stroke-width:60;stroke-linecap:round;stroke-linejoin:round;stroke-opacity:1"
     inkscape:connector-curvature="0"
     id="path3372"
     d="m 7539.9797,1480.4273 -30,30 -90,30 -60,0 -80,-30 -60,-50 -30,-60 -30,-120 0,-80 30,-120 30,-50 60,-60.00003 80,-30 60,0 90,30 30,30.00003" />
  <path
     style="fill:#840000;fill-opacity:0;stroke:#840000;stroke-width:60;stroke-linecap:round;stroke-linejoin:round;stroke-opacity:1"
     inkscape:connector-curvature="0"
     id="path3374"
     d="m 7789.9797,1540.4273 0,-600.00003" />
  <path
     style="fill:#840000;fill-opacity:0;stroke:#840000;stroke-width:60;stroke-linecap:round;stroke-linejoin:round;stroke-opacity:1"
     inkscape:connector-curvature="0"
     id="path3376"
     d="m 7789.9797,1230.4273 350,0" />
  <path
     style="fill:#840000;fill-opacity:0;stroke:#840000;stroke-width:60;stroke-linecap:round;stroke-linejoin:round;stroke-opacity:1"
     inkscape:connector-curvature="0"
     id="path3378"
     d="m 8139.9797,1540.4273 0,-600.00003" />
  <path
     style="fill:#840000;fill-opacity:0;stroke:#840000;stroke-width:60;stroke-linecap:round;stroke-linejoin:round;stroke-opacity:1"
     inkscape:connector-curvature="0"
     id="path3380"
     d="m 8389.9797,1000.4273 30,-30.00003 60,-30 140,0 60,30 30,30.00003 30,60 0,50 -30,90 -340,340 370,0" />
  <polyline
     style="fill:#840000;fill-opacity:0;stroke:#840000;stroke-width:100;stroke-linecap:round;stroke-linejoin:round;stroke-opacity:1"
     id="polyline3384"
     points="63000,58000 63300,58540 65390,58540 65390,58000 65390,57460 63300,57460 63000,58000 "
     transform="translate(-56310.02,-56729.572)" />
  <rect
     style="fill:#840000;fill-opacity:0;stroke:#840000;stroke-width:100;stroke-linecap:round;stroke-linejoin:round;stroke-opacity:1"
     id="rect3390"
     rx="0"
     height="2000"
     width="800"
     y="1770.4276"
     x="5789.9756" />
  <path
     style="fill:#840000;fill-opacity:0;stroke:#840000;stroke-width:60;stroke-linecap:round;stroke-linejoin:round;stroke-opacity:1"
     inkscape:connector-curvature="0"
     id="path3394"
     d="m 6189.9797,1770.4273 0,-500" />
  <path
     style="fill:#840000;fill-opacity:0;stroke:#840000;stroke-width:60;stroke-linecap:round;stroke-linejoin:round;stroke-opacity:1"
     inkscape:connector-curvature="0"
     id="path3396"
     d="m 6189.9797,3770.4273 0,500" />
  <path
     style="fill:#008484;fill-opacity:0;stroke:#008484;stroke-width:60;stroke-linecap:round;stroke-linejoin:round;stroke-opacity:1"
     inkscape:connector-curvature="0"
     id="path3400"
     d="m 6389.9797,2880.4273 0,280" />
  <path
     style="fill:#008484;fill-opacity:0;stroke:#008484;stroke-width:60;stroke-linecap:round;stroke-linejoin:round;stroke-opacity:1"
     inkscape:connector-curvature="0"
     id="path3402"
     d="m 6389.9797,3020.4273 -500,0 70,50 50,50 20,40" />
  <path
     style="fill:#008484;fill-opacity:0;stroke:#008484;stroke-width:60;stroke-linecap:round;stroke-linejoin:round;stroke-opacity:1"
     inkscape:connector-curvature="0"
     id="path3404"
     d="m 6389.9797,2660.4273 -500,0" />
  <path
     style="fill:#008484;fill-opacity:0;stroke:#008484;stroke-width:60;stroke-linecap:round;stroke-linejoin:round;stroke-opacity:1"
     inkscape:connector-curvature="0"
     id="path3406"
     d="m 6389.9797,2380.4273 -290,210" />
  <path
     style="fill:#008484;fill-opacity:0;stroke:#008484;stroke-width:60;stroke-linecap:round;stroke-linejoin:round;stroke-opacity:1"
     inkscape:connector-curvature="0"
     id="path3408"
     d="m 5889.9797,2380.4273 280,280" />
  <path
     style="fill:#008400;fill-opacity:0;stroke:#008400;stroke-width:60;stroke-linecap:round;stroke-linejoin:round;stroke-opacity:1"
     inkscape:connector-curvature="0"
     id="path3412"
     d="m 6689.9797,4270.4273 -500,0" />
</svg>
