<?xml version="1.0" encoding="UTF-8" standalone="no"?>
<svg
   xmlns:dc="http://purl.org/dc/elements/1.1/"
   xmlns:cc="http://creativecommons.org/ns#"
   xmlns:rdf="http://www.w3.org/1999/02/22-rdf-syntax-ns#"
   xmlns:svg="http://www.w3.org/2000/svg"
   xmlns="http://www.w3.org/2000/svg"
   xmlns:sodipodi="http://sodipodi.sourceforge.net/DTD/sodipodi-0.dtd"
   xmlns:inkscape="http://www.inkscape.org/namespaces/inkscape"
   version="1.1"
   width="5.2106566cm"
   height="3.1856422cm"
   viewBox="0 0 20514.411 12541.911"
   id="svg2"
   inkscape:version="0.91 r13725"
   sodipodi:docname="non-inverting.svg">
  <metadata
     id="metadata2798">
    <rdf:RDF>
      <cc:Work
         rdf:about="">
        <dc:format>image/svg+xml</dc:format>
        <dc:type
           rdf:resource="http://purl.org/dc/dcmitype/StillImage" />
        <dc:title>SVG Picture created as halfwave.sch.svg date 2016/06/12 15:48:20 </dc:title>
      </cc:Work>
    </rdf:RDF>
  </metadata>
  <defs
     id="defs2796" />
  <sodipodi:namedview
     pagecolor="#ffffff"
     bordercolor="#666666"
     borderopacity="1"
     objecttolerance="10"
     gridtolerance="10"
     guidetolerance="10"
     inkscape:pageopacity="0"
     inkscape:pageshadow="2"
     inkscape:window-width="1855"
     inkscape:window-height="1056"
     id="namedview2794"
     showgrid="false"
     inkscape:zoom="1.1288813"
     inkscape:cx="-20.665305"
     inkscape:cy="97.597605"
     inkscape:window-x="65"
     inkscape:window-y="24"
     inkscape:window-maximized="1"
     inkscape:current-layer="g2504"
     fit-margin-top="0"
     fit-margin-left="0"
     fit-margin-right="0"
     fit-margin-bottom="0" />
  <title
     id="title4">SVG Picture created as halfwave.sch.svg date 2016/06/12 15:48:20 </title>
  <desc
     id="desc6">Picture generated by Eeschema-SVG </desc>
  <g
     style="fill:#000000;fill-opacity:1;stroke:#000000;stroke-linecap:round;stroke-linejoin:round;stroke-opacity:1"
     id="g8"
     transform="translate(-59625.208,-27245.283)" />
  <g
     style="fill:#000000;fill-opacity:0;stroke:#000000;stroke-width:60;stroke-linecap:round;stroke-linejoin:round;stroke-opacity:1"
     id="g10"
     transform="translate(-59625.208,-27245.283)" />
  <g
     style="fill:#840000;fill-opacity:0;stroke:#840000;stroke-width:0;stroke-linecap:round;stroke-linejoin:round;stroke-opacity:1"
     id="g58"
     transform="translate(-59625.208,-27245.283)" />
  <g
     style="fill:#840000;fill-opacity:0;stroke:#840000;stroke-width:0;stroke-linecap:round;stroke-linejoin:round;stroke-opacity:1"
     id="g74"
     transform="translate(-59625.208,-27245.283)" />
  <g
     style="fill:#008484;fill-opacity:0;stroke:#008484;stroke-width:0;stroke-linecap:round;stroke-linejoin:round;stroke-opacity:1"
     id="g100"
     transform="translate(-59625.208,-27245.283)" />
  <g
     style="fill:#840000;fill-opacity:0;stroke:#840000;stroke-width:0;stroke-linecap:round;stroke-linejoin:round;stroke-opacity:1"
     id="g102"
     transform="translate(-59625.208,-27245.283)" />
  <g
     style="fill:#840000;fill-opacity:0;stroke:#840000;stroke-width:60;stroke-linecap:round;stroke-linejoin:round;stroke-opacity:1"
     id="g154"
     transform="translate(-59625.208,-27245.283)" />
  <g
     style="fill:#840000;fill-opacity:0;stroke:#840000;stroke-width:0;stroke-linecap:round;stroke-linejoin:round;stroke-opacity:1"
     id="g218"
     transform="translate(-59625.208,-27245.283)" />
  <g
     style="fill:#840000;fill-opacity:0;stroke:#840000;stroke-width:0;stroke-linecap:round;stroke-linejoin:round;stroke-opacity:1"
     id="g234"
     transform="translate(-59625.208,-27245.283)" />
  <g
     style="fill:#840000;fill-opacity:0;stroke:#840000;stroke-width:0;stroke-linecap:round;stroke-linejoin:round;stroke-opacity:1"
     id="g312"
     transform="translate(-59625.208,-27245.283)" />
  <g
     style="fill:#840000;fill-opacity:0;stroke:#840000;stroke-width:0;stroke-linecap:round;stroke-linejoin:round;stroke-opacity:1"
     id="g462"
     transform="translate(-59625.208,-27245.283)" />
  <g
     style="fill:#840000;fill-opacity:0;stroke:#840000;stroke-width:60;stroke-linecap:round;stroke-linejoin:round;stroke-opacity:1"
     id="g488"
     transform="translate(-59625.208,-27245.283)" />
  <g
     style="fill:#0000c2;fill-opacity:0;stroke:#0000c2;stroke-width:0;stroke-linecap:round;stroke-linejoin:round;stroke-opacity:1"
     id="g522"
     transform="translate(-59625.208,-27245.283)" />
  <g
     style="fill:#840000;fill-opacity:0;stroke:#840000;stroke-width:0;stroke-linecap:round;stroke-linejoin:round;stroke-opacity:1"
     id="g524"
     transform="translate(-59625.208,-27245.283)" />
  <g
     style="fill:#840000;fill-opacity:0;stroke:#840000;stroke-width:0;stroke-linecap:round;stroke-linejoin:round;stroke-opacity:1"
     id="g598"
     transform="translate(-59625.208,-27245.283)" />
  <g
     style="fill:#840000;fill-opacity:0;stroke:#840000;stroke-width:0;stroke-linecap:round;stroke-linejoin:round;stroke-opacity:1"
     id="g614"
     transform="translate(-59625.208,-27245.283)" />
  <g
     style="fill:#008484;fill-opacity:0;stroke:#008484;stroke-width:0;stroke-linecap:round;stroke-linejoin:round;stroke-opacity:1"
     id="g640"
     transform="translate(-59625.208,-27245.283)" />
  <g
     style="fill:#840000;fill-opacity:0;stroke:#840000;stroke-width:0;stroke-linecap:round;stroke-linejoin:round;stroke-opacity:1"
     id="g642"
     transform="translate(-59625.208,-27245.283)" />
  <g
     style="fill:#840000;fill-opacity:0;stroke:#840000;stroke-width:60;stroke-linecap:round;stroke-linejoin:round;stroke-opacity:1"
     id="g694"
     transform="translate(-59625.208,-27245.283)" />
  <g
     style="fill:#840000;fill-opacity:0;stroke:#840000;stroke-width:0;stroke-linecap:round;stroke-linejoin:round;stroke-opacity:1"
     id="g748"
     transform="translate(-59625.208,-27245.283)" />
  <g
     style="fill:#840000;fill-opacity:0;stroke:#840000;stroke-width:0;stroke-linecap:round;stroke-linejoin:round;stroke-opacity:1"
     id="g804"
     transform="translate(-59625.208,-27245.283)" />
  <g
     style="fill:#008484;fill-opacity:0;stroke:#008484;stroke-width:0;stroke-linecap:round;stroke-linejoin:round;stroke-opacity:1"
     id="g830"
     transform="translate(-59625.208,-27245.283)" />
  <g
     style="fill:#840000;fill-opacity:0;stroke:#840000;stroke-width:0;stroke-linecap:round;stroke-linejoin:round;stroke-opacity:1"
     id="g832"
     transform="translate(-59625.208,-27245.283)" />
  <g
     style="fill:#840000;fill-opacity:0;stroke:#840000;stroke-width:0;stroke-linecap:round;stroke-linejoin:round;stroke-opacity:1"
     id="g900"
     transform="translate(-59625.208,-27245.283)" />
  <g
     style="fill:#008484;fill-opacity:0;stroke:#008484;stroke-width:0;stroke-linecap:round;stroke-linejoin:round;stroke-opacity:1"
     id="g926"
     transform="translate(-59625.208,-27245.283)" />
  <g
     style="fill:#840000;fill-opacity:0;stroke:#840000;stroke-width:0;stroke-linecap:round;stroke-linejoin:round;stroke-opacity:1"
     id="g928"
     transform="translate(-59625.208,-27245.283)" />
  <g
     style="fill:#840000;fill-opacity:0;stroke:#840000;stroke-width:0;stroke-linecap:round;stroke-linejoin:round;stroke-opacity:1"
     id="g1074"
     transform="translate(-59625.208,-27245.283)" />
  <g
     style="fill:#0000c2;fill-opacity:0;stroke:#0000c2;stroke-width:0;stroke-linecap:round;stroke-linejoin:round;stroke-opacity:1"
     id="g1076"
     transform="translate(-59625.208,-27245.283)" />
  <g
     style="fill:#840000;fill-opacity:0;stroke:#840000;stroke-width:0;stroke-linecap:round;stroke-linejoin:round;stroke-opacity:1"
     id="g1148"
     transform="translate(-59625.208,-27245.283)" />
  <g
     style="fill:#840000;fill-opacity:0;stroke:#840000;stroke-width:60;stroke-linecap:round;stroke-linejoin:round;stroke-opacity:1"
     id="g1266"
     transform="translate(-59625.208,-27245.283)" />
  <g
     style="fill:#840000;fill-opacity:0;stroke:#840000;stroke-width:60;stroke-linecap:round;stroke-linejoin:round;stroke-opacity:1"
     id="g1336"
     transform="translate(-59625.208,-27245.283)" />
  <g
     style="fill:#840000;fill-opacity:0;stroke:#840000;stroke-width:0;stroke-linecap:round;stroke-linejoin:round;stroke-opacity:1"
     id="g1454"
     transform="translate(-59625.208,-27245.283)" />
  <g
     style="fill:#008484;fill-opacity:0;stroke:#008484;stroke-width:0;stroke-linecap:round;stroke-linejoin:round;stroke-opacity:1"
     id="g1482"
     transform="translate(-59625.208,-27245.283)" />
  <g
     style="fill:#840000;fill-opacity:0;stroke:#840000;stroke-width:0;stroke-linecap:round;stroke-linejoin:round;stroke-opacity:1"
     id="g1484"
     transform="translate(-59625.208,-27245.283)" />
  <g
     style="fill:#840000;fill-opacity:0;stroke:#840000;stroke-width:60;stroke-linecap:round;stroke-linejoin:round;stroke-opacity:1"
     id="g1570"
     transform="translate(-59625.208,-27245.283)" />
  <g
     style="fill:#0000c2;fill-opacity:0;stroke:#0000c2;stroke-width:0;stroke-linecap:round;stroke-linejoin:round;stroke-opacity:1"
     id="g1582"
     transform="translate(-59625.208,-27245.283)" />
  <g
     style="fill:#840000;fill-opacity:0;stroke:#840000;stroke-width:0;stroke-linecap:round;stroke-linejoin:round;stroke-opacity:1"
     id="g1584"
     transform="translate(-59625.208,-27245.283)" />
  <g
     style="fill:#840000;fill-opacity:0;stroke:#840000;stroke-width:60;stroke-linecap:round;stroke-linejoin:round;stroke-opacity:1"
     id="g1606"
     transform="translate(-59625.208,-27245.283)" />
  <g
     style="fill:#840000;fill-opacity:0;stroke:#840000;stroke-width:0;stroke-linecap:round;stroke-linejoin:round;stroke-opacity:1"
     id="g1696"
     transform="translate(-59625.208,-27245.283)" />
  <g
     style="fill:#008484;fill-opacity:0;stroke:#008484;stroke-width:0;stroke-linecap:round;stroke-linejoin:round;stroke-opacity:1"
     id="g1722"
     transform="translate(-59625.208,-27245.283)" />
  <g
     style="fill:#840000;fill-opacity:0;stroke:#840000;stroke-width:0;stroke-linecap:round;stroke-linejoin:round;stroke-opacity:1"
     id="g1724"
     transform="translate(-59625.208,-27245.283)" />
  <g
     style="fill:#840000;fill-opacity:0;stroke:#840000;stroke-width:60;stroke-linecap:round;stroke-linejoin:round;stroke-opacity:1"
     id="g1808"
     transform="translate(-59625.208,-27245.283)" />
  <g
     style="fill:#840000;fill-opacity:0;stroke:#840000;stroke-width:60;stroke-linecap:round;stroke-linejoin:round;stroke-opacity:1"
     id="g1884"
     transform="translate(-59625.208,-27245.283)">
    <path
       d="m 71670,34670 200,600 200,-600"
       id="path1886"
       inkscape:connector-curvature="0" />
    <path
       d="m 72260,35040 460,0"
       id="path1888"
       inkscape:connector-curvature="0" />
  </g>
  <g
     style="fill:#840000;fill-opacity:0;stroke:#840000;stroke-width:100;stroke-linecap:round;stroke-linejoin:round;stroke-opacity:1"
     id="g1890"
     transform="translate(-59625.208,-27245.283)">
    <polyline
       fill="none;"
       points="71250,35000 71550,35540 73090,35540 73090,35000 73090,34460 71550,34460 71250,35000 "
       id="polyline1892" />
  </g>
  <g
     style="fill:#840000;fill-opacity:0;stroke:#840000;stroke-width:60;stroke-linecap:round;stroke-linejoin:round;stroke-opacity:1"
     id="g1894"
     transform="translate(-59625.208,-27245.283)">
    <path
       d="m 71670,28670 200,600 200,-600"
       id="path1896"
       inkscape:connector-curvature="0" />
    <path
       d="m 72260,29040 460,0"
       id="path1898"
       inkscape:connector-curvature="0" />
    <path
       d="m 72490,29270 0,-460"
       id="path1900"
       inkscape:connector-curvature="0" />
  </g>
  <g
     style="fill:#840000;fill-opacity:0;stroke:#840000;stroke-width:100;stroke-linecap:round;stroke-linejoin:round;stroke-opacity:1"
     id="g1902"
     transform="translate(-59625.208,-27245.283)">
    <polyline
       fill="none;"
       points="71250,29000 71550,29540 73090,29540 73090,29000 73090,28460 71550,28460 71250,29000 "
       id="polyline1904" />
  </g>
  <g
     style="fill:#840000;fill-opacity:0;stroke:#840000;stroke-width:0;stroke-linecap:round;stroke-linejoin:round;stroke-opacity:1"
     id="g1906"
     transform="translate(-59625.208,-27245.283)" />
  <g
     style="fill:#840000;fill-opacity:0;stroke:#840000;stroke-width:100;stroke-linecap:round;stroke-linejoin:round;stroke-opacity:1"
     id="g1908"
     transform="translate(-59625.208,-27245.283)">
    <rect
       x="69000"
       y="36100"
       width="2000"
       height="800"
       rx="0"
       id="rect1910" />
  </g>
  <g
     style="fill:#840000;fill-opacity:0;stroke:#840000;stroke-width:60;stroke-linecap:round;stroke-linejoin:round;stroke-opacity:1"
     id="g1912"
     transform="translate(-59625.208,-27245.283)">
    <path
       d="m 69000,36500 -500,0"
       id="path1914"
       inkscape:connector-curvature="0" />
    <path
       d="m 71000,36500 500,0"
       id="path1916"
       inkscape:connector-curvature="0" />
  </g>
  <g
     style="fill:#008484;fill-opacity:0;stroke:#008484;stroke-width:60;stroke-linecap:round;stroke-linejoin:round;stroke-opacity:1"
     id="g1918"
     transform="translate(-59625.208,-27245.283)">
    <path
       d="m 69650,36760 -280,0"
       id="path1920"
       inkscape:connector-curvature="0" />
    <path
       d="m 69510,36760 0,-500 -50,70 -50,50 -40,20"
       id="path1922"
       inkscape:connector-curvature="0" />
    <path
       d="m 69960,36260 50,0 50,20 20,20 30,50 20,100 0,120 -20,90 -30,50 -20,20 -50,30 -50,0 -40,-30 -30,-20 -20,-50 -20,-90 0,-120 20,-100 20,-50 30,-20 40,-20"
       id="path1924"
       inkscape:connector-curvature="0" />
    <path
       d="m 70350,36760 0,-500"
       id="path1926"
       inkscape:connector-curvature="0" />
    <path
       d="m 70630,36760 -210,-290"
       id="path1928"
       inkscape:connector-curvature="0" />
    <path
       d="m 70630,36260 -280,280"
       id="path1930"
       inkscape:connector-curvature="0" />
  </g>
  <g
     style="fill:#008484;fill-opacity:0;stroke:#008484;stroke-width:0;stroke-linecap:round;stroke-linejoin:round;stroke-opacity:1"
     id="g1932"
     transform="translate(-59625.208,-27245.283)" />
  <g
     style="fill:#840000;fill-opacity:0;stroke:#840000;stroke-width:0;stroke-linecap:round;stroke-linejoin:round;stroke-opacity:1"
     id="g1934"
     transform="translate(-59625.208,-27245.283)" />
  <g
     style="fill:#840000;fill-opacity:0;stroke:#840000;stroke-width:100;stroke-linecap:round;stroke-linejoin:round;stroke-opacity:1"
     id="g1936"
     transform="translate(-59625.208,-27245.283)">
    <rect
       x="65250"
       y="36100"
       width="2000"
       height="800"
       rx="0"
       id="rect1938" />
  </g>
  <g
     style="fill:#840000;fill-opacity:0;stroke:#840000;stroke-width:60;stroke-linecap:round;stroke-linejoin:round;stroke-opacity:1"
     id="g1940"
     transform="translate(-59625.208,-27245.283)">
    <path
       d="m 67250,36500 500,0"
       id="path1942"
       inkscape:connector-curvature="0" />
    <path
       d="m 65250,36500 -500,0"
       id="path1944"
       inkscape:connector-curvature="0" />
  </g>
  <g
     style="fill:#008484;fill-opacity:0;stroke:#008484;stroke-width:60;stroke-linecap:round;stroke-linejoin:round;stroke-opacity:1"
     id="g1946"
     transform="translate(-59625.208,-27245.283)">
    <path
       d="m 65900,36700 -280,0"
       id="path1948"
       inkscape:connector-curvature="0" />
    <path
       d="m 65760,36700 0,-500 -50,70 -50,50 -40,20"
       id="path1950"
       inkscape:connector-curvature="0" />
    <path
       d="m 66210,36200 50,0 50,20 20,20 30,50 20,100 0,120 -20,90 -30,50 -20,20 -50,30 -50,0 -40,-30 -30,-20 -20,-50 -20,-90 0,-120 20,-100 20,-50 30,-20 40,-20"
       id="path1952"
       inkscape:connector-curvature="0" />
    <path
       d="m 66600,36700 0,-500"
       id="path1954"
       inkscape:connector-curvature="0" />
    <path
       d="m 66880,36700 -210,-290"
       id="path1956"
       inkscape:connector-curvature="0" />
    <path
       d="m 66880,36200 -280,280"
       id="path1958"
       inkscape:connector-curvature="0" />
  </g>
  <g
     style="fill:#840000;fill-opacity:0;stroke:#840000;stroke-width:60;stroke-linecap:round;stroke-linejoin:round;stroke-opacity:1"
     id="g1960"
     transform="translate(-59625.208,-27245.283)">
    <path
       d="m 61970,30670 140,600 110,-430 120,430 140,-600"
       id="path1962"
       inkscape:connector-curvature="0" />
    <path
       d="m 63030,31270 -350,0"
       id="path1964"
       inkscape:connector-curvature="0" />
    <path
       d="m 62860,31270 0,-600 -60,90 -60,50 -60,30"
       id="path1966"
       inkscape:connector-curvature="0" />
  </g>
  <g
     style="fill:#840000;fill-opacity:0;stroke:#840000;stroke-width:100;stroke-linecap:round;stroke-linejoin:round;stroke-opacity:1"
     id="g1968"
     transform="translate(-59625.208,-27245.283)">
    <polyline
       fill="none;"
       points="63500,31000 63200,30460 61650,30460 61650,31000 61650,31540 63200,31540 63500,31000 "
       id="polyline1970" />
  </g>
  <g
     style="fill:#840000;fill-opacity:0;stroke:#840000;stroke-width:60;stroke-linecap:round;stroke-linejoin:round;stroke-opacity:1"
     id="g1972"
     transform="translate(-59625.208,-27245.283)">
    <path
       d="m 62020,36200 -60,-30 -90,0 -80,30 -60,60 -30,50 -30,120 0,80 30,120 30,60 60,50 80,30 60,0 90,-30 30,-30 0,-200 -120,0"
       id="path1974"
       inkscape:connector-curvature="0" />
    <path
       d="m 62300,36770 0,-600 350,600 0,-600"
       id="path1976"
       inkscape:connector-curvature="0" />
    <path
       d="m 62930,36770 0,-600 150,0 80,30 60,60 30,50 30,120 0,80 -30,120 -30,60 -60,50 -80,30 -150,0"
       id="path1978"
       inkscape:connector-curvature="0" />
  </g>
  <g
     style="fill:#840000;fill-opacity:0;stroke:#840000;stroke-width:100;stroke-linecap:round;stroke-linejoin:round;stroke-opacity:1"
     id="g1980"
     transform="translate(-59625.208,-27245.283)">
    <polyline
       fill="none;"
       points="63750,36500 63450,35960 61330,35960 61330,36500 61330,37040 63450,37040 63750,36500 "
       id="polyline1982" />
  </g>
  <g
     style="fill:#840000;fill-opacity:0;stroke:#840000;stroke-width:60;stroke-linecap:round;stroke-linejoin:round;stroke-opacity:1"
     id="g1984"
     transform="translate(-59625.208,-27245.283)">
    <path
       d="m 77100,32210 -30,30 -90,30 -60,0 -80,-30 -60,-50 -30,-60 -30,-120 0,-80 30,-120 30,-50 60,-60 80,-30 60,0 90,30 30,30"
       id="path1986"
       inkscape:connector-curvature="0" />
    <path
       d="m 77350,32270 0,-600"
       id="path1988"
       inkscape:connector-curvature="0" />
    <path
       d="m 77350,31960 350,0"
       id="path1990"
       inkscape:connector-curvature="0" />
    <path
       d="m 77700,32270 0,-600"
       id="path1992"
       inkscape:connector-curvature="0" />
    <path
       d="m 77950,31730 30,-30 60,-30 140,0 60,30 30,30 30,60 0,50 -30,90 -340,340 370,0"
       id="path1994"
       inkscape:connector-curvature="0" />
  </g>
  <g
     style="fill:#840000;fill-opacity:0;stroke:#840000;stroke-width:100;stroke-linecap:round;stroke-linejoin:round;stroke-opacity:1"
     id="g1996"
     transform="translate(-59625.208,-27245.283)">
    <polyline
       fill="none;"
       points="76250,32000 76550,32540 78640,32540 78640,32000 78640,31460 76550,31460 76250,32000 "
       id="polyline1998" />
  </g>
  <g
     style="fill:#840000;fill-opacity:0;stroke:#840000;stroke-width:60;stroke-linecap:round;stroke-linejoin:round;stroke-opacity:1"
     id="g2000"
     transform="translate(-59625.208,-27245.283)">
    <path
       d="m 62080,33460 -30,30 -90,30 -60,0 -80,-30 -60,-50 -30,-60 -30,-120 0,-80 30,-120 30,-50 60,-60 80,-30 60,0 90,30 30,30"
       id="path2002"
       inkscape:connector-curvature="0" />
    <path
       d="m 62330,33520 0,-600"
       id="path2004"
       inkscape:connector-curvature="0" />
    <path
       d="m 62330,33210 350,0"
       id="path2006"
       inkscape:connector-curvature="0" />
    <path
       d="m 62680,33520 0,-600"
       id="path2008"
       inkscape:connector-curvature="0" />
    <path
       d="m 63280,33520 -350,0"
       id="path2010"
       inkscape:connector-curvature="0" />
    <path
       d="m 63110,33520 0,-600 -60,90 -60,50 -60,30"
       id="path2012"
       inkscape:connector-curvature="0" />
  </g>
  <g
     style="fill:#840000;fill-opacity:0;stroke:#840000;stroke-width:100;stroke-linecap:round;stroke-linejoin:round;stroke-opacity:1"
     id="g2014"
     transform="translate(-59625.208,-27245.283)">
    <polyline
       fill="none;"
       points="63750,33250 63450,32710 61360,32710 61360,33250 61360,33790 63450,33790 63750,33250 "
       id="polyline2016" />
  </g>
  <g
     style="fill:#840000;fill-opacity:0;stroke:#840000;stroke-width:60;stroke-linecap:round;stroke-linejoin:round;stroke-opacity:1"
     id="g2018"
     transform="translate(-59625.208,-27245.283)" />
  <g
     style="fill:#840000;fill-opacity:0;stroke:#840000;stroke-width:0;stroke-linecap:round;stroke-linejoin:round;stroke-opacity:1"
     id="g2100"
     transform="translate(-59625.208,-27245.283)" />
  <g
     style="fill:#840000;fill-opacity:0;stroke:#840000;stroke-width:0;stroke-linecap:round;stroke-linejoin:round;stroke-opacity:1"
     id="g2166"
     transform="translate(-59625.208,-27245.283)" />
  <g
     style="fill:#840000;fill-opacity:0;stroke:#840000;stroke-width:0;stroke-linecap:round;stroke-linejoin:round;stroke-opacity:1"
     id="g2200"
     transform="translate(-59625.208,-27245.283)" />
  <g
     style="fill:#008400;fill-opacity:0;stroke:#008400;stroke-width:0;stroke-linecap:round;stroke-linejoin:round;stroke-opacity:1"
     id="g2234"
     transform="translate(-59625.208,-27245.283)" />
  <g
     style="fill:#008400;fill-opacity:1;stroke:#008400;stroke-width:60;stroke-linecap:round;stroke-linejoin:round;stroke-opacity:1"
     id="g2240"
     transform="translate(-59625.208,-27245.283)" />
  <g
     style="fill:#008400;fill-opacity:0;stroke:#008400;stroke-width:0;stroke-linecap:round;stroke-linejoin:round;stroke-opacity:1"
     id="g2246"
     transform="translate(-59625.208,-27245.283)" />
  <g
     style="fill:#008400;fill-opacity:1;stroke:#008400;stroke-width:60;stroke-linecap:round;stroke-linejoin:round;stroke-opacity:1"
     id="g2252"
     transform="translate(-59625.208,-27245.283)" />
  <g
     style="fill:#0000c2;fill-opacity:0;stroke:#0000c2;stroke-width:60;stroke-linecap:round;stroke-linejoin:round;stroke-opacity:1"
     id="g2260"
     transform="translate(-59625.208,-27245.283)" />
  <g
     style="fill:#0000c2;fill-opacity:0;stroke:#0000c2;stroke-width:60;stroke-linecap:round;stroke-linejoin:round;stroke-opacity:1"
     id="g2266"
     transform="translate(-59625.208,-27245.283)" />
  <g
     style="fill:#008400;fill-opacity:0;stroke:#008400;stroke-width:0;stroke-linecap:round;stroke-linejoin:round;stroke-opacity:1"
     id="g2274"
     transform="translate(-59625.208,-27245.283)" />
  <g
     style="fill:#008400;fill-opacity:1;stroke:#008400;stroke-width:60;stroke-linecap:round;stroke-linejoin:round;stroke-opacity:1"
     id="g2280"
     transform="translate(-59625.208,-27245.283)" />
  <g
     style="fill:#008400;fill-opacity:0;stroke:#008400;stroke-width:0;stroke-linecap:round;stroke-linejoin:round;stroke-opacity:1"
     id="g2286"
     transform="translate(-59625.208,-27245.283)" />
  <g
     style="fill:#008400;fill-opacity:1;stroke:#008400;stroke-width:60;stroke-linecap:round;stroke-linejoin:round;stroke-opacity:1"
     id="g2292"
     transform="translate(-59625.208,-27245.283)" />
  <g
     style="fill:#008400;fill-opacity:0;stroke:#008400;stroke-width:0;stroke-linecap:round;stroke-linejoin:round;stroke-opacity:1"
     id="g2312"
     transform="translate(-59625.208,-27245.283)" />
  <g
     style="fill:#008400;fill-opacity:1;stroke:#008400;stroke-width:60;stroke-linecap:round;stroke-linejoin:round;stroke-opacity:1"
     id="g2318"
     transform="translate(-59625.208,-27245.283)" />
  <g
     style="fill:#008400;fill-opacity:0;stroke:#008400;stroke-width:0;stroke-linecap:round;stroke-linejoin:round;stroke-opacity:1"
     id="g2324"
     transform="translate(-59625.208,-27245.283)" />
  <g
     style="fill:#008400;fill-opacity:1;stroke:#008400;stroke-width:60;stroke-linecap:round;stroke-linejoin:round;stroke-opacity:1"
     id="g2330"
     transform="translate(-59625.208,-27245.283)" />
  <g
     style="fill:#008400;fill-opacity:0;stroke:#008400;stroke-width:0;stroke-linecap:round;stroke-linejoin:round;stroke-opacity:1"
     id="g2346"
     transform="translate(-59625.208,-27245.283)" />
  <g
     style="fill:#008400;fill-opacity:1;stroke:#008400;stroke-width:60;stroke-linecap:round;stroke-linejoin:round;stroke-opacity:1"
     id="g2352"
     transform="translate(-59625.208,-27245.283)" />
  <g
     style="fill:#0000c2;fill-opacity:0;stroke:#0000c2;stroke-width:60;stroke-linecap:round;stroke-linejoin:round;stroke-opacity:1"
     id="g2360"
     transform="translate(-59625.208,-27245.283)" />
  <g
     style="fill:#0000c2;fill-opacity:0;stroke:#0000c2;stroke-width:60;stroke-linecap:round;stroke-linejoin:round;stroke-opacity:1"
     id="g2366"
     transform="translate(-59625.208,-27245.283)" />
  <g
     style="fill:#008400;fill-opacity:0;stroke:#008400;stroke-width:0;stroke-linecap:round;stroke-linejoin:round;stroke-opacity:1"
     id="g2378"
     transform="translate(-59625.208,-27245.283)" />
  <g
     style="fill:#008400;fill-opacity:1;stroke:#008400;stroke-width:60;stroke-linecap:round;stroke-linejoin:round;stroke-opacity:1"
     id="g2384"
     transform="translate(-59625.208,-27245.283)" />
  <g
     style="fill:#008400;fill-opacity:0;stroke:#008400;stroke-width:0;stroke-linecap:round;stroke-linejoin:round;stroke-opacity:1"
     id="g2390"
     transform="translate(-59625.208,-27245.283)" />
  <g
     style="fill:#008400;fill-opacity:1;stroke:#008400;stroke-width:60;stroke-linecap:round;stroke-linejoin:round;stroke-opacity:1"
     id="g2396"
     transform="translate(-59625.208,-27245.283)" />
  <g
     style="fill:#008400;fill-opacity:0;stroke:#008400;stroke-width:0;stroke-linecap:round;stroke-linejoin:round;stroke-opacity:1"
     id="g2404"
     transform="translate(-59625.208,-27245.283)" />
  <g
     style="fill:#008400;fill-opacity:1;stroke:#008400;stroke-width:60;stroke-linecap:round;stroke-linejoin:round;stroke-opacity:1"
     id="g2410"
     transform="translate(-59625.208,-27245.283)" />
  <g
     style="fill:#008400;fill-opacity:0;stroke:#008400;stroke-width:0;stroke-linecap:round;stroke-linejoin:round;stroke-opacity:1"
     id="g2430"
     transform="translate(-59625.208,-27245.283)" />
  <g
     style="fill:#008400;fill-opacity:1;stroke:#008400;stroke-width:60;stroke-linecap:round;stroke-linejoin:round;stroke-opacity:1"
     id="g2436"
     transform="translate(-59625.208,-27245.283)" />
  <g
     style="fill:#008400;fill-opacity:0;stroke:#008400;stroke-width:0;stroke-linecap:round;stroke-linejoin:round;stroke-opacity:1"
     id="g2444"
     transform="translate(-59625.208,-27245.283)" />
  <g
     style="fill:#008400;fill-opacity:1;stroke:#008400;stroke-width:60;stroke-linecap:round;stroke-linejoin:round;stroke-opacity:1"
     id="g2450"
     transform="translate(-59625.208,-27245.283)" />
  <g
     style="fill:#0000c2;fill-opacity:0;stroke:#0000c2;stroke-width:60;stroke-linecap:round;stroke-linejoin:round;stroke-opacity:1"
     id="g2484"
     transform="translate(-59625.208,-27245.283)" />
  <g
     style="fill:#0000c2;fill-opacity:0;stroke:#0000c2;stroke-width:60;stroke-linecap:round;stroke-linejoin:round;stroke-opacity:1"
     id="g2490"
     transform="translate(-59625.208,-27245.283)" />
  <g
     style="fill:#0000c2;fill-opacity:0;stroke:#0000c2;stroke-width:60;stroke-linecap:round;stroke-linejoin:round;stroke-opacity:1"
     id="g2496"
     transform="translate(-59625.208,-27245.283)" />
  <g
     style="fill:#0000c2;fill-opacity:0;stroke:#0000c2;stroke-width:60;stroke-linecap:round;stroke-linejoin:round;stroke-opacity:1"
     id="g2502"
     transform="translate(-59625.208,-27245.283)" />
  <g
     style="fill:#008400;fill-opacity:0;stroke:#008400;stroke-width:60;stroke-linecap:round;stroke-linejoin:round;stroke-opacity:1"
     id="g2504"
     transform="translate(-59625.208,-27245.283)">
    <path
       d="m 71250,35000 -1000,0"
       id="path2532"
       inkscape:connector-curvature="0" />
    <path
       d="m 71250,29000 -1000,0"
       id="path2534"
       inkscape:connector-curvature="0" />
    <path
       d="m 63500,31000 4250,0"
       id="path2536"
       inkscape:connector-curvature="0" />
    <path
       d="m 76250,32000 -1500,0"
       id="path2538"
       inkscape:connector-curvature="0" />
    <path
       d="m 63750,33250 500,0"
       id="path2540"
       inkscape:connector-curvature="0" />
    <path
       d="m 64250,33250 0,-2250"
       id="path2542"
       inkscape:connector-curvature="0" />
  </g>
  <g
     style="fill:#008400;fill-opacity:0;stroke:#008400;stroke-width:0;stroke-linecap:round;stroke-linejoin:round;stroke-opacity:1"
     id="g2544"
     transform="translate(-59625.208,-27245.283)" />
  <g
     style="fill:#008400;fill-opacity:1;stroke:#008400;stroke-width:100;stroke-linecap:round;stroke-linejoin:round;stroke-opacity:1"
     id="g2546"
     transform="translate(-59625.208,-27245.283)">
    <circle
       cx="64250"
       cy="31000"
       r="200"
       id="circle2548" />
  </g>
  <g
     style="fill:#008400;fill-opacity:1;stroke:#008400;stroke-width:60;stroke-linecap:round;stroke-linejoin:round;stroke-opacity:1"
     id="g2550"
     transform="translate(-59625.208,-27245.283)" />
  <g
     style="fill:#008400;fill-opacity:0;stroke:#008400;stroke-width:60;stroke-linecap:round;stroke-linejoin:round;stroke-opacity:1"
     id="g2552"
     transform="translate(-59625.208,-27245.283)">
    <path
       d="m 74750,32000 0,4500"
       id="path2554"
       inkscape:connector-curvature="0" />
    <path
       d="m 74750,36500 -3250,0"
       id="path2556"
       inkscape:connector-curvature="0" />
    <path
       d="m 67750,33000 0,3500"
       id="path2558"
       inkscape:connector-curvature="0" />
    <path
       d="m 67750,36500 750,0"
       id="path2560"
       inkscape:connector-curvature="0" />
    <path
       d="m 63750,36500 1000,0"
       id="path2562"
       inkscape:connector-curvature="0" />
  </g>
  <g
     style="fill:#008400;fill-opacity:0;stroke:#008400;stroke-width:0;stroke-linecap:round;stroke-linejoin:round;stroke-opacity:1"
     id="g2588"
     transform="translate(-59625.208,-27245.283)" />
  <g
     style="fill:#840000;fill-opacity:0;stroke:#840000;stroke-width:0;stroke-linecap:round;stroke-linejoin:round;stroke-opacity:1"
     id="g2590"
     transform="translate(-59625.208,-27245.283)" />
  <g
     style="fill:#ffffc2;fill-opacity:0;stroke:#ffffc2;stroke-width:0;stroke-linecap:round;stroke-linejoin:round;stroke-opacity:1"
     id="g2592"
     transform="translate(-59625.208,-27245.283)" />
  <g
     style="fill:#840000;fill-opacity:0.6;stroke:#840000;stroke-width:0;stroke-linecap:round;stroke-linejoin:round;stroke-opacity:1"
     id="g2598"
     transform="translate(-59625.208,-27245.283)" />
  <g
     style="fill:#840000;fill-opacity:0;stroke:#840000;stroke-width:0;stroke-linecap:round;stroke-linejoin:round;stroke-opacity:1"
     id="g2658"
     transform="translate(-59625.208,-27245.283)" />
  <g
     style="fill:#ffffc2;fill-opacity:0;stroke:#ffffc2;stroke-width:0;stroke-linecap:round;stroke-linejoin:round;stroke-opacity:1"
     id="g2660"
     transform="translate(-59625.208,-27245.283)" />
  <g
     style="fill:#ffffc2;fill-opacity:0.6;stroke:#ffffc2;stroke-width:0;stroke-linecap:round;stroke-linejoin:round;stroke-opacity:1"
     id="g2662"
     transform="translate(-59625.208,-27245.283)">
    <polyline
       style="fill-rule:evenodd"
       points="69250,30000 73250,32000 69250,34000 69250,30000 "
       id="polyline2664" />
  </g>
  <g
     style="fill:#840000;fill-opacity:0.6;stroke:#840000;stroke-width:0;stroke-linecap:round;stroke-linejoin:round;stroke-opacity:1"
     id="g2666"
     transform="translate(-59625.208,-27245.283)" />
  <g
     style="fill:#840000;fill-opacity:0;stroke:#840000;stroke-width:60;stroke-linecap:round;stroke-linejoin:round;stroke-opacity:1"
     id="g2668"
     transform="translate(-59625.208,-27245.283)">
    <polyline
       fill="none;"
       points="69250,30000 73250,32000 69250,34000 69250,30000 "
       id="polyline2670" />
    <path
       d="m 70250,33500 0,1500"
       id="path2672"
       inkscape:connector-curvature="0" />
  </g>
  <g
     style="fill:#008484;fill-opacity:0;stroke:#008484;stroke-width:60;stroke-linecap:round;stroke-linejoin:round;stroke-opacity:1"
     id="g2674"
     transform="translate(-59625.208,-27245.283)">
    <path
       d="m 70030,33360 400,-130 -400,-130"
       id="path2676"
       inkscape:connector-curvature="0" />
    <path
       d="m 70280,32960 0,-300"
       id="path2678"
       inkscape:connector-curvature="0" />
  </g>
  <g
     style="fill:#840000;fill-opacity:0;stroke:#840000;stroke-width:60;stroke-linecap:round;stroke-linejoin:round;stroke-opacity:1"
     id="g2680"
     transform="translate(-59625.208,-27245.283)">
    <path
       d="m 69860,34170 270,0"
       id="path2682"
       inkscape:connector-curvature="0" />
    <path
       d="m 69710,34270 290,90 0,-240"
       id="path2684"
       inkscape:connector-curvature="0" />
    <path
       d="m 70250,30500 0,-1500"
       id="path2686"
       inkscape:connector-curvature="0" />
  </g>
  <g
     style="fill:#008484;fill-opacity:0;stroke:#008484;stroke-width:60;stroke-linecap:round;stroke-linejoin:round;stroke-opacity:1"
     id="g2688"
     transform="translate(-59625.208,-27245.283)">
    <path
       d="m 70030,31400 400,-130 -400,-130"
       id="path2690"
       inkscape:connector-curvature="0" />
    <path
       d="m 70280,31000 0,-300"
       id="path2692"
       inkscape:connector-curvature="0" />
    <path
       d="m 70430,30850 -300,0"
       id="path2694"
       inkscape:connector-curvature="0" />
  </g>
  <g
     style="fill:#840000;fill-opacity:0;stroke:#840000;stroke-width:60;stroke-linecap:round;stroke-linejoin:round;stroke-opacity:1"
     id="g2696"
     transform="translate(-59625.208,-27245.283)">
    <path
       d="m 69730,29880 0,-260 400,170"
       id="path2698"
       inkscape:connector-curvature="0" />
    <path
       d="m 69250,33000 -1500,0"
       id="path2700"
       inkscape:connector-curvature="0" />
  </g>
  <g
     style="fill:#008484;fill-opacity:0;stroke:#008484;stroke-width:60;stroke-linecap:round;stroke-linejoin:round;stroke-opacity:1"
     id="g2702"
     transform="translate(-59625.208,-27245.283)">
    <path
       d="m 69450,33030 300,0"
       id="path2704"
       inkscape:connector-curvature="0" />
  </g>
  <g
     style="fill:#840000;fill-opacity:0;stroke:#840000;stroke-width:60;stroke-linecap:round;stroke-linejoin:round;stroke-opacity:1"
     id="g2706"
     transform="translate(-59625.208,-27245.283)">
    <path
       d="m 68390,32520 20,-20 30,-20 100,0 40,20 20,20 10,40 0,40 -10,50 -230,230 240,0"
       id="path2708"
       inkscape:connector-curvature="0" />
    <path
       d="m 69250,31000 -1500,0"
       id="path2710"
       inkscape:connector-curvature="0" />
  </g>
  <g
     style="fill:#008484;fill-opacity:0;stroke:#008484;stroke-width:60;stroke-linecap:round;stroke-linejoin:round;stroke-opacity:1"
     id="g2712"
     transform="translate(-59625.208,-27245.283)">
    <path
       d="m 69450,31030 300,0"
       id="path2714"
       inkscape:connector-curvature="0" />
    <path
       d="m 69600,31180 0,-300"
       id="path2716"
       inkscape:connector-curvature="0" />
  </g>
  <g
     style="fill:#840000;fill-opacity:0;stroke:#840000;stroke-width:60;stroke-linecap:round;stroke-linejoin:round;stroke-opacity:1"
     id="g2718"
     transform="translate(-59625.208,-27245.283)">
    <path
       d="m 68370,30480 240,0 -130,150 60,0 40,20 20,20 10,40 0,90 -10,40 -20,20 -40,20 -120,0 -30,-20 -20,-20"
       id="path2720"
       inkscape:connector-curvature="0" />
    <path
       d="m 73250,32000 1500,0"
       id="path2722"
       inkscape:connector-curvature="0" />
    <path
       d="m 74080,31480 -80,0 -40,20 -20,20 -30,60 -20,70 0,150 20,40 10,20 40,20 80,0 40,-20 20,-20 10,-40 0,-90 -10,-40 -20,-20 -40,-20 -80,0 -40,20 -10,20 -20,40"
       id="path2724"
       inkscape:connector-curvature="0" />
  </g>
  <g
     style="fill:#840000;fill-opacity:0;stroke:#840000;stroke-width:0;stroke-linecap:round;stroke-linejoin:round;stroke-opacity:1"
     id="g2726"
     transform="translate(-59625.208,-27245.283)" />
  <g
     style="fill:#ffffc2;fill-opacity:0;stroke:#ffffc2;stroke-width:0;stroke-linecap:round;stroke-linejoin:round;stroke-opacity:1"
     id="g2728"
     transform="translate(-59625.208,-27245.283)" />
  <g
     style="fill:#840000;fill-opacity:0.6;stroke:#840000;stroke-width:0;stroke-linecap:round;stroke-linejoin:round;stroke-opacity:1"
     id="g2734"
     transform="translate(-59625.208,-27245.283)" />
</svg>
