<?xml version="1.0" encoding="UTF-8" standalone="no"?>
<!-- Created with Inkscape (http://www.inkscape.org/) -->

<svg
   xmlns:dc="http://purl.org/dc/elements/1.1/"
   xmlns:cc="http://creativecommons.org/ns#"
   xmlns:rdf="http://www.w3.org/1999/02/22-rdf-syntax-ns#"
   xmlns:svg="http://www.w3.org/2000/svg"
   xmlns="http://www.w3.org/2000/svg"
   xmlns:sodipodi="http://sodipodi.sourceforge.net/DTD/sodipodi-0.dtd"
   xmlns:inkscape="http://www.inkscape.org/namespaces/inkscape"
   width="20.015179mm"
   height="9.8308744mm"
   viewBox="0 0 70.919924 34.833807"
   id="svg5836"
   version="1.1"
   inkscape:version="0.91 r13725"
   sodipodi:docname="NTC.svg">
  <defs
     id="defs5838" />
  <sodipodi:namedview
     id="base"
     pagecolor="#ffffff"
     bordercolor="#666666"
     borderopacity="1.0"
     inkscape:pageopacity="0.0"
     inkscape:pageshadow="2"
     inkscape:zoom="1.979899"
     inkscape:cx="-50.278426"
     inkscape:cy="129.55126"
     inkscape:document-units="px"
     inkscape:current-layer="g188"
     showgrid="false"
     inkscape:window-width="1855"
     inkscape:window-height="1056"
     inkscape:window-x="65"
     inkscape:window-y="24"
     inkscape:window-maximized="1"
     fit-margin-top="0"
     fit-margin-left="0"
     fit-margin-right="0"
     fit-margin-bottom="0" />
  <metadata
     id="metadata5841">
    <rdf:RDF>
      <cc:Work
         rdf:about="">
        <dc:format>image/svg+xml</dc:format>
        <dc:type
           rdf:resource="http://purl.org/dc/dcmitype/StillImage" />
        <dc:title></dc:title>
      </cc:Work>
    </rdf:RDF>
  </metadata>
  <g
     inkscape:label="Layer 1"
     inkscape:groupmode="layer"
     id="layer1"
     transform="translate(-202.38527,-819.07521)">
    <g
       transform="matrix(0.00899999,0,0,0.00899999,70.855299,470.53672)"
       style="fill:#008400;fill-opacity:0;stroke:#008400;stroke-width:60;stroke-linecap:round;stroke-linejoin:round;stroke-opacity:1"
       id="g952">
      <g
         transform="translate(6774.4577,3816.5418)"
         style="fill:#008484;fill-opacity:0;stroke:#008484;stroke-width:60;stroke-linecap:round;stroke-linejoin:round;stroke-opacity:1"
         id="g188" />
      <g
         transform="translate(6774.4577,3816.5418)"
         style="fill:#840000;fill-opacity:0;stroke:#840000;stroke-width:60;stroke-linecap:round;stroke-linejoin:round;stroke-opacity:1"
         id="g884">
        <path
           inkscape:connector-curvature="0"
           d="m 8260,35770 0,-600 230,0 60,30 30,30 30,60 0,80 -30,60 -30,30 -60,30 -230,0"
           id="path886" />
        <path
           inkscape:connector-curvature="0"
           d="m 9210,35710 -30,30 -90,30 -60,0 -80,-30 -60,-50 -30,-60 -30,-120 0,-80 30,-120 30,-50 60,-60 80,-30 60,0 90,30 30,30"
           id="path888" />
        <path
           inkscape:connector-curvature="0"
           d="m 9430,35740 90,30 140,0 60,-30 30,-30 30,-50 0,-60 -30,-60 -30,-30 -60,-20 -110,-30 -60,-30 -30,-30 -30,-60 0,-50 30,-60 30,-30 60,-30 140,0 90,30"
           id="path890" />
      </g>
      <g
         transform="translate(6774.4577,3816.5418)"
         style="fill:#840000;fill-opacity:0;stroke:#840000;stroke-width:100;stroke-linecap:round;stroke-linejoin:round;stroke-opacity:1"
         id="g892">
        <polyline
           fill="none;"
           points="10250,35500 9950,34960 7890,34960 7890,35500 7890,36040 9950,36040 10250,35500 "
           id="polyline894" />
      </g>
      <g
         transform="translate(6774.4577,3816.5418)"
         style="fill:#840000;fill-opacity:0;stroke:#840000;stroke-width:60;stroke-linecap:round;stroke-linejoin:round;stroke-opacity:1"
         id="g896">
        <path
           inkscape:connector-curvature="0"
           d="m 14100,35710 -30,30 -90,30 -60,0 -80,-30 -60,-50 -30,-60 -30,-120 0,-80 30,-120 30,-50 60,-60 80,-30 60,0 90,30 30,30"
           id="path898" />
        <path
           inkscape:connector-curvature="0"
           d="m 14350,35770 0,-600"
           id="path900" />
        <path
           inkscape:connector-curvature="0"
           d="m 14350,35460 350,0"
           id="path902" />
        <path
           inkscape:connector-curvature="0"
           d="m 14700,35770 0,-600"
           id="path904" />
        <path
           inkscape:connector-curvature="0"
           d="m 15300,35770 -350,0"
           id="path906" />
        <path
           inkscape:connector-curvature="0"
           d="m 15130,35770 0,-600 -60,90 -60,50 -60,30"
           id="path908" />
      </g>
      <g
         transform="translate(6774.4577,3816.5418)"
         style="fill:#840000;fill-opacity:0;stroke:#840000;stroke-width:100;stroke-linecap:round;stroke-linejoin:round;stroke-opacity:1"
         id="g910">
        <polyline
           fill="none;"
           points="13250,35500 13550,36040 15640,36040 15640,35500 15640,34960 13550,34960 13250,35500 "
           id="polyline912" />
      </g>
      <g
         transform="translate(6774.4577,3816.5418)"
         style="fill:#0000c2;fill-opacity:0;stroke:#0000c2;stroke-width:60;stroke-linecap:round;stroke-linejoin:round;stroke-opacity:1"
         id="g916">
        <path
           inkscape:connector-curvature="0"
           d="m 11140,36720 0,-600 350,600 0,-600"
           id="path918" />
        <path
           inkscape:connector-curvature="0"
           d="m 11690,36120 340,0"
           id="path920" />
        <path
           inkscape:connector-curvature="0"
           d="m 11860,36720 0,-600"
           id="path922" />
        <path
           inkscape:connector-curvature="0"
           d="m 12580,36660 -30,30 -90,30 -60,0 -80,-30 -60,-50 -30,-60 -30,-120 0,-80 30,-120 30,-50 60,-60 80,-30 60,0 90,30 30,30"
           id="path924" />
      </g>
      <g
         transform="translate(6774.4577,3816.5418)"
         style="fill:#840000;fill-opacity:0;stroke:#840000;stroke-width:100;stroke-linecap:round;stroke-linejoin:round;stroke-opacity:1"
         id="g930">
        <rect
           x="10750"
           y="37350"
           width="2000"
           height="800"
           rx="0"
           id="rect932" />
      </g>
      <g
         transform="translate(6774.4577,3816.5418)"
         style="fill:#840000;fill-opacity:0;stroke:#840000;stroke-width:60;stroke-linecap:round;stroke-linejoin:round;stroke-opacity:1"
         id="g934">
        <path
           inkscape:connector-curvature="0"
           d="m 12750,37750 500,0"
           id="path936" />
        <path
           inkscape:connector-curvature="0"
           d="m 10750,37750 -500,0"
           id="path938" />
        <path
           inkscape:connector-curvature="0"
           d="m 14070,37450 -60,-30 -90,0 -80,30 -60,60 -30,50 -30,120 0,80 30,120 30,60 60,50 80,30 60,0 90,-30 30,-30 0,-200 -120,0"
           id="path940" />
        <path
           inkscape:connector-curvature="0"
           d="m 14350,38020 0,-600 350,600 0,-600"
           id="path942" />
        <path
           inkscape:connector-curvature="0"
           d="m 14980,38020 0,-600 150,0 80,30 60,60 30,50 30,120 0,80 -30,120 -30,60 -60,50 -80,30 -150,0"
           id="path944" />
      </g>
      <g
         transform="translate(6774.4577,3816.5418)"
         style="fill:#840000;fill-opacity:0;stroke:#840000;stroke-width:100;stroke-linecap:round;stroke-linejoin:round;stroke-opacity:1"
         id="g946">
        <polyline
           fill="none;"
           points="13250,37750 13550,38290 15670,38290 15670,37750 15670,37210 13550,37210 13250,37750 "
           id="polyline948" />
      </g>
      <g
         transform="translate(6774.4577,3816.5418)"
         style="fill:#008400;fill-opacity:0;stroke:#008400;stroke-width:60;stroke-linecap:round;stroke-linejoin:round;stroke-opacity:1"
         id="g998">
        <path
           inkscape:connector-curvature="0"
           d="m 10250,35500 0,2250"
           id="path1028" />
      </g>
      <g
         transform="translate(6774.4577,3816.5418)"
         style="fill:#0000c2;fill-opacity:0;stroke:#0000c2;stroke-width:60;stroke-linecap:round;stroke-linejoin:round;stroke-dasharray:136.85, 158.425;stroke-opacity:1"
         id="g1032">
        <path
           inkscape:connector-curvature="0"
           d="m 12250,37000 -500,0"
           id="path1034" />
      </g>
      <g
         transform="translate(6774.4577,3816.5418)"
         style="fill:#0000c2;fill-opacity:0;stroke:#0000c2;stroke-width:60;stroke-linecap:round;stroke-linejoin:round;stroke-dasharray:136.85, 158.425;stroke-opacity:1"
         id="g1038">
        <path
           inkscape:connector-curvature="0"
           d="m 11750,37000 0,1750"
           id="path1040" />
      </g>
      <g
         transform="translate(6774.4577,3816.5418)"
         style="fill:#0000c2;fill-opacity:0;stroke:#0000c2;stroke-width:60;stroke-linecap:round;stroke-linejoin:round;stroke-dasharray:136.85, 158.425;stroke-opacity:1"
         id="g1044">
        <path
           inkscape:connector-curvature="0"
           d="m 11750,38750 -500,0"
           id="path1046" />
      </g>
      <g
         transform="translate(6774.4577,3816.5418)"
         style="fill:#008400;fill-opacity:0;stroke:#008400;stroke-width:60;stroke-linecap:round;stroke-linejoin:round;stroke-opacity:1"
         id="g1050">
        <path
           inkscape:connector-curvature="0"
           d="m 10250,35500 3000,0"
           id="path1052" />
      </g>
    </g>
  </g>
</svg>
