<?xml version="1.0" encoding="UTF-8" standalone="no"?>
<!-- Created with Inkscape (http://www.inkscape.org/) -->

<svg
   xmlns:dc="http://purl.org/dc/elements/1.1/"
   xmlns:cc="http://creativecommons.org/ns#"
   xmlns:rdf="http://www.w3.org/1999/02/22-rdf-syntax-ns#"
   xmlns:svg="http://www.w3.org/2000/svg"
   xmlns="http://www.w3.org/2000/svg"
   xmlns:sodipodi="http://sodipodi.sourceforge.net/DTD/sodipodi-0.dtd"
   xmlns:inkscape="http://www.inkscape.org/namespaces/inkscape"
   width="20.091377mm"
   height="10.896996mm"
   viewBox="0 0 71.189919 38.611401"
   id="svg8549"
   version="1.1"
   inkscape:version="0.91 r13725"
   sodipodi:docname="PlotDC.svg">
  <defs
     id="defs8551" />
  <sodipodi:namedview
     id="base"
     pagecolor="#ffffff"
     bordercolor="#666666"
     borderopacity="1.0"
     inkscape:pageopacity="0.0"
     inkscape:pageshadow="2"
     inkscape:zoom="7.9195959"
     inkscape:cx="5.6020388"
     inkscape:cy="13.987888"
     inkscape:document-units="px"
     inkscape:current-layer="layer1"
     showgrid="false"
     fit-margin-top="0"
     fit-margin-left="0"
     fit-margin-right="0"
     fit-margin-bottom="0"
     inkscape:window-width="1855"
     inkscape:window-height="1056"
     inkscape:window-x="65"
     inkscape:window-y="24"
     inkscape:window-maximized="1" />
  <metadata
     id="metadata8554">
    <rdf:RDF>
      <cc:Work
         rdf:about="">
        <dc:format>image/svg+xml</dc:format>
        <dc:type
           rdf:resource="http://purl.org/dc/dcmitype/StillImage" />
        <dc:title></dc:title>
      </cc:Work>
    </rdf:RDF>
  </metadata>
  <g
     inkscape:label="Layer 1"
     inkscape:groupmode="layer"
     id="layer1"
     transform="translate(-478.69075,-458.77079)">
    <g
       transform="matrix(0.00899999,0,0,0.00899999,181.15108,367.33089)"
       style="fill:#840000;fill-opacity:0;stroke:#840000;stroke-width:60;stroke-linecap:round;stroke-linejoin:round;stroke-opacity:1"
       id="g462">
      <path
         inkscape:connector-curvature="0"
         d="m 33830,10960 -30,30 -90,30 -60,0 -80,-30 -60,-50 -30,-60 -30,-120 0,-80 30,-120 30,-50 60,-60 80,-30 60,0 90,30 30,30"
         id="path464" />
      <path
         inkscape:connector-curvature="0"
         d="m 34080,11020 0,-600"
         id="path466" />
      <path
         inkscape:connector-curvature="0"
         d="m 34080,10710 350,0"
         id="path468" />
      <path
         inkscape:connector-curvature="0"
         d="m 34430,11020 0,-600"
         id="path470" />
      <path
         inkscape:connector-curvature="0"
         d="m 35030,11020 -350,0"
         id="path472" />
      <path
         inkscape:connector-curvature="0"
         d="m 34860,11020 0,-600 -60,90 -60,50 -60,30"
         id="path474" />
    </g>
    <g
       transform="matrix(0.00899999,0,0,0.00899999,181.15108,367.33089)"
       style="fill:#840000;fill-opacity:0;stroke:#840000;stroke-width:100;stroke-linecap:round;stroke-linejoin:round;stroke-opacity:1"
       id="g476">
      <polyline
         fill="none;"
         points="35500,10750 35200,10210 33110,10210 33110,10750 33110,11290 35200,11290 35500,10750 "
         id="polyline478" />
    </g>
    <g
       transform="matrix(0.00899999,0,0,0.00899999,181.15108,367.33089)"
       style="fill:#840000;fill-opacity:0;stroke:#840000;stroke-width:60;stroke-linecap:round;stroke-linejoin:round;stroke-opacity:1"
       id="g480">
      <path
         inkscape:connector-curvature="0"
         d="m 39320,10450 -60,-30 -90,0 -80,30 -60,60 -30,50 -30,120 0,80 30,120 30,60 60,50 80,30 60,0 90,-30 30,-30 0,-200 -120,0"
         id="path482" />
      <path
         inkscape:connector-curvature="0"
         d="m 39600,11020 0,-600 350,600 0,-600"
         id="path484" />
      <path
         inkscape:connector-curvature="0"
         d="m 40230,11020 0,-600 150,0 80,30 60,60 30,50 30,120 0,80 -30,120 -30,60 -60,50 -80,30 -150,0"
         id="path486" />
    </g>
    <g
       transform="matrix(0.00899999,0,0,0.00899999,181.15108,367.33089)"
       style="fill:#840000;fill-opacity:0;stroke:#840000;stroke-width:100;stroke-linecap:round;stroke-linejoin:round;stroke-opacity:1"
       id="g488">
      <polyline
         fill="none;"
         points="38500,10750 38800,11290 40920,11290 40920,10750 40920,10210 38800,10210 38500,10750 "
         id="polyline490" />
    </g>
    <g
       transform="matrix(0.00899999,0,0,0.00899999,181.15108,367.33089)"
       style="fill:#840000;fill-opacity:1;stroke:#840000;stroke-width:60;stroke-linecap:round;stroke-linejoin:round;stroke-opacity:1"
       id="g494">
      <rect
         x="37070"
         y="11600"
         width="100"
         height="1800"
         rx="0"
         id="rect496" />
      <rect
         x="36500"
         y="11600"
         width="100"
         height="1800"
         rx="0"
         id="rect498" />
      <rect
         x="37300"
         y="11920"
         width="200"
         height="1200"
         rx="0"
         id="rect500" />
      <rect
         x="36730"
         y="11920"
         width="200"
         height="1200"
         rx="0"
         id="rect502" />
    </g>
    <g
       transform="matrix(0.00899999,0,0,0.00899999,181.15108,367.33089)"
       style="fill:#840000;fill-opacity:0;stroke:#840000;stroke-width:100;stroke-linecap:round;stroke-linejoin:round;stroke-opacity:1"
       id="g504">
      <polyline
         fill="none;"
         points="36050,12300 36050,11900 "
         id="polyline506" />
      <polyline
         fill="none;"
         points="35850,12100 36250,12100 "
         id="polyline508" />
    </g>
    <g
       transform="matrix(0.00899999,0,0,0.00899999,181.15108,367.33089)"
       style="fill:#840000;fill-opacity:0;stroke:#840000;stroke-width:60;stroke-linecap:round;stroke-linejoin:round;stroke-opacity:1"
       id="g510">
      <path
         inkscape:connector-curvature="0"
         d="m 36500,12500 -1000,0"
         id="path512" />
      <path
         inkscape:connector-curvature="0"
         d="m 37500,12500 1000,0"
         id="path514" />
    </g>
    <g
       transform="matrix(0.00899999,0,0,0.00899999,181.15108,367.33089)"
       style="fill:#008484;fill-opacity:0;stroke:#008484;stroke-width:60;stroke-linecap:round;stroke-linejoin:round;stroke-opacity:1"
       id="g516">
      <path
         inkscape:connector-curvature="0"
         d="m 35890,13990 70,30 20,20 20,50 0,70 -20,50 -20,20 -50,30 -190,0 0,-500 170,0 40,20 30,20 20,50 0,50 -20,50 -30,20 -40,20 -170,0"
         id="path518" />
      <path
         inkscape:connector-curvature="0"
         d="m 36430,14260 0,-270 -20,-40 -50,-30 -90,0 -50,30"
         id="path520" />
      <path
         inkscape:connector-curvature="0"
         d="m 36430,14230 -40,30 -120,0 -50,-30 -20,-50 0,-40 20,-50 50,-20 120,0 40,-30"
         id="path522" />
      <path
         inkscape:connector-curvature="0"
         d="m 36600,13920 190,0"
         id="path524" />
      <path
         inkscape:connector-curvature="0"
         d="m 36670,13760 0,420 20,50 50,30 50,0"
         id="path526" />
      <path
         inkscape:connector-curvature="0"
         d="m 36890,13920 190,0"
         id="path528" />
      <path
         inkscape:connector-curvature="0"
         d="m 36960,13760 0,420 20,50 50,30 50,0"
         id="path530" />
      <path
         inkscape:connector-curvature="0"
         d="m 37440,14230 -50,30 -90,0 -50,-30 -20,-50 0,-190 20,-40 50,-30 90,0 50,30 20,40 0,50 -230,50"
         id="path532" />
      <path
         inkscape:connector-curvature="0"
         d="m 37680,14260 0,-340"
         id="path534" />
      <path
         inkscape:connector-curvature="0"
         d="m 37680,14020 20,-50 30,-20 40,-30 50,0"
         id="path536" />
      <path
         inkscape:connector-curvature="0"
         d="m 37940,13920 120,340"
         id="path538" />
      <path
         inkscape:connector-curvature="0"
         d="m 38180,13920 -120,340 -50,120 -20,20 -50,20"
         id="path540" />
    </g>
    <path
       inkscape:connector-curvature="0"
       style="fill:#008400;fill-opacity:0;stroke:#008400;stroke-width:0.53999943;stroke-linecap:round;stroke-linejoin:round;stroke-opacity:1"
       d="m 527.6507,479.83077 0,-15.74999"
       id="path1008" />
    <path
       inkscape:connector-curvature="0"
       style="fill:#008400;fill-opacity:0;stroke:#008400;stroke-width:0.53999943;stroke-linecap:round;stroke-linejoin:round;stroke-opacity:1"
       d="m 500.65073,479.83077 0,-15.74999"
       id="path1010" />
  </g>
</svg>
