<?xml version="1.0" encoding="UTF-8" standalone="no"?>
<!-- Created with Inkscape (http://www.inkscape.org/) -->

<svg
   xmlns:dc="http://purl.org/dc/elements/1.1/"
   xmlns:cc="http://creativecommons.org/ns#"
   xmlns:rdf="http://www.w3.org/1999/02/22-rdf-syntax-ns#"
   xmlns:svg="http://www.w3.org/2000/svg"
   xmlns="http://www.w3.org/2000/svg"
   xmlns:sodipodi="http://sodipodi.sourceforge.net/DTD/sodipodi-0.dtd"
   xmlns:inkscape="http://www.inkscape.org/namespaces/inkscape"
   width="48.590145mm"
   height="25.501572mm"
   viewBox="0 0 172.16981 90.359899"
   id="svg6572"
   version="1.1"
   inkscape:version="0.91 r13725"
   sodipodi:docname="precision-rectifier.svg">
  <defs
     id="defs6574" />
  <sodipodi:namedview
     id="base"
     pagecolor="#ffffff"
     bordercolor="#666666"
     borderopacity="1.0"
     inkscape:pageopacity="0.0"
     inkscape:pageshadow="2"
     inkscape:zoom="0.35"
     inkscape:cx="-100.34367"
     inkscape:cy="322.32281"
     inkscape:document-units="px"
     inkscape:current-layer="layer1"
     showgrid="false"
     fit-margin-top="0"
     fit-margin-left="0"
     fit-margin-right="0"
     fit-margin-bottom="0"
     inkscape:window-width="891"
     inkscape:window-height="373"
     inkscape:window-x="847"
     inkscape:window-y="358"
     inkscape:window-maximized="0" />
  <metadata
     id="metadata6577">
    <rdf:RDF>
      <cc:Work
         rdf:about="">
        <dc:format>image/svg+xml</dc:format>
        <dc:type
           rdf:resource="http://purl.org/dc/dcmitype/StillImage" />
        <dc:title></dc:title>
      </cc:Work>
    </rdf:RDF>
  </metadata>
  <g
     inkscape:label="Layer 1"
     inkscape:groupmode="layer"
     id="layer1"
     transform="translate(223.22776,-764.32511)">
    <g
       transform="matrix(0.00899999,0,0,0.00899999,-727.7672,668.38522)"
       style="fill:#840000;fill-opacity:0;stroke:#840000;stroke-width:60;stroke-linecap:round;stroke-linejoin:round;stroke-opacity:1"
       id="g1936">
      <path
         inkscape:connector-curvature="0"
         d="m 66670,15670 200,600 200,-600"
         id="path1938" />
      <path
         inkscape:connector-curvature="0"
         d="m 67260,16040 460,0"
         id="path1940" />
    </g>
    <g
       transform="matrix(0.00899999,0,0,0.00899999,-727.7672,668.38522)"
       style="fill:#840000;fill-opacity:0;stroke:#840000;stroke-width:100;stroke-linecap:round;stroke-linejoin:round;stroke-opacity:1"
       id="g1942">
      <polyline
         fill="none;"
         points="66250,16000 66550,16540 68090,16540 68090,16000 68090,15460 66550,15460 66250,16000 "
         id="polyline1944" />
    </g>
    <g
       transform="matrix(0.00899999,0,0,0.00899999,-727.7672,668.38522)"
       style="fill:#840000;fill-opacity:0;stroke:#840000;stroke-width:60;stroke-linecap:round;stroke-linejoin:round;stroke-opacity:1"
       id="g1946">
      <path
         inkscape:connector-curvature="0"
         d="m 66670,10920 200,600 200,-600"
         id="path1948" />
      <path
         inkscape:connector-curvature="0"
         d="m 67260,11290 460,0"
         id="path1950" />
      <path
         inkscape:connector-curvature="0"
         d="m 67490,11520 0,-460"
         id="path1952" />
    </g>
    <g
       transform="matrix(0.00899999,0,0,0.00899999,-727.7672,668.38522)"
       style="fill:#840000;fill-opacity:0;stroke:#840000;stroke-width:100;stroke-linecap:round;stroke-linejoin:round;stroke-opacity:1"
       id="g1954">
      <polyline
         fill="none;"
         points="66250,11250 66550,11790 68090,11790 68090,11250 68090,10710 66550,10710 66250,11250 "
         id="polyline1956" />
    </g>
    <g
       transform="matrix(0.00899999,0,0,0.00899999,-727.7672,668.38522)"
       style="fill:#840000;fill-opacity:0;stroke:#840000;stroke-width:100;stroke-linecap:round;stroke-linejoin:round;stroke-opacity:1"
       id="g1960">
      <rect
         x="64750"
         y="19850"
         width="2000"
         height="800"
         rx="0"
         id="rect1962" />
    </g>
    <g
       transform="matrix(0.00899999,0,0,0.00899999,-727.7672,668.38522)"
       style="fill:#840000;fill-opacity:0;stroke:#840000;stroke-width:60;stroke-linecap:round;stroke-linejoin:round;stroke-opacity:1"
       id="g1964">
      <path
         inkscape:connector-curvature="0"
         d="m 64750,20250 -500,0"
         id="path1966" />
      <path
         inkscape:connector-curvature="0"
         d="m 66750,20250 500,0"
         id="path1968" />
    </g>
    <g
       transform="matrix(0.00899999,0,0,0.00899999,-727.7672,668.38522)"
       style="fill:#008484;fill-opacity:0;stroke:#008484;stroke-width:60;stroke-linecap:round;stroke-linejoin:round;stroke-opacity:1"
       id="g1970">
      <path
         inkscape:connector-curvature="0"
         d="m 65660,19710 -160,-240"
         id="path1972" />
      <path
         inkscape:connector-curvature="0"
         d="m 65380,19710 0,-500 190,0 50,20 20,20 20,50 0,70 -20,50 -20,20 -50,30 -190,0"
         id="path1974" />
      <path
         inkscape:connector-curvature="0"
         d="m 65860,19250 20,-20 50,-20 120,0 40,20 30,20 20,50 0,50 -20,70 -290,290 310,0"
         id="path1976" />
      <path
         inkscape:connector-curvature="0"
         d="m 65400,20510 -280,0"
         id="path1978" />
      <path
         inkscape:connector-curvature="0"
         d="m 65260,20510 0,-500 -50,70 -50,50 -40,20"
         id="path1980" />
      <path
         inkscape:connector-curvature="0"
         d="m 65710,20010 50,0 50,20 20,20 30,50 20,100 0,120 -20,90 -30,50 -20,20 -50,30 -50,0 -40,-30 -30,-20 -20,-50 -20,-90 0,-120 20,-100 20,-50 30,-20 40,-20"
         id="path1982" />
      <path
         inkscape:connector-curvature="0"
         d="m 66100,20510 0,-500"
         id="path1984" />
      <path
         inkscape:connector-curvature="0"
         d="m 66380,20510 -210,-290"
         id="path1986" />
      <path
         inkscape:connector-curvature="0"
         d="m 66380,20010 -280,280"
         id="path1988" />
    </g>
    <g
       transform="matrix(0.00899999,0,0,0.00899999,-727.7672,668.38522)"
       style="fill:#840000;fill-opacity:0;stroke:#840000;stroke-width:60;stroke-linecap:round;stroke-linejoin:round;stroke-opacity:1"
       id="g1990">
      <path
         inkscape:connector-curvature="0"
         d="m 56470,14920 140,600 110,-430 120,430 140,-600"
         id="path1992" />
      <path
         inkscape:connector-curvature="0"
         d="m 57530,15520 -350,0"
         id="path1994" />
      <path
         inkscape:connector-curvature="0"
         d="m 57360,15520 0,-600 -60,90 -60,50 -60,30"
         id="path1996" />
    </g>
    <g
       transform="matrix(0.00899999,0,0,0.00899999,-727.7672,668.38522)"
       style="fill:#840000;fill-opacity:0;stroke:#840000;stroke-width:100;stroke-linecap:round;stroke-linejoin:round;stroke-opacity:1"
       id="g1998">
      <polyline
         fill="none;"
         points="58000,15250 57700,14710 56150,14710 56150,15250 56150,15790 57700,15790 58000,15250 "
         id="polyline2000" />
    </g>
    <g
       transform="matrix(0.00899999,0,0,0.00899999,-727.7672,668.38522)"
       style="fill:#840000;fill-opacity:0;stroke:#840000;stroke-width:60;stroke-linecap:round;stroke-linejoin:round;stroke-opacity:1"
       id="g2002">
      <path
         inkscape:connector-curvature="0"
         d="m 60270,12950 -60,-30 -90,0 -80,30 -60,60 -30,50 -30,120 0,80 30,120 30,60 60,50 80,30 60,0 90,-30 30,-30 0,-200 -120,0"
         id="path2004" />
      <path
         inkscape:connector-curvature="0"
         d="m 60550,13520 0,-600 350,600 0,-600"
         id="path2006" />
      <path
         inkscape:connector-curvature="0"
         d="m 61180,13520 0,-600 150,0 80,30 60,60 30,50 30,120 0,80 -30,120 -30,60 -60,50 -80,30 -150,0"
         id="path2008" />
    </g>
    <g
       transform="matrix(0.00899999,0,0,0.00899999,-727.7672,668.38522)"
       style="fill:#840000;fill-opacity:0;stroke:#840000;stroke-width:100;stroke-linecap:round;stroke-linejoin:round;stroke-opacity:1"
       id="g2010">
      <polyline
         fill="none;"
         points="62000,13250 61700,12710 59580,12710 59580,13250 59580,13790 61700,13790 62000,13250 "
         id="polyline2012" />
    </g>
    <g
       transform="matrix(0.00899999,0,0,0.00899999,-727.7672,668.38522)"
       style="fill:#840000;fill-opacity:0;stroke:#840000;stroke-width:60;stroke-linecap:round;stroke-linejoin:round;stroke-opacity:1"
       id="g2014">
      <path
         inkscape:connector-curvature="0"
         d="m 73600,14460 -30,30 -90,30 -60,0 -80,-30 -60,-50 -30,-60 -30,-120 0,-80 30,-120 30,-50 60,-60 80,-30 60,0 90,30 30,30"
         id="path2016" />
      <path
         inkscape:connector-curvature="0"
         d="m 73850,14520 0,-600"
         id="path2018" />
      <path
         inkscape:connector-curvature="0"
         d="m 73850,14210 350,0"
         id="path2020" />
      <path
         inkscape:connector-curvature="0"
         d="m 74200,14520 0,-600"
         id="path2022" />
      <path
         inkscape:connector-curvature="0"
         d="m 74450,13980 30,-30 60,-30 140,0 60,30 30,30 30,60 0,50 -30,90 -340,340 370,0"
         id="path2024" />
    </g>
    <g
       transform="matrix(0.00899999,0,0,0.00899999,-727.7672,668.38522)"
       style="fill:#840000;fill-opacity:0;stroke:#840000;stroke-width:100;stroke-linecap:round;stroke-linejoin:round;stroke-opacity:1"
       id="g2026">
      <polyline
         fill="none;"
         points="72750,14250 73050,14790 75140,14790 75140,14250 75140,13710 73050,13710 72750,14250 "
         id="polyline2028" />
    </g>
    <g
       transform="matrix(0.00899999,0,0,0.00899999,-727.7672,668.38522)"
       style="fill:#840000;fill-opacity:0;stroke:#840000;stroke-width:60;stroke-linecap:round;stroke-linejoin:round;stroke-opacity:1"
       id="g2030">
      <path
         inkscape:connector-curvature="0"
         d="m 56830,17460 -30,30 -90,30 -60,0 -80,-30 -60,-50 -30,-60 -30,-120 0,-80 30,-120 30,-50 60,-60 80,-30 60,0 90,30 30,30"
         id="path2032" />
      <path
         inkscape:connector-curvature="0"
         d="m 57080,17520 0,-600"
         id="path2034" />
      <path
         inkscape:connector-curvature="0"
         d="m 57080,17210 350,0"
         id="path2036" />
      <path
         inkscape:connector-curvature="0"
         d="m 57430,17520 0,-600"
         id="path2038" />
      <path
         inkscape:connector-curvature="0"
         d="m 58030,17520 -350,0"
         id="path2040" />
      <path
         inkscape:connector-curvature="0"
         d="m 57860,17520 0,-600 -60,90 -60,50 -60,30"
         id="path2042" />
    </g>
    <g
       transform="matrix(0.00899999,0,0,0.00899999,-727.7672,668.38522)"
       style="fill:#840000;fill-opacity:0;stroke:#840000;stroke-width:100;stroke-linecap:round;stroke-linejoin:round;stroke-opacity:1"
       id="g2044">
      <polyline
         fill="none;"
         points="58500,17250 58200,16710 56110,16710 56110,17250 56110,17790 58200,17790 58500,17250 "
         id="polyline2046" />
    </g>
    <g
       transform="matrix(0.00899999,0,0,0.00899999,-727.7672,668.38522)"
       style="fill:#ffffc2;fill-opacity:0.6;stroke:#ffffc2;stroke-width:0;stroke-linecap:round;stroke-linejoin:round;stroke-opacity:1"
       id="g2052">
      <polyline
         style="fill-rule:evenodd"
         points="64250,12250 68250,14250 64250,16250 64250,12250 "
         id="polyline2054" />
    </g>
    <g
       transform="matrix(0.00899999,0,0,0.00899999,-727.7672,668.38522)"
       style="fill:#840000;fill-opacity:0;stroke:#840000;stroke-width:60;stroke-linecap:round;stroke-linejoin:round;stroke-opacity:1"
       id="g2058">
      <polyline
         fill="none;"
         points="64250,12250 68250,14250 64250,16250 64250,12250 "
         id="polyline2060" />
      <path
         inkscape:connector-curvature="0"
         d="m 65250,15750 0,1500"
         id="path2062" />
    </g>
    <g
       transform="matrix(0.00899999,0,0,0.00899999,-727.7672,668.38522)"
       style="fill:#008484;fill-opacity:0;stroke:#008484;stroke-width:60;stroke-linecap:round;stroke-linejoin:round;stroke-opacity:1"
       id="g2064">
      <path
         inkscape:connector-curvature="0"
         d="m 65030,15610 400,-130 -400,-130"
         id="path2066" />
      <path
         inkscape:connector-curvature="0"
         d="m 65280,15210 0,-300"
         id="path2068" />
    </g>
    <g
       transform="matrix(0.00899999,0,0,0.00899999,-727.7672,668.38522)"
       style="fill:#840000;fill-opacity:0;stroke:#840000;stroke-width:60;stroke-linecap:round;stroke-linejoin:round;stroke-opacity:1"
       id="g2070">
      <path
         inkscape:connector-curvature="0"
         d="m 64860,16420 270,0"
         id="path2072" />
      <path
         inkscape:connector-curvature="0"
         d="m 64710,16520 290,90 0,-240"
         id="path2074" />
      <path
         inkscape:connector-curvature="0"
         d="m 65250,12750 0,-1500"
         id="path2076" />
    </g>
    <g
       transform="matrix(0.00899999,0,0,0.00899999,-727.7672,668.38522)"
       style="fill:#008484;fill-opacity:0;stroke:#008484;stroke-width:60;stroke-linecap:round;stroke-linejoin:round;stroke-opacity:1"
       id="g2078">
      <path
         inkscape:connector-curvature="0"
         d="m 65030,13650 400,-130 -400,-130"
         id="path2080" />
      <path
         inkscape:connector-curvature="0"
         d="m 65280,13250 0,-300"
         id="path2082" />
      <path
         inkscape:connector-curvature="0"
         d="m 65430,13100 -300,0"
         id="path2084" />
    </g>
    <g
       transform="matrix(0.00899999,0,0,0.00899999,-727.7672,668.38522)"
       style="fill:#840000;fill-opacity:0;stroke:#840000;stroke-width:60;stroke-linecap:round;stroke-linejoin:round;stroke-opacity:1"
       id="g2086">
      <path
         inkscape:connector-curvature="0"
         d="m 64730,12130 0,-260 400,170"
         id="path2088" />
      <path
         inkscape:connector-curvature="0"
         d="m 64250,15250 -1500,0"
         id="path2090" />
    </g>
    <g
       transform="matrix(0.00899999,0,0,0.00899999,-727.7672,668.38522)"
       style="fill:#008484;fill-opacity:0;stroke:#008484;stroke-width:60;stroke-linecap:round;stroke-linejoin:round;stroke-opacity:1"
       id="g2092">
      <path
         inkscape:connector-curvature="0"
         d="m 64450,15280 300,0"
         id="path2094" />
    </g>
    <g
       transform="matrix(0.00899999,0,0,0.00899999,-727.7672,668.38522)"
       style="fill:#840000;fill-opacity:0;stroke:#840000;stroke-width:60;stroke-linecap:round;stroke-linejoin:round;stroke-opacity:1"
       id="g2096">
      <path
         inkscape:connector-curvature="0"
         d="m 63390,14770 20,-20 30,-20 100,0 40,20 20,20 10,40 0,40 -10,50 -230,230 240,0"
         id="path2098" />
      <path
         inkscape:connector-curvature="0"
         d="m 64250,13250 -1500,0"
         id="path2100" />
    </g>
    <g
       transform="matrix(0.00899999,0,0,0.00899999,-727.7672,668.38522)"
       style="fill:#008484;fill-opacity:0;stroke:#008484;stroke-width:60;stroke-linecap:round;stroke-linejoin:round;stroke-opacity:1"
       id="g2102">
      <path
         inkscape:connector-curvature="0"
         d="m 64450,13280 300,0"
         id="path2104" />
      <path
         inkscape:connector-curvature="0"
         d="m 64600,13430 0,-300"
         id="path2106" />
    </g>
    <g
       transform="matrix(0.00899999,0,0,0.00899999,-727.7672,668.38522)"
       style="fill:#840000;fill-opacity:0;stroke:#840000;stroke-width:60;stroke-linecap:round;stroke-linejoin:round;stroke-opacity:1"
       id="g2108">
      <path
         inkscape:connector-curvature="0"
         d="m 63370,12730 240,0 -130,150 60,0 40,20 20,20 10,40 0,90 -10,40 -20,20 -40,20 -120,0 -30,-20 -20,-20"
         id="path2110" />
      <path
         inkscape:connector-curvature="0"
         d="m 68250,14250 1500,0"
         id="path2112" />
      <path
         inkscape:connector-curvature="0"
         d="m 69080,13730 -80,0 -40,20 -20,20 -30,60 -20,70 0,150 20,40 10,20 40,20 80,0 40,-20 20,-20 10,-40 0,-90 -10,-40 -20,-20 -40,-20 -80,0 -40,20 -10,20 -20,40"
         id="path2114" />
    </g>
    <g
       transform="matrix(0.00899999,0,0,0.00899999,-727.7672,668.38522)"
       style="fill:#840000;fill-opacity:0;stroke:#840000;stroke-width:60;stroke-linecap:round;stroke-linejoin:round;stroke-opacity:1"
       id="g2118">
      <polyline
         fill="none;"
         points="67750,19000 67750,18000 "
         id="polyline2120" />
    </g>
    <g
       transform="matrix(0.00899999,0,0,0.00899999,-727.7672,668.38522)"
       style="fill:#840000;fill-opacity:1;stroke:#840000;stroke-width:60;stroke-linecap:round;stroke-linejoin:round;stroke-opacity:1"
       id="g2122">
      <polyline
         style="fill-rule:evenodd"
         points="66750,19000 67750,18500 66750,18000 "
         id="polyline2124" />
    </g>
    <g
       transform="matrix(0.00899999,0,0,0.00899999,-727.7672,668.38522)"
       style="fill:#840000;fill-opacity:0;stroke:#840000;stroke-width:60;stroke-linecap:round;stroke-linejoin:round;stroke-opacity:1"
       id="g2126">
      <path
         inkscape:connector-curvature="0"
         d="m 67750,18500 1000,0"
         id="path2128" />
      <path
         inkscape:connector-curvature="0"
         d="m 66750,18500 -1000,0"
         id="path2130" />
    </g>
    <g
       transform="matrix(0.00899999,0,0,0.00899999,-727.7672,668.38522)"
       style="fill:#840000;fill-opacity:0;stroke:#840000;stroke-width:60;stroke-linecap:round;stroke-linejoin:round;stroke-opacity:1"
       id="g2134">
      <polyline
         fill="none;"
         points="71750,14750 71750,13750 "
         id="polyline2136" />
    </g>
    <g
       transform="matrix(0.00899999,0,0,0.00899999,-727.7672,668.38522)"
       style="fill:#840000;fill-opacity:1;stroke:#840000;stroke-width:60;stroke-linecap:round;stroke-linejoin:round;stroke-opacity:1"
       id="g2138">
      <polyline
         style="fill-rule:evenodd"
         points="70750,14750 71750,14250 70750,13750 "
         id="polyline2140" />
    </g>
    <g
       transform="matrix(0.00899999,0,0,0.00899999,-727.7672,668.38522)"
       style="fill:#840000;fill-opacity:0;stroke:#840000;stroke-width:60;stroke-linecap:round;stroke-linejoin:round;stroke-opacity:1"
       id="g2142">
      <path
         inkscape:connector-curvature="0"
         d="m 71750,14250 1000,0"
         id="path2144" />
      <path
         inkscape:connector-curvature="0"
         d="m 70750,14250 -1000,0"
         id="path2146" />
    </g>
    <g
       transform="matrix(0.00899999,0,0,0.00899999,-727.7672,668.38522)"
       style="fill:#008400;fill-opacity:1;stroke:#008400;stroke-width:100;stroke-linecap:round;stroke-linejoin:round;stroke-opacity:1"
       id="g2388">
      <circle
         cx="62750"
         cy="18500"
         r="200"
         id="circle2390" />
    </g>
    <g
       transform="matrix(0.00899999,0,0,0.00899999,-727.7672,668.38522)"
       style="fill:#008400;fill-opacity:0;stroke:#008400;stroke-width:60;stroke-linecap:round;stroke-linejoin:round;stroke-opacity:1"
       id="g2394">
      <path
         inkscape:connector-curvature="0"
         d="m 69750,14250 0,4250"
         id="path2396" />
      <path
         inkscape:connector-curvature="0"
         d="m 69750,18500 -1000,0"
         id="path2398" />
      <path
         inkscape:connector-curvature="0"
         d="m 67250,20250 5500,0"
         id="path2400" />
      <path
         inkscape:connector-curvature="0"
         d="m 72750,20250 0,-6000"
         id="path2402" />
    </g>
    <g
       transform="matrix(0.00899999,0,0,0.00899999,-727.7672,668.38522)"
       style="fill:#840000;fill-opacity:0;stroke:#840000;stroke-width:100;stroke-linecap:round;stroke-linejoin:round;stroke-opacity:1"
       id="g2408">
      <rect
         x="59500"
         y="14850"
         width="2000"
         height="800"
         rx="0"
         id="rect2410" />
    </g>
    <g
       transform="matrix(0.00899999,0,0,0.00899999,-727.7672,668.38522)"
       style="fill:#840000;fill-opacity:0;stroke:#840000;stroke-width:60;stroke-linecap:round;stroke-linejoin:round;stroke-opacity:1"
       id="g2412">
      <path
         inkscape:connector-curvature="0"
         d="m 59500,15250 -500,0"
         id="path2414" />
      <path
         inkscape:connector-curvature="0"
         d="m 61500,15250 500,0"
         id="path2416" />
    </g>
    <g
       transform="matrix(0.00899999,0,0,0.00899999,-727.7672,668.38522)"
       style="fill:#008484;fill-opacity:0;stroke:#008484;stroke-width:60;stroke-linecap:round;stroke-linejoin:round;stroke-opacity:1"
       id="g2418">
      <path
         inkscape:connector-curvature="0"
         d="m 60410,16510 -160,-240"
         id="path2420" />
      <path
         inkscape:connector-curvature="0"
         d="m 60130,16510 0,-500 190,0 50,20 20,20 20,50 0,70 -20,50 -20,20 -50,30 -190,0"
         id="path2422" />
      <path
         inkscape:connector-curvature="0"
         d="m 60890,16510 -280,0"
         id="path2424" />
      <path
         inkscape:connector-curvature="0"
         d="m 60750,16510 0,-500 -50,70 -50,50 -40,20"
         id="path2426" />
      <path
         inkscape:connector-curvature="0"
         d="m 60150,15510 -280,0"
         id="path2428" />
      <path
         inkscape:connector-curvature="0"
         d="m 60010,15510 0,-500 -50,70 -50,50 -40,20"
         id="path2430" />
      <path
         inkscape:connector-curvature="0"
         d="m 60460,15010 50,0 50,20 20,20 30,50 20,100 0,120 -20,90 -30,50 -20,20 -50,30 -50,0 -40,-30 -30,-20 -20,-50 -20,-90 0,-120 20,-100 20,-50 30,-20 40,-20"
         id="path2432" />
      <path
         inkscape:connector-curvature="0"
         d="m 60850,15510 0,-500"
         id="path2434" />
      <path
         inkscape:connector-curvature="0"
         d="m 61130,15510 -210,-290"
         id="path2436" />
      <path
         inkscape:connector-curvature="0"
         d="m 61130,15010 -280,280"
         id="path2438" />
    </g>
  </g>
</svg>
